SplineFontDB: 3.0
FontName: Caladea-Italic
FullName: Caladea Italic
FamilyName: Caladea
Weight: Book
Copyright: Copyright (c) 2012, Huerta Tipografica (info@huertatipografica.com.ar), with Reserved Font Name 'Caladea'
Version: 1.002
ItalicAngle: -9
UnderlinePosition: -33
UnderlineWidth: 57
Ascent: 800
Descent: 200
sfntRevision: 0x00010083
LayerCount: 2
Layer: 0 1 "Back"  1
Layer: 1 1 "Fore"  0
XUID: [1021 449 1926857666 4635574]
FSType: 0
OS2Version: 3
OS2_WeightWidthSlopeOnly: 0
OS2_UseTypoMetrics: 1
CreationTime: 1346472720
ModificationTime: 1354992061
PfmFamily: 17
TTFWeight: 400
TTFWidth: 5
LineGap: 0
VLineGap: 0
Panose: 2 0 5 6 0 0 0 2 0 0
OS2TypoAscent: 945
OS2TypoAOffset: 0
OS2TypoDescent: -222
OS2TypoDOffset: 0
OS2TypoLinegap: 0
OS2WinAscent: 945
OS2WinAOffset: 0
OS2WinDescent: 222
OS2WinDOffset: 0
HheadAscent: 945
HheadAOffset: 0
HheadDescent: -222
HheadDOffset: 0
OS2SubXSize: 650
OS2SubYSize: 600
OS2SubXOff: -12
OS2SubYOff: 75
OS2SupXSize: 650
OS2SupYSize: 600
OS2SupXOff: 55
OS2SupYOff: 350
OS2StrikeYSize: 57
OS2StrikeYPos: 280
OS2CodePages: 20000093.00000000
OS2UnicodeRanges: a000002f.500000fb.00000000.00000000
Lookup: 258 0 0 "'kern' Horizontal Kerning in Latin lookup 0"  {"'kern' Horizontal Kerning in Latin lookup 0 subtable"  } ['kern' ('latn' <'dflt' > ) ]
DEI: 91125
TtTable: prep
PUSHW_1
 511
SCANCTRL
PUSHB_1
 4
SCANTYPE
EndTTInstrs
ShortTable: maxp 16
  1
  0
  420
  86
  7
  0
  0
  2
  0
  1
  1
  0
  64
  0
  0
  0
EndShort
LangName: 1033 "" "" "" "HuertaTipografica: Caladea Italic: 2012" "" "1.002" "" "Caladea is a trademark of Huerta Tipografica" "Huerta Tipografica" "Carolina Giovagnoli, Andres Torresi" "" "http://www.huertatipografica.com.ar" "http://www.huertatipografica.com.ar" "This Font Software is licensed under the SIL Open Font License, Version 1.1. This license is available with a FAQ at: http://scripts.sil.org/OFL" "http://scripts.sil.org/OFL" 
GaspTable: 1 65535 15 1
Encoding: UnicodeBmp
UnicodeInterp: none

StartChar: exclam
Encoding: 33 33 4
Width: 280
GlyphClass: 2
Flags: W
LayerCount: 2
Fore
SplineSet
155 509.5 m 128,-1,1
 162 570 162 570 162 603 c 128,-1,2
 162 636 162 636 161 646 c 1,3,4
 185 663 185 663 223 663 c 0,5,6
 269 663 269 663 269 615.5 c 128,-1,7
 269 568 269 568 220.5 422 c 128,-1,8
 172 276 172 276 160 212 c 1,9,-1
 106 203 l 1,10,11
 109 222 109 222 121.5 292.5 c 128,-1,12
 134 363 134 363 141 406 c 128,-1,0
 148 449 148 449 155 509.5 c 128,-1,1
74.5 87.5 m 128,-1,14
 91 109 91 109 114 109 c 128,-1,15
 137 109 137 109 149 97 c 128,-1,16
 161 85 161 85 161 60.5 c 128,-1,17
 161 36 161 36 144.5 14.5 c 128,-1,18
 128 -7 128 -7 105 -7 c 128,-1,19
 82 -7 82 -7 70 5 c 128,-1,20
 58 17 58 17 58 41.5 c 128,-1,13
 58 66 58 66 74.5 87.5 c 128,-1,14
EndSplineSet
EndChar

StartChar: quotedbl
Encoding: 34 34 5
Width: 389
GlyphClass: 2
Flags: W
LayerCount: 2
Fore
SplineSet
132 616 m 2,0,1
 132 640 132 640 147 657 c 128,-1,2
 162 674 162 674 187 674 c 0,3,4
 224 674 224 674 224 637 c 0,5,6
 224 607 224 607 176 467 c 1,7,-1
 132 477 l 1,8,-1
 132 616 l 2,0,1
292 616 m 2,9,10
 292 640 292 640 307 657 c 128,-1,11
 322 674 322 674 347 674 c 0,12,13
 384 674 384 674 384 637 c 0,14,15
 384 607 384 607 336 467 c 1,16,-1
 292 477 l 1,17,-1
 292 616 l 2,9,10
EndSplineSet
EndChar

StartChar: numbersign
Encoding: 35 35 6
Width: 619
GlyphClass: 2
Flags: W
LayerCount: 2
Fore
SplineSet
271 5 m 1,0,-1
 335 174 l 1,1,-1
 211 174 l 1,2,-1
 142 -7 l 1,3,-1
 94 5 l 1,4,-1
 158 174 l 1,5,-1
 38 174 l 1,6,-1
 57 227 l 1,7,-1
 178 227 l 1,8,-1
 225 353 l 1,9,-1
 119 353 l 1,10,-1
 137 406 l 1,11,-1
 245 406 l 1,12,-1
 313 585 l 1,13,-1
 362 573 l 1,14,-1
 298 406 l 1,15,-1
 422 406 l 1,16,-1
 490 585 l 1,17,-1
 539 573 l 1,18,-1
 475 406 l 1,19,-1
 595 406 l 1,20,-1
 577 353 l 1,21,-1
 455 353 l 1,22,-1
 408 227 l 1,23,-1
 515 227 l 1,24,-1
 496 174 l 1,25,-1
 388 174 l 1,26,-1
 319 -7 l 1,27,-1
 271 5 l 1,0,-1
278 353 m 1,28,-1
 231 227 l 1,29,-1
 355 227 l 1,30,-1
 402 353 l 1,31,-1
 278 353 l 1,28,-1
EndSplineSet
EndChar

StartChar: dollar
Encoding: 36 36 7
Width: 488
GlyphClass: 2
Flags: W
LayerCount: 2
Fore
SplineSet
424.5 601.5 m 128,-1,1
 461 575 461 575 461 541.5 c 128,-1,2
 461 508 461 508 444.5 487.5 c 128,-1,3
 428 467 428 467 404 467 c 128,-1,4
 380 467 380 467 361 483 c 1,5,6
 378 508 378 508 378 529.5 c 128,-1,7
 378 551 378 551 363 565.5 c 128,-1,8
 348 580 348 580 322 585 c 1,9,-1
 290 384 l 1,10,11
 391 338 391 338 412 290 c 0,12,13
 423 267 423 267 423 236 c 0,14,15
 423 155 423 155 370 100.5 c 128,-1,16
 317 46 317 46 234 34 c 1,17,-1
 220 -58 l 1,18,-1
 214 -64 l 1,19,20
 198 -64 198 -64 180 -59 c 1,21,-1
 194 32 l 1,22,23
 115 32 115 32 72 60 c 128,-1,24
 29 88 29 88 29 139 c 0,25,26
 29 169 29 169 47 189 c 128,-1,27
 65 209 65 209 93 209 c 128,-1,28
 121 209 121 209 134 191 c 1,29,30
 122 164 122 164 122 139.5 c 128,-1,31
 122 115 122 115 143.5 97.5 c 128,-1,32
 165 80 165 80 202 79 c 1,33,-1
 237 303 l 1,34,35
 149 342 149 342 128 369 c 1,36,37
 99 404 99 404 99 451 c 0,38,39
 99 523 99 523 151.5 577 c 128,-1,40
 204 631 204 631 290 635 c 1,41,-1
 305 726 l 1,42,-1
 312 732 l 1,43,44
 323 732 323 732 345 728 c 1,45,-1
 330 634 l 1,46,0
 388 628 388 628 424.5 601.5 c 128,-1,1
212 552.5 m 128,-1,48
 185 524 185 524 185 479 c 128,-1,49
 185 434 185 434 253 401 c 1,50,-1
 282 586 l 1,51,47
 239 581 239 581 212 552.5 c 128,-1,48
308 121.5 m 128,-1,53
 334 151 334 151 334 200 c 128,-1,54
 334 249 334 249 274 284 c 1,55,-1
 242 83 l 1,56,52
 282 92 282 92 308 121.5 c 128,-1,53
EndSplineSet
EndChar

StartChar: percent
Encoding: 37 37 8
Width: 858
GlyphClass: 2
Flags: W
LayerCount: 2
Fore
SplineSet
137 -19 m 1,0,-1
 701 706 l 1,1,-1
 747 676 l 1,2,-1
 184 -49 l 1,3,-1
 137 -19 l 1,0,-1
202 341 m 0,4,5
 230 341 230 341 251.5 363 c 128,-1,6
 273 385 273 385 284 420 c 0,7,8
 307 490 307 490 307 566.5 c 128,-1,9
 307 643 307 643 250 643 c 0,10,11
 213 643 213 643 188 604 c 0,12,13
 145 538 145 538 145 418 c 0,14,15
 145 341 145 341 202 341 c 0,4,5
196 302 m 0,16,17
 80 302 80 302 80 435 c 0,18,19
 80 547 80 547 128 614.5 c 128,-1,20
 176 682 176 682 256 682 c 0,21,22
 372 682 372 682 372 550 c 0,23,24
 372 438 372 438 324 370 c 128,-1,25
 276 302 276 302 196 302 c 0,16,17
635 33 m 0,26,27
 663 33 663 33 684.5 55 c 128,-1,28
 706 77 706 77 718 112 c 0,29,30
 740 182 740 182 740 258.5 c 128,-1,31
 740 335 740 335 683 335 c 0,32,33
 646 335 646 335 621 296 c 0,34,35
 578 230 578 230 578 110 c 0,36,37
 578 33 578 33 635 33 c 0,26,27
629 -6 m 0,38,39
 513 -6 513 -6 513 127 c 0,40,41
 513 239 513 239 561 306.5 c 128,-1,42
 609 374 609 374 689 374 c 0,43,44
 805 374 805 374 805 242 c 0,45,46
 805 130 805 130 757 62 c 128,-1,47
 709 -6 709 -6 629 -6 c 0,38,39
EndSplineSet
EndChar

StartChar: ampersand
Encoding: 38 38 9
Width: 659
GlyphClass: 2
Flags: W
LayerCount: 2
Fore
SplineSet
432 272.5 m 128,-1,1
 432 262 432 262 436 251 c 1,2,3
 412 253 412 253 398 268.5 c 128,-1,4
 384 284 384 284 384 308 c 0,5,6
 384 371 384 371 508 405 c 0,7,8
 559 419 559 419 584.5 442 c 128,-1,9
 610 465 610 465 610 486 c 128,-1,10
 610 507 610 507 588 523 c 1,11,12
 607 556 607 556 634 556 c 0,13,14
 642 556 642 556 650 554 c 0,15,16
 688 541 688 541 688 494.5 c 128,-1,17
 688 448 688 448 654 419 c 128,-1,18
 620 390 620 390 528 363 c 0,19,20
 492 353 492 353 467.5 333 c 128,-1,21
 443 313 443 313 437.5 298 c 128,-1,0
 432 283 432 283 432 272.5 c 128,-1,1
98 40 m 128,-1,23
 37 88 37 88 37 174.5 c 128,-1,24
 37 261 37 261 83.5 314.5 c 128,-1,25
 130 368 130 368 191 386 c 1,26,27
 122 420 122 420 122 501 c 128,-1,28
 122 582 122 582 179 626 c 128,-1,29
 236 670 236 670 323 670 c 0,30,31
 492 670 492 670 492 565 c 0,32,33
 492 529 492 529 474 507.5 c 128,-1,34
 456 486 456 486 429 486 c 0,35,36
 416 486 416 486 403.5 496 c 128,-1,37
 391 506 391 506 386 518 c 1,38,39
 407 543 407 543 407 562 c 0,40,41
 407 631 407 631 328 631 c 0,42,43
 277 631 277 631 242.5 595 c 128,-1,44
 208 559 208 559 208 504 c 0,45,46
 208 467 208 467 232 440 c 128,-1,47
 256 413 256 413 310 412 c 1,48,-1
 305 364 l 1,49,50
 226 354 226 354 179.5 307.5 c 128,-1,51
 133 261 133 261 133 192 c 128,-1,52
 133 123 133 123 175.5 88 c 128,-1,53
 218 53 218 53 292.5 53 c 128,-1,54
 367 53 367 53 429.5 92 c 128,-1,55
 492 131 492 131 521 206 c 0,56,57
 534 240 534 240 534 285 c 128,-1,58
 534 330 534 330 516 389 c 1,59,-1
 568 389 l 1,60,61
 581 340 581 340 581 293 c 0,62,63
 581 140 581 140 468 51 c 0,64,65
 392 -8 392 -8 275.5 -8 c 128,-1,22
 159 -8 159 -8 98 40 c 128,-1,23
EndSplineSet
EndChar

StartChar: quotesingle
Encoding: 39 39 10
Width: 234
GlyphClass: 2
Flags: W
LayerCount: 2
Fore
SplineSet
128 616 m 2,0,1
 128 640 128 640 143 657 c 128,-1,2
 158 674 158 674 183 674 c 0,3,4
 220 674 220 674 220 637 c 0,5,6
 220 607 220 607 172 467 c 1,7,-1
 128 477 l 1,8,-1
 128 616 l 2,0,1
EndSplineSet
EndChar

StartChar: parenleft
Encoding: 40 40 11
Width: 372
GlyphClass: 2
Flags: W
LayerCount: 2
Fore
SplineSet
90 193 m 0,0,1
 90 345 90 345 163 477 c 128,-1,2
 236 609 236 609 376 710 c 1,3,-1
 402 682 l 1,4,5
 291 582 291 582 232 448.5 c 128,-1,6
 173 315 173 315 173 159 c 128,-1,7
 173 3 173 3 269 -119 c 1,8,-1
 241 -145 l 1,9,10
 235 -140 235 -140 224.5 -131.5 c 128,-1,11
 214 -123 214 -123 188 -91.5 c 128,-1,12
 162 -60 162 -60 142.5 -24 c 128,-1,13
 123 12 123 12 106.5 70.5 c 128,-1,14
 90 129 90 129 90 193 c 0,0,1
EndSplineSet
EndChar

StartChar: parenright
Encoding: 41 41 12
Width: 372
GlyphClass: 2
Flags: W
LayerCount: 2
Fore
SplineSet
290 372 m 0,0,1
 290 222 290 222 215.5 87.5 c 128,-1,2
 141 -47 141 -47 4 -145 c 1,3,-1
 -22 -117 l 1,4,5
 88 -19 88 -19 147.5 115.5 c 128,-1,6
 207 250 207 250 207 405 c 128,-1,7
 207 560 207 560 111 684 c 1,8,-1
 139 710 l 1,9,10
 145 705 145 705 155.5 696.5 c 128,-1,11
 166 688 166 688 192 656.5 c 128,-1,12
 218 625 218 625 237.5 589 c 128,-1,13
 257 553 257 553 273.5 494.5 c 128,-1,14
 290 436 290 436 290 372 c 0,0,1
EndSplineSet
EndChar

StartChar: asterisk
Encoding: 42 42 13
Width: 415
GlyphClass: 2
Flags: W
LayerCount: 2
Fore
SplineSet
270 424 m 1,0,-1
 271 458 l 2,1,2
 271 479 271 479 264 504 c 1,3,4
 247 477 247 477 239.5 446 c 128,-1,5
 232 415 232 415 227 408 c 0,6,7
 211 389 211 389 194.5 389 c 128,-1,8
 178 389 178 389 169 398.5 c 128,-1,9
 160 408 160 408 160 422.5 c 128,-1,10
 160 437 160 437 171 446.5 c 128,-1,11
 182 456 182 456 206.5 472 c 128,-1,12
 231 488 231 488 251 512 c 1,13,14
 222 509 222 509 191.5 496.5 c 128,-1,15
 161 484 161 484 150 484 c 128,-1,16
 139 484 139 484 130.5 492.5 c 128,-1,17
 122 501 122 501 122 516.5 c 128,-1,18
 122 532 122 532 134 544.5 c 128,-1,19
 146 557 146 557 159.5 557 c 128,-1,20
 173 557 173 557 199.5 544 c 128,-1,21
 226 531 226 531 254 528 c 1,22,23
 241 552 241 552 215.5 573 c 128,-1,24
 190 594 190 594 190 610 c 128,-1,25
 190 626 190 626 202.5 638.5 c 128,-1,26
 215 651 215 651 234 651 c 0,27,28
 265 651 265 651 265 612 c 1,29,30
 265 612 265 612 264 585 c 0,31,32
 264 558 264 558 270 538 c 1,33,34
 284 562 284 562 293 593.5 c 128,-1,35
 302 625 302 625 312 638 c 128,-1,36
 322 651 322 651 338.5 651 c 128,-1,37
 355 651 355 651 364.5 642 c 128,-1,38
 374 633 374 633 374 618.5 c 128,-1,39
 374 604 374 604 362.5 593 c 128,-1,40
 351 582 351 582 326 566 c 128,-1,41
 301 550 301 550 283 529 c 1,42,43
 310 532 310 532 341 544.5 c 128,-1,44
 372 557 372 557 384 557 c 128,-1,45
 396 557 396 557 404.5 548.5 c 128,-1,46
 413 540 413 540 413 524.5 c 128,-1,47
 413 509 413 509 400.5 496.5 c 128,-1,48
 388 484 388 484 374.5 484 c 128,-1,49
 361 484 361 484 333.5 496.5 c 128,-1,50
 306 509 306 509 279 512 c 1,51,52
 292 488 292 488 315 470 c 128,-1,53
 338 452 338 452 341 445 c 1,54,55
 343 435 343 435 343 425 c 128,-1,56
 343 415 343 415 330.5 402 c 128,-1,57
 318 389 318 389 300 389 c 0,58,59
 270 389 270 389 270 424 c 1,0,-1
EndSplineSet
EndChar

StartChar: plus
Encoding: 43 43 14
Width: 528
GlyphClass: 2
Flags: W
LayerCount: 2
Fore
SplineSet
55 259 m 1,0,-1
 64 312 l 1,1,-1
 236 312 l 1,2,-1
 264 490 l 1,3,-1
 324 490 l 1,4,-1
 296 312 l 1,5,-1
 473 312 l 1,6,-1
 464 259 l 1,7,-1
 287 259 l 1,8,-1
 259 82 l 1,9,-1
 199 82 l 1,10,-1
 227 259 l 1,11,-1
 55 259 l 1,0,-1
EndSplineSet
EndChar

StartChar: comma
Encoding: 44 44 15
Width: 199
GlyphClass: 2
Flags: W
LayerCount: 2
Fore
SplineSet
7 11 m 1,0,1
 1 21 1 21 1 41.5 c 128,-1,2
 1 62 1 62 20 80.5 c 128,-1,3
 39 99 39 99 66.5 99 c 128,-1,4
 94 99 94 99 108 83.5 c 128,-1,5
 122 68 122 68 122 42 c 0,6,7
 122 -10 122 -10 86.5 -56.5 c 128,-1,8
 51 -103 51 -103 -5 -135 c 1,9,-1
 -26 -106 l 1,10,11
 2 -87 2 -87 19 -58.5 c 128,-1,12
 36 -30 36 -30 36 -8.5 c 128,-1,13
 36 13 36 13 19 13 c 0,14,15
 17 13 17 13 7 11 c 1,0,1
EndSplineSet
EndChar

StartChar: hyphen
Encoding: 45 45 16
Width: 319
GlyphClass: 2
Flags: W
LayerCount: 2
Fore
SplineSet
46 231 m 1,0,-1
 54 285 l 1,1,-1
 273 285 l 1,2,-1
 265 231 l 1,3,-1
 46 231 l 1,0,-1
EndSplineSet
EndChar

StartChar: period
Encoding: 46 46 17
Width: 199
GlyphClass: 2
Flags: W
LayerCount: 2
Fore
SplineSet
24.5 87.5 m 128,-1,1
 41 109 41 109 64 109 c 128,-1,2
 87 109 87 109 99 97 c 128,-1,3
 111 85 111 85 111 60.5 c 128,-1,4
 111 36 111 36 94.5 14.5 c 128,-1,5
 78 -7 78 -7 55 -7 c 128,-1,6
 32 -7 32 -7 20 5 c 128,-1,7
 8 17 8 17 8 41.5 c 128,-1,0
 8 66 8 66 24.5 87.5 c 128,-1,1
EndSplineSet
EndChar

StartChar: slash
Encoding: 47 47 18
Width: 466
GlyphClass: 2
Flags: W
LayerCount: 2
Fore
SplineSet
11 -112 m 1,0,-1
 452 699 l 1,1,-1
 505 678 l 1,2,-1
 63 -132 l 1,3,-1
 11 -112 l 1,0,-1
EndSplineSet
EndChar

StartChar: zero
Encoding: 48 48 19
Width: 528
GlyphClass: 2
Flags: W
LayerCount: 2
Fore
SplineSet
307 622 m 0,0,1
 258 622 258 622 220.5 576.5 c 128,-1,2
 183 531 183 531 164 460 c 0,3,4
 127 323 127 323 127 189 c 0,5,6
 127 42 127 42 223 42 c 0,7,8
 272 42 272 42 309.5 87.5 c 128,-1,9
 347 133 347 133 366 204 c 0,10,11
 403 342 403 342 403 476 c 0,12,13
 403 622 403 622 307 622 c 0,0,1
163.5 605 m 128,-1,15
 229 671 229 671 317 671 c 128,-1,16
 405 671 405 671 449.5 610.5 c 128,-1,17
 494 550 494 550 494 437 c 128,-1,18
 494 324 494 324 462.5 224 c 128,-1,19
 431 124 431 124 365.5 58.5 c 128,-1,20
 300 -7 300 -7 212 -7 c 128,-1,21
 124 -7 124 -7 79.5 53.5 c 128,-1,22
 35 114 35 114 35 226.5 c 128,-1,23
 35 339 35 339 66.5 439 c 128,-1,14
 98 539 98 539 163.5 605 c 128,-1,15
EndSplineSet
EndChar

StartChar: one
Encoding: 49 49 20
Width: 528
GlyphClass: 2
Flags: W
LayerCount: 2
Fore
SplineSet
76 0 m 1,0,-1
 81 37 l 1,1,2
 176 43 176 43 220 63 c 1,3,-1
 301 573 l 1,4,-1
 145 573 l 1,5,-1
 151 616 l 1,6,7
 266 625 266 625 370 671 c 1,8,-1
 402 657 l 1,9,-1
 308 63 l 1,10,11
 345 45 345 45 426 37 c 1,12,-1
 422 0 l 1,13,-1
 76 0 l 1,0,-1
EndSplineSet
EndChar

StartChar: two
Encoding: 50 50 21
Width: 528
GlyphClass: 2
Flags: W
LayerCount: 2
Fore
SplineSet
415 533 m 0,0,1
 415 573 415 573 391.5 595.5 c 128,-1,2
 368 618 368 618 324.5 618 c 128,-1,3
 281 618 281 618 249 589.5 c 128,-1,4
 217 561 217 561 217 519 c 0,5,6
 217 495 217 495 230 475 c 1,7,8
 205 453 205 453 180 453 c 0,9,10
 125 453 125 453 125 508 c 0,11,12
 125 577 125 577 188.5 624 c 128,-1,13
 252 671 252 671 332.5 671 c 128,-1,14
 413 671 413 671 459 631 c 128,-1,15
 505 591 505 591 505 519 c 0,16,17
 505 423 505 423 427.5 321 c 128,-1,18
 350 219 350 219 159 73 c 1,19,-1
 462 73 l 1,20,-1
 452 0 l 1,21,-1
 42 0 l 1,22,-1
 51 57 l 1,23,24
 261 233 261 233 338 335.5 c 128,-1,25
 415 438 415 438 415 533 c 0,0,1
EndSplineSet
EndChar

StartChar: three
Encoding: 51 51 22
Width: 528
GlyphClass: 2
Flags: W
LayerCount: 2
Fore
SplineSet
346.5 415 m 128,-1,1
 395 459 395 459 395 538 c 128,-1,2
 395 617 395 617 318 617 c 0,3,4
 276 617 276 617 244.5 593.5 c 128,-1,5
 213 570 213 570 213 530 c 0,6,7
 213 515 213 515 217 502 c 1,8,9
 195 484 195 484 168 484 c 0,10,11
 126 484 126 484 126 532 c 0,12,13
 126 595 126 595 190 633 c 128,-1,14
 254 671 254 671 326.5 671 c 128,-1,15
 399 671 399 671 444 636 c 128,-1,16
 489 601 489 601 489 537 c 0,17,18
 489 401 489 401 334 348 c 1,19,20
 446 318 446 318 446 218.5 c 128,-1,21
 446 119 446 119 379 56 c 128,-1,22
 312 -7 312 -7 213 -7 c 0,23,24
 136 -7 136 -7 85.5 21 c 128,-1,25
 35 49 35 49 35 107 c 0,26,27
 35 142 35 142 54 162 c 128,-1,28
 73 182 73 182 100 182 c 128,-1,29
 127 182 127 182 147 166 c 1,30,31
 131 134 131 134 131 107.5 c 128,-1,32
 131 81 131 81 155 63.5 c 128,-1,33
 179 46 179 46 225 46 c 0,34,35
 285 46 285 46 320.5 94 c 128,-1,36
 356 142 356 142 356 202 c 0,37,38
 356 325 356 325 209 325 c 1,39,-1
 216 369 l 1,40,0
 298 371 298 371 346.5 415 c 128,-1,1
EndSplineSet
EndChar

StartChar: four
Encoding: 52 52 23
Width: 528
GlyphClass: 2
Flags: W
LayerCount: 2
Fore
SplineSet
448 475 m 1,0,-1
 410 238 l 1,1,-1
 497 221 l 1,2,-1
 491 183 l 1,3,-1
 401 183 l 1,4,-1
 373 0 l 1,5,-1
 285 0 l 1,6,-1
 313 183 l 1,7,-1
 36 183 l 1,8,-1
 34 216 l 1,9,-1
 351 680 l 1,10,11
 408 680 408 680 430 657 c 1,12,-1
 125 238 l 1,13,-1
 322 238 l 1,14,-1
 354 433 l 1,15,16
 378 434 378 434 399.5 445 c 128,-1,17
 421 456 421 456 429 475 c 1,18,-1
 448 475 l 1,0,-1
EndSplineSet
EndChar

StartChar: five
Encoding: 53 53 24
Width: 528
GlyphClass: 2
Flags: W
LayerCount: 2
Fore
SplineSet
366 668 m 2,0,-1
 489 669 l 1,1,-1
 506 655 l 1,2,3
 497 614 497 614 488 592 c 1,4,-1
 250 592 l 1,5,-1
 200 392 l 1,6,7
 256 413 256 413 310 413 c 0,8,9
 390 413 390 413 433.5 372 c 128,-1,10
 477 331 477 331 477 254 c 0,11,12
 477 147 477 147 406.5 69.5 c 128,-1,13
 336 -8 336 -8 232 -8 c 0,14,15
 152 -8 152 -8 102.5 23.5 c 128,-1,16
 53 55 53 55 53 105 c 0,17,18
 53 141 53 141 72.5 162 c 128,-1,19
 92 183 92 183 117.5 183 c 128,-1,20
 143 183 143 183 166 166 c 1,21,22
 150 140 150 140 150 112 c 128,-1,23
 150 84 150 84 173 65.5 c 128,-1,24
 196 47 196 47 241 47 c 0,25,26
 304 47 304 47 344.5 105.5 c 128,-1,27
 385 164 385 164 385 251 c 0,28,29
 385 357 385 357 283 357 c 0,30,31
 217 357 217 357 144 320 c 1,32,-1
 121 350 l 1,33,-1
 197 656 l 1,34,-1
 217 670 l 1,35,36
 325 668 325 668 366 668 c 2,0,-1
EndSplineSet
EndChar

StartChar: six
Encoding: 54 54 25
Width: 528
GlyphClass: 2
Flags: W
LayerCount: 2
Fore
SplineSet
180.5 496 m 128,-1,1
 295 625 295 625 472 675 c 1,2,-1
 485 631 l 1,3,4
 251 539 251 539 185 330 c 1,5,6
 252 369 252 369 322.5 369 c 128,-1,7
 393 369 393 369 436.5 332 c 128,-1,8
 480 295 480 295 480 223 c 0,9,10
 480 124 480 124 411.5 58.5 c 128,-1,11
 343 -7 343 -7 250 -7 c 0,12,13
 66 -7 66 -7 66 180 c 128,-1,0
 66 367 66 367 180.5 496 c 128,-1,1
300 319 m 0,14,15
 229 319 229 319 167 259 c 1,16,17
 160 205 160 205 160 157.5 c 128,-1,18
 160 110 160 110 182 76 c 128,-1,19
 204 42 204 42 257.5 42 c 128,-1,20
 311 42 311 42 349.5 94 c 128,-1,21
 388 146 388 146 388 223 c 0,22,23
 388 268 388 268 365.5 293.5 c 128,-1,24
 343 319 343 319 300 319 c 0,14,15
EndSplineSet
EndChar

StartChar: seven
Encoding: 55 55 26
Width: 528
GlyphClass: 2
Flags: W
LayerCount: 2
Fore
SplineSet
247 88 m 0,0,1
 247 51 247 51 270 32 c 1,2,3
 243 -7 243 -7 201 -7 c 0,4,5
 175 -7 175 -7 158 11 c 128,-1,6
 141 29 141 29 141 64 c 128,-1,7
 141 99 141 99 151 132.5 c 128,-1,8
 161 166 161 166 191.5 215.5 c 128,-1,9
 222 265 222 265 250.5 304.5 c 128,-1,10
 279 344 279 344 344.5 433.5 c 128,-1,11
 410 523 410 523 461 596 c 1,12,-1
 208 596 l 1,13,14
 182 544 182 544 170 489 c 1,15,16
 156 487 156 487 149.5 487 c 128,-1,17
 143 487 143 487 131 489 c 1,18,19
 133 514 133 514 135 552 c 0,20,21
 140 641 140 641 142 653 c 1,22,-1
 158 668 l 1,23,24
 246 667 246 667 346 667 c 2,25,-1
 537 668 l 1,26,-1
 548 625 l 1,27,28
 529 602 529 602 462.5 506 c 128,-1,29
 396 410 396 410 321.5 277 c 128,-1,30
 247 144 247 144 247 88 c 0,0,1
EndSplineSet
EndChar

StartChar: eight
Encoding: 56 56 27
Width: 528
GlyphClass: 2
Flags: W
LayerCount: 2
Fore
SplineSet
44 136 m 0,0,1
 44 243 44 243 148 322 c 0,2,3
 169 339 169 339 193 352 c 1,4,5
 122 395 122 395 122 469 c 0,6,7
 122 558 122 558 184.5 614.5 c 128,-1,8
 247 671 247 671 330.5 671 c 128,-1,9
 414 671 414 671 456 636 c 128,-1,10
 498 601 498 601 498 544 c 0,11,12
 498 433 498 433 375 363 c 1,13,14
 422 337 422 337 448.5 302.5 c 128,-1,15
 475 268 475 268 475 215 c 0,16,17
 475 114 475 114 406.5 53.5 c 128,-1,18
 338 -7 338 -7 241 -7 c 128,-1,19
 144 -7 144 -7 94 29.5 c 128,-1,20
 44 66 44 66 44 136 c 0,0,1
384 196 m 0,21,22
 384 230 384 230 370.5 246 c 128,-1,23
 357 262 357 262 351 269 c 128,-1,24
 345 276 345 276 326.5 286 c 128,-1,25
 308 296 308 296 302.5 299.5 c 128,-1,26
 297 303 297 303 272.5 313.5 c 128,-1,27
 248 324 248 324 244 326 c 1,28,29
 135 260 135 260 135 144 c 0,30,31
 135 96 135 96 162.5 69 c 128,-1,32
 190 42 190 42 245.5 42 c 128,-1,33
 301 42 301 42 342.5 86 c 128,-1,34
 384 130 384 130 384 196 c 0,21,22
210 498 m 0,35,36
 210 458 210 458 246 432 c 0,37,38
 272 413 272 413 325 388 c 1,39,40
 413 444 413 444 413 538 c 0,41,42
 413 578 413 578 390.5 600.5 c 128,-1,43
 368 623 368 623 324 623 c 128,-1,44
 280 623 280 623 245 588 c 128,-1,45
 210 553 210 553 210 498 c 0,35,36
EndSplineSet
EndChar

StartChar: nine
Encoding: 57 57 28
Width: 528
GlyphClass: 2
Flags: W
LayerCount: 2
Fore
SplineSet
498 488 m 0,0,1
 498 299 498 299 383 169.5 c 128,-1,2
 268 40 268 40 92 -10 c 1,3,-1
 79 33 l 1,4,5
 312 126 312 126 379 334 c 1,6,7
 318 297 318 297 244.5 297 c 128,-1,8
 171 297 171 297 127 336.5 c 128,-1,9
 83 376 83 376 83 442 c 0,10,11
 83 540 83 540 152 605.5 c 128,-1,12
 221 671 221 671 314.5 671 c 128,-1,13
 408 671 408 671 453 623.5 c 128,-1,14
 498 576 498 576 498 488 c 0,0,1
264 346 m 0,15,16
 336 346 336 346 397 405 c 1,17,18
 405 453 405 453 405 503 c 128,-1,19
 405 553 405 553 382.5 587.5 c 128,-1,20
 360 622 360 622 313 622 c 0,21,22
 252 622 252 622 213.5 570.5 c 128,-1,23
 175 519 175 519 175 442 c 0,24,25
 175 396 175 396 198 371 c 128,-1,26
 221 346 221 346 264 346 c 0,15,16
EndSplineSet
EndChar

StartChar: colon
Encoding: 58 58 29
Width: 259
GlyphClass: 2
Flags: W
LayerCount: 2
Fore
SplineSet
56.5 87.5 m 128,-1,1
 73 109 73 109 96 109 c 128,-1,2
 119 109 119 109 131 97 c 128,-1,3
 143 85 143 85 143 60.5 c 128,-1,4
 143 36 143 36 126.5 14.5 c 128,-1,5
 110 -7 110 -7 87 -7 c 128,-1,6
 64 -7 64 -7 52 5 c 128,-1,7
 40 17 40 17 40 41.5 c 128,-1,0
 40 66 40 66 56.5 87.5 c 128,-1,1
109.5 421.5 m 128,-1,9
 126 443 126 443 149 443 c 128,-1,10
 172 443 172 443 184 431 c 128,-1,11
 196 419 196 419 196 394.5 c 128,-1,12
 196 370 196 370 179.5 348.5 c 128,-1,13
 163 327 163 327 140 327 c 128,-1,14
 117 327 117 327 105 339 c 128,-1,15
 93 351 93 351 93 375.5 c 128,-1,8
 93 400 93 400 109.5 421.5 c 128,-1,9
EndSplineSet
EndChar

StartChar: semicolon
Encoding: 59 59 30
Width: 259
GlyphClass: 2
Flags: W
LayerCount: 2
Fore
SplineSet
126.5 421.5 m 128,-1,1
 143 443 143 443 166 443 c 128,-1,2
 189 443 189 443 201 431 c 128,-1,3
 213 419 213 419 213 394.5 c 128,-1,4
 213 370 213 370 196.5 348.5 c 128,-1,5
 180 327 180 327 157 327 c 128,-1,6
 134 327 134 327 122 339 c 128,-1,7
 110 351 110 351 110 375.5 c 128,-1,0
 110 400 110 400 126.5 421.5 c 128,-1,1
52 11 m 1,8,9
 46 21 46 21 46 41.5 c 128,-1,10
 46 62 46 62 65 80.5 c 128,-1,11
 84 99 84 99 111.5 99 c 128,-1,12
 139 99 139 99 153 83.5 c 128,-1,13
 167 68 167 68 167 42 c 0,14,15
 167 -10 167 -10 131.5 -56.5 c 128,-1,16
 96 -103 96 -103 40 -135 c 1,17,-1
 19 -106 l 1,18,19
 47 -87 47 -87 64 -58.5 c 128,-1,20
 81 -30 81 -30 81 -8.5 c 128,-1,21
 81 13 81 13 64 13 c 0,22,23
 62 13 62 13 52 11 c 1,8,9
EndSplineSet
EndChar

StartChar: less
Encoding: 60 60 31
Width: 528
GlyphClass: 2
Flags: W
LayerCount: 2
Fore
SplineSet
47 260 m 1,0,-1
 56 312 l 1,1,-1
 467 493 l 1,2,-1
 484 442 l 1,3,-1
 131 286 l 1,4,-1
 435 129 l 1,5,-1
 402 79 l 1,6,-1
 47 260 l 1,0,-1
EndSplineSet
EndChar

StartChar: equal
Encoding: 61 61 32
Width: 528
GlyphClass: 2
Flags: W
LayerCount: 2
Fore
SplineSet
34 187 m 1,0,-1
 42 240 l 1,1,-1
 472 240 l 1,2,-1
 464 187 l 1,3,-1
 34 187 l 1,0,-1
57 331 m 1,4,-1
 65 383 l 1,5,-1
 495 383 l 1,6,-1
 487 331 l 1,7,-1
 57 331 l 1,4,-1
EndSplineSet
EndChar

StartChar: greater
Encoding: 62 62 33
Width: 528
GlyphClass: 2
Flags: W
LayerCount: 2
Fore
SplineSet
481 312 m 1,0,-1
 472 260 l 1,1,-1
 61 79 l 1,2,-1
 44 130 l 1,3,-1
 397 286 l 1,4,-1
 93 443 l 1,5,-1
 126 493 l 1,6,-1
 481 312 l 1,0,-1
EndSplineSet
EndChar

StartChar: question
Encoding: 63 63 34
Width: 407
GlyphClass: 2
Flags: W
LayerCount: 2
Fore
SplineSet
209 243 m 1,0,-1
 210 219 l 1,1,2
 188 203 188 203 164 203 c 0,3,4
 124 203 124 203 124 246.5 c 128,-1,5
 124 290 124 290 146 323 c 128,-1,6
 168 356 168 356 199.5 380 c 128,-1,7
 231 404 231 404 262 427 c 0,8,9
 338 482 338 482 338 548 c 0,10,11
 338 577 338 577 318 595.5 c 128,-1,12
 298 614 298 614 266.5 614 c 128,-1,13
 235 614 235 614 211 598 c 128,-1,14
 187 582 187 582 187 555 c 0,15,16
 187 545 187 545 194 526 c 1,17,18
 176 497 176 497 141 497 c 0,19,20
 123 497 123 497 111.5 507.5 c 128,-1,21
 100 518 100 518 100 538 c 0,22,23
 100 577 100 577 127 605 c 0,24,25
 176 656 176 656 270 656 c 0,26,27
 336 656 336 656 376.5 629 c 128,-1,28
 417 602 417 602 417 552.5 c 128,-1,29
 417 503 417 503 395.5 466.5 c 128,-1,30
 374 430 374 430 343.5 405.5 c 128,-1,31
 313 381 313 381 282 358 c 0,32,33
 209 303 209 303 209 243 c 1,0,-1
114.5 87.5 m 128,-1,35
 131 109 131 109 154 109 c 128,-1,36
 177 109 177 109 189 97 c 128,-1,37
 201 85 201 85 201 60.5 c 128,-1,38
 201 36 201 36 184.5 14.5 c 128,-1,39
 168 -7 168 -7 145 -7 c 128,-1,40
 122 -7 122 -7 110 5 c 128,-1,41
 98 17 98 17 98 41.5 c 128,-1,34
 98 66 98 66 114.5 87.5 c 128,-1,35
EndSplineSet
EndChar

StartChar: at
Encoding: 64 64 35
Width: 885
GlyphClass: 2
Flags: W
LayerCount: 2
Fore
SplineSet
588 124 m 0,0,1
 588 75 588 75 628 75 c 0,2,3
 677 75 677 75 719 166.5 c 128,-1,4
 761 258 761 258 761 364.5 c 128,-1,5
 761 471 761 471 698 536.5 c 128,-1,6
 635 602 635 602 506 602 c 0,7,8
 349 602 349 602 241 476 c 128,-1,9
 133 350 133 350 133 180 c 0,10,11
 133 58 133 58 199.5 -19.5 c 128,-1,12
 266 -97 266 -97 385 -97 c 0,13,14
 481 -97 481 -97 550 -59 c 1,15,-1
 567 -94 l 1,16,17
 483 -142 483 -142 378 -142 c 0,18,19
 220 -142 220 -142 132 -58 c 128,-1,20
 44 26 44 26 44 172 c 0,21,22
 44 298 44 298 102.5 405.5 c 128,-1,23
 161 513 161 513 269.5 579 c 128,-1,24
 378 645 378 645 513 645 c 0,25,26
 673 645 673 645 761.5 566 c 128,-1,27
 850 487 850 487 850 356.5 c 128,-1,28
 850 226 850 226 772 127 c 128,-1,29
 694 28 694 28 597 28 c 0,30,31
 514 28 514 28 514 117 c 0,32,33
 514 133 514 133 516 145 c 1,34,35
 450 33 450 33 379 33 c 128,-1,36
 308 33 308 33 282 75.5 c 128,-1,37
 256 118 256 118 256 190.5 c 128,-1,38
 256 263 256 263 279.5 326 c 128,-1,39
 303 389 303 389 351 432.5 c 128,-1,40
 399 476 399 476 457.5 476 c 128,-1,41
 516 476 516 476 566 452 c 1,42,43
 588 476 588 476 617 476 c 1,44,-1
 648 474 l 1,45,-1
 596 182 l 2,46,47
 588 142 588 142 588 124 c 0,0,1
483 431 m 0,48,49
 426 431 426 431 385.5 354.5 c 128,-1,50
 345 278 345 278 345 198 c 0,51,52
 345 85 345 85 403 85 c 0,53,54
 441 85 441 85 481.5 160.5 c 128,-1,55
 522 236 522 236 542 354 c 1,56,-1
 550 407 l 1,57,58
 517 431 517 431 483 431 c 0,48,49
EndSplineSet
EndChar

StartChar: A
Encoding: 65 65 36
Width: 588
GlyphClass: 2
Flags: W
LayerCount: 2
Fore
SplineSet
298 0 m 1,0,-1
 304 37 l 1,1,2
 363 44 363 44 394 63 c 1,3,-1
 399 63 l 1,4,-1
 376 215 l 1,5,-1
 190 215 l 1,6,-1
 124 62 l 1,7,8
 156 45 156 45 219 37 c 1,9,-1
 214 0 l 1,10,-1
 -21 0 l 1,11,-1
 -16 37 l 1,12,13
 35 45 35 45 57 60 c 1,14,-1
 329 667 l 1,15,-1
 394 667 l 1,16,-1
 496 62 l 1,17,18
 519 45 519 45 567 37 c 1,19,-1
 563 0 l 1,20,-1
 298 0 l 1,0,-1
328 534 m 1,21,-1
 212 267 l 1,22,-1
 368 267 l 1,23,-1
 328 534 l 1,21,-1
EndSplineSet
EndChar

StartChar: B
Encoding: 66 66 37
Width: 596
GlyphClass: 2
Flags: W
LayerCount: 2
Fore
SplineSet
373 667 m 2,0,1
 575 667 575 667 575 531 c 0,2,3
 575 388 575 388 425 352 c 1,4,5
 541 315 541 315 541 214 c 0,6,7
 541 123 541 123 474.5 61.5 c 128,-1,8
 408 0 408 0 278 0 c 2,9,-1
 35 0 l 1,10,-1
 41 37 l 1,11,12
 100 44 100 44 131 63 c 1,13,-1
 217 604 l 1,14,15
 185 623 185 623 131 630 c 1,16,-1
 136 667 l 1,17,-1
 373 667 l 2,0,1
309 327 m 2,18,-1
 261 327 l 1,19,-1
 223 90 l 2,20,21
 222 87 222 87 222 81 c 0,22,23
 222 64 222 64 237 56.5 c 128,-1,24
 252 49 252 49 291 49 c 0,25,26
 364 49 364 49 407.5 92.5 c 128,-1,27
 451 136 451 136 451 214 c 0,28,29
 451 268 451 268 415.5 297.5 c 128,-1,30
 380 327 380 327 309 327 c 2,18,-1
327 376 m 2,31,32
 487 376 487 376 487 530 c 0,33,34
 487 576 487 576 457 598 c 128,-1,35
 427 620 427 620 377 619.5 c 128,-1,36
 327 619 327 619 315.5 612 c 128,-1,37
 304 605 304 605 300 578 c 2,38,-1
 268 376 l 1,39,-1
 327 376 l 2,31,32
EndSplineSet
EndChar

StartChar: C
Encoding: 67 67 38
Width: 540
GlyphClass: 2
Flags: W
LayerCount: 2
Fore
SplineSet
167 213 m 0,0,1
 167 130 167 130 196.5 90.5 c 128,-1,2
 226 51 226 51 277 51 c 0,3,4
 359 51 359 51 472 141 c 1,5,-1
 504 98 l 1,6,7
 434 43 434 43 378.5 18 c 128,-1,8
 323 -7 323 -7 256 -7 c 0,9,10
 171 -7 171 -7 120.5 53.5 c 128,-1,11
 70 114 70 114 70 235.5 c 128,-1,12
 70 357 70 357 105 456 c 128,-1,13
 140 555 140 555 214.5 615 c 128,-1,14
 289 675 289 675 395 675 c 0,15,16
 473 675 473 675 516 641.5 c 128,-1,17
 559 608 559 608 559 559 c 0,18,19
 559 526 559 526 542 499 c 128,-1,20
 525 472 525 472 499 472 c 128,-1,21
 473 472 473 472 458.5 483 c 128,-1,22
 444 494 444 494 443 511 c 1,23,24
 463 533 463 533 463 559.5 c 128,-1,25
 463 586 463 586 443 604.5 c 128,-1,26
 423 623 423 623 385 624 c 1,27,28
 280 623 280 623 223.5 503 c 128,-1,29
 167 383 167 383 167 213 c 0,0,1
EndSplineSet
EndChar

StartChar: D
Encoding: 68 68 39
Width: 646
GlyphClass: 2
Flags: W
LayerCount: 2
Fore
SplineSet
333 667 m 2,0,1
 471 667 471 667 544 611 c 128,-1,2
 617 555 617 555 617 431 c 0,3,4
 617 226 617 226 516 113 c 128,-1,5
 415 0 415 0 228 0 c 2,6,-1
 21 0 l 1,7,-1
 26 37 l 1,8,9
 87 45 87 45 116 62 c 1,10,-1
 202 604 l 1,11,12
 170 623 170 623 117 630 c 1,13,-1
 122 667 l 1,14,-1
 333 667 l 2,0,1
339 617 m 2,15,-1
 292 617 l 1,16,-1
 208 90 l 2,17,18
 207 86 207 86 207 74 c 0,19,20
 207 49 207 49 268.5 49 c 128,-1,21
 330 49 330 49 381.5 86 c 128,-1,22
 433 123 433 123 462 183 c 0,23,24
 519 304 519 304 519 441 c 0,25,26
 519 538 519 538 472.5 577.5 c 128,-1,27
 426 617 426 617 339 617 c 2,15,-1
EndSplineSet
EndChar

StartChar: E
Encoding: 69 69 40
Width: 568
GlyphClass: 2
Flags: W
LayerCount: 2
Fore
SplineSet
541 516 m 1,0,1
 526 511 526 511 516.5 511 c 128,-1,2
 507 511 507 511 497 513 c 1,3,4
 495 579 495 579 472 614 c 1,5,-1
 288 614 l 1,6,-1
 248 363 l 1,7,8
 332 365 332 365 355 368 c 1,9,10
 394 371 394 371 420 434 c 1,11,-1
 452 434 l 1,12,-1
 421 239 l 1,13,-1
 390 239 l 1,14,15
 390 262 390 262 381.5 282 c 128,-1,16
 373 302 373 302 364.5 306.5 c 128,-1,17
 356 311 356 311 344 312 c 2,18,-1
 240 316 l 1,19,-1
 199 57 l 1,20,-1
 393 57 l 1,21,22
 426 94 426 94 453 169 c 1,23,24
 465 171 465 171 471.5 171 c 128,-1,25
 478 171 478 171 494 169 c 1,26,-1
 458 0 l 1,27,-1
 17 0 l 1,28,-1
 22 37 l 1,29,30
 81 44 81 44 112 63 c 1,31,-1
 198 604 l 1,32,33
 165 624 165 624 112 630 c 1,34,-1
 117 667 l 1,35,-1
 556 667 l 1,36,-1
 541 516 l 1,0,1
EndSplineSet
EndChar

StartChar: F
Encoding: 70 70 41
Width: 527
GlyphClass: 2
Flags: W
LayerCount: 2
Fore
SplineSet
526 516 m 1,0,1
 511 511 511 511 501.5 511 c 128,-1,2
 492 511 492 511 482 513 c 1,3,4
 480 573 480 573 452 614 c 1,5,-1
 273 614 l 1,6,-1
 232 358 l 1,7,-1
 340 363 l 2,8,9
 379 365 379 365 405 429 c 1,10,-1
 437 429 l 1,11,-1
 406 234 l 1,12,-1
 375 234 l 1,13,14
 375 257 375 257 366.5 277 c 128,-1,15
 358 297 358 297 349.5 301.5 c 128,-1,16
 341 306 341 306 329 307 c 2,17,-1
 224 311 l 1,18,-1
 185 63 l 1,19,20
 212 46 212 46 281 37 c 1,21,-1
 276 0 l 1,22,-1
 1 0 l 1,23,-1
 7 37 l 1,24,25
 66 44 66 44 97 63 c 1,26,-1
 183 604 l 1,27,28
 151 623 151 623 98 630 c 1,29,-1
 103 667 l 1,30,-1
 542 667 l 1,31,-1
 526 516 l 1,0,1
EndSplineSet
EndChar

StartChar: G
Encoding: 71 71 42
Width: 585
GlyphClass: 2
Flags: W
LayerCount: 2
Fore
SplineSet
275 -8 m 0,0,1
 183 -8 183 -8 126.5 49 c 128,-1,2
 70 106 70 106 70 231.5 c 128,-1,3
 70 357 70 357 105 456 c 128,-1,4
 140 555 140 555 214.5 615 c 128,-1,5
 289 675 289 675 395 675 c 0,6,7
 473 675 473 675 516 641.5 c 128,-1,8
 559 608 559 608 559 559 c 0,9,10
 559 526 559 526 542 499 c 128,-1,11
 525 472 525 472 499 472 c 128,-1,12
 473 472 473 472 458.5 483 c 128,-1,13
 444 494 444 494 443 511 c 1,14,15
 463 533 463 533 463 559.5 c 128,-1,16
 463 586 463 586 442.5 605 c 128,-1,17
 422 624 422 624 385 624 c 0,18,19
 314 624 314 624 263 564 c 0,20,21
 167 451 167 451 167 213 c 0,22,23
 167 49 167 49 289 49 c 0,24,25
 349 49 349 49 390 71 c 0,26,27
 416 85 416 85 420 107 c 2,28,-1
 441 236 l 1,29,30
 400 249 400 249 343 254 c 1,31,-1
 349 296 l 1,32,-1
 531 296 l 1,33,-1
 490 55 l 1,34,35
 395 -8 395 -8 275 -8 c 0,0,1
EndSplineSet
EndChar

StartChar: H
Encoding: 72 72 43
Width: 669
GlyphClass: 2
Flags: W
LayerCount: 2
Fore
SplineSet
6 0 m 1,0,-1
 11 37 l 1,1,2
 64 44 64 44 96 63 c 1,3,-1
 182 604 l 1,4,5
 149 624 149 624 96 630 c 1,6,-1
 101 667 l 1,7,-1
 355 667 l 1,8,-1
 350 630 l 1,9,10
 305 624 305 624 270 604 c 1,11,-1
 232 369 l 1,12,-1
 487 369 l 1,13,-1
 525 604 l 1,14,15
 489 624 489 624 440 630 c 1,16,-1
 444 667 l 1,17,-1
 698 667 l 1,18,-1
 692 630 l 1,19,20
 647 624 647 624 613 604 c 1,21,-1
 527 63 l 1,22,23
 560 44 560 44 618 37 c 1,24,-1
 613 0 l 1,25,-1
 354 0 l 1,26,-1
 359 37 l 1,27,28
 406 43 406 43 439 63 c 1,29,-1
 479 315 l 1,30,-1
 224 315 l 1,31,-1
 184 63 l 1,32,33
 217 44 217 44 269 37 c 1,34,-1
 265 0 l 1,35,-1
 6 0 l 1,0,-1
EndSplineSet
EndChar

StartChar: I
Encoding: 73 73 44
Width: 320
GlyphClass: 2
Flags: W
LayerCount: 2
Fore
SplineSet
7 0 m 1,0,-1
 12 37 l 1,1,2
 66 44 66 44 98 63 c 1,3,-1
 184 604 l 1,4,5
 151 624 151 624 98 630 c 1,6,-1
 103 667 l 1,7,-1
 362 667 l 1,8,-1
 357 630 l 1,9,10
 306 624 306 624 272 604 c 1,11,-1
 186 63 l 1,12,13
 218 44 218 44 276 37 c 1,14,-1
 271 0 l 1,15,-1
 7 0 l 1,0,-1
EndSplineSet
EndChar

StartChar: J
Encoding: 74 74 45
Width: 299
GlyphClass: 2
Flags: W
LayerCount: 2
Fore
SplineSet
272 604 m 1,0,-1
 179 16 l 2,1,2
 154 -145 154 -145 -48 -195 c 1,3,-1
 -54 -165 l 1,4,5
 70 -114 70 -114 88 1 c 2,6,-1
 184 604 l 1,7,8
 152 623 152 623 97 630 c 1,9,-1
 102 667 l 1,10,-1
 362 667 l 1,11,-1
 356 630 l 1,12,13
 305 624 305 624 272 604 c 1,0,-1
EndSplineSet
EndChar

StartChar: K
Encoding: 75 75 46
Width: 603
GlyphClass: 2
Flags: W
LayerCount: 2
Fore
SplineSet
15 0 m 1,0,-1
 21 37 l 1,1,2
 74 44 74 44 105 63 c 1,3,-1
 192 604 l 1,4,5
 161 623 161 623 106 630 c 1,6,-1
 111 667 l 1,7,-1
 356 667 l 1,8,-1
 351 630 l 1,9,10
 312 626 312 626 282 612 c 1,11,-1
 194 63 l 1,12,13
 227 44 227 44 284 37 c 1,14,-1
 280 0 l 1,15,-1
 15 0 l 1,0,-1
463 602 m 0,16,17
 463 629 463 629 414 630 c 1,18,-1
 419 667 l 1,19,-1
 637 667 l 1,20,-1
 633 630 l 1,21,22
 583 630 583 630 553 608 c 1,23,-1
 332 369 l 1,24,-1
 478 83 l 1,25,26
 495 47 495 47 569 38 c 1,27,-1
 558 0 l 1,28,-1
 465 0 l 2,29,30
 431 0 431 0 414.5 13.5 c 128,-1,31
 398 27 398 27 379 66 c 2,32,-1
 242 347 l 1,33,-1
 451 579 l 2,34,35
 463 592 463 592 463 602 c 0,16,17
EndSplineSet
EndChar

StartChar: L
Encoding: 76 76 47
Width: 523
GlyphClass: 2
Flags: W
LayerCount: 2
Fore
SplineSet
210 88 m 0,0,1
 210 70 210 70 224.5 63.5 c 128,-1,2
 239 57 239 57 277 57 c 2,3,-1
 374 57 l 1,4,5
 407 96 407 96 434 169 c 1,6,7
 446 171 446 171 452.5 171 c 128,-1,8
 459 171 459 171 475 169 c 1,9,-1
 438 0 l 1,10,-1
 26 0 l 1,11,-1
 32 37 l 1,12,13
 85 44 85 44 117 63 c 1,14,-1
 204 604 l 1,15,16
 172 623 172 623 118 630 c 1,17,-1
 123 667 l 1,18,-1
 392 667 l 1,19,-1
 387 630 l 1,20,21
 323 622 323 622 292 604 c 1,22,-1
 214 115 l 2,23,24
 210 93 210 93 210 88 c 0,0,1
EndSplineSet
EndChar

StartChar: M
Encoding: 77 77 48
Width: 792
GlyphClass: 2
Flags: W
LayerCount: 2
Fore
SplineSet
372 0 m 1,0,-1
 318 0 l 1,1,-1
 198 512 l 1,2,-1
 134 63 l 1,3,4
 167 44 167 44 224 37 c 1,5,-1
 220 0 l 1,6,-1
 -20 0 l 1,7,-1
 -15 37 l 1,8,9
 38 43 38 43 70 63 c 1,10,-1
 156 604 l 1,11,12
 123 624 123 624 71 630 c 1,13,-1
 76 667 l 1,14,-1
 249 667 l 1,15,-1
 376 116 l 1,16,-1
 678 667 l 1,17,-1
 839 667 l 1,18,-1
 834 630 l 1,19,20
 783 624 783 624 749 604 c 1,21,-1
 663 63 l 1,22,23
 696 44 696 44 753 37 c 1,24,-1
 749 0 l 1,25,-1
 485 0 l 1,26,-1
 490 37 l 1,27,28
 543 44 543 44 575 63 c 1,29,-1
 653 512 l 1,30,-1
 372 0 l 1,0,-1
EndSplineSet
EndChar

StartChar: N
Encoding: 78 78 49
Width: 671
GlyphClass: 2
Flags: W
LayerCount: 2
Fore
SplineSet
251 667 m 1,0,-1
 480 193 l 1,1,-1
 545 604 l 1,2,3
 514 623 514 623 460 630 c 1,4,-1
 464 667 l 1,5,-1
 700 667 l 1,6,-1
 695 630 l 1,7,8
 644 624 644 624 610 604 c 1,9,-1
 514 0 l 1,10,-1
 473 0 l 1,11,-1
 226 510 l 1,12,-1
 154 63 l 1,13,14
 188 44 188 44 245 37 c 1,15,-1
 241 0 l 1,16,-1
 0 0 l 1,17,-1
 6 37 l 1,18,19
 58 43 58 43 90 62 c 1,20,-1
 177 604 l 1,21,22
 145 623 145 623 92 630 c 1,23,-1
 97 667 l 1,24,-1
 251 667 l 1,0,-1
EndSplineSet
EndChar

StartChar: O
Encoding: 79 79 50
Width: 622
GlyphClass: 2
Flags: W
LayerCount: 2
Fore
SplineSet
274 40 m 0,0,1
 375 40 375 40 441.5 152.5 c 128,-1,2
 508 265 508 265 508 446 c 0,3,4
 508 536 508 536 481 581.5 c 128,-1,5
 454 627 454 627 394 627 c 0,6,7
 292 627 292 627 226 513.5 c 128,-1,8
 160 400 160 400 160 220 c 128,-1,9
 160 40 160 40 274 40 c 0,0,1
387 675 m 0,10,11
 501 675 501 675 553.5 614.5 c 128,-1,12
 606 554 606 554 606 435.5 c 128,-1,13
 606 317 606 317 572 219.5 c 128,-1,14
 538 122 538 122 462.5 57.5 c 128,-1,15
 387 -7 387 -7 277 -7 c 128,-1,16
 167 -7 167 -7 114 53.5 c 128,-1,17
 61 114 61 114 61 234 c 0,18,19
 61 375 61 375 112 486 c 0,20,21
 167 605 167 605 268 650 c 0,22,23
 322 675 322 675 387 675 c 0,10,11
EndSplineSet
EndChar

StartChar: P
Encoding: 80 80 51
Width: 555
GlyphClass: 2
Flags: W
LayerCount: 2
Fore
SplineSet
355 667 m 2,0,1
 460 667 460 667 511 632 c 128,-1,2
 562 597 562 597 562 522 c 0,3,4
 562 293 562 293 275 293 c 2,5,-1
 240 293 l 1,6,-1
 203 63 l 1,7,8
 235 44 235 44 293 37 c 1,9,-1
 289 0 l 1,10,-1
 24 0 l 1,11,-1
 29 37 l 1,12,13
 82 43 82 43 114 63 c 1,14,-1
 201 604 l 1,15,16
 168 624 168 624 115 630 c 1,17,-1
 120 667 l 1,18,-1
 355 667 l 2,0,1
363 625 m 0,19,20
 311 625 311 625 300.5 616.5 c 128,-1,21
 290 608 290 608 287 589 c 2,22,-1
 247 338 l 1,23,-1
 275 338 l 2,24,25
 367 338 367 338 419.5 385 c 128,-1,26
 472 432 472 432 472 520 c 0,27,28
 472 625 472 625 363 625 c 0,19,20
EndSplineSet
EndChar

StartChar: Q
Encoding: 81 81 52
Width: 622
GlyphClass: 2
Flags: W
LayerCount: 2
Fore
SplineSet
387 675 m 0,0,1
 501 675 501 675 553.5 614.5 c 128,-1,2
 606 554 606 554 606 433 c 0,3,4
 606 269 606 269 536 145.5 c 128,-1,5
 466 22 466 22 336 -2 c 1,6,7
 346 -48 346 -48 381 -84 c 128,-1,8
 416 -120 416 -120 466 -138 c 1,9,10
 464 -159 464 -159 451 -168 c 1,11,12
 301 -142 301 -142 256 -6 c 1,13,14
 61 5 61 5 61 234 c 0,15,16
 61 375 61 375 112 486 c 0,17,18
 167 605 167 605 268 650 c 0,19,20
 322 675 322 675 387 675 c 0,0,1
274 40 m 0,21,22
 375 40 375 40 441.5 152.5 c 128,-1,23
 508 265 508 265 508 446 c 0,24,25
 508 536 508 536 481 581.5 c 128,-1,26
 454 627 454 627 394 627 c 0,27,28
 292 627 292 627 226 513.5 c 128,-1,29
 160 400 160 400 160 220 c 128,-1,30
 160 40 160 40 274 40 c 0,21,22
EndSplineSet
EndChar

StartChar: R
Encoding: 82 82 53
Width: 590
GlyphClass: 2
Flags: W
LayerCount: 2
Fore
SplineSet
345 667 m 2,0,1
 547 667 547 667 547 523 c 0,2,3
 547 365 547 365 388 322 c 1,4,5
 420 303 420 303 440 236 c 1,6,-1
 484 80 l 2,7,8
 493 46 493 46 568 38 c 1,9,-1
 557 0 l 1,10,-1
 470 0 l 2,11,12
 433 0 433 0 416.5 13 c 128,-1,13
 400 26 400 26 390 69 c 2,14,-1
 355 219 l 2,15,16
 341 279 341 279 324 292.5 c 128,-1,17
 307 306 307 306 245 306 c 2,18,-1
 226 306 l 1,19,-1
 188 62 l 1,20,21
 220 44 220 44 278 37 c 1,22,-1
 273 0 l 1,23,-1
 9 0 l 1,24,-1
 14 37 l 1,25,26
 68 44 68 44 100 63 c 1,27,-1
 186 604 l 1,28,29
 153 624 153 624 100 630 c 1,30,-1
 105 667 l 1,31,-1
 345 667 l 2,0,1
250 352 m 2,32,33
 339 352 339 352 397.5 391.5 c 128,-1,34
 456 431 456 431 456 521 c 0,35,36
 456 625 456 625 338 625 c 0,37,38
 301 625 301 625 288.5 619 c 128,-1,39
 276 613 276 613 272 592 c 2,40,-1
 234 352 l 1,41,-1
 250 352 l 2,32,33
EndSplineSet
EndChar

StartChar: S
Encoding: 83 83 54
Width: 481
GlyphClass: 2
Flags: W
LayerCount: 2
Fore
SplineSet
235 595 m 128,-1,1
 204 566 204 566 204 529 c 128,-1,2
 204 492 204 492 225.5 460 c 128,-1,3
 247 428 247 428 278 398 c 128,-1,4
 309 368 309 368 340 336 c 0,5,6
 414 260 414 260 414 182 c 0,7,8
 414 130 414 130 392.5 91.5 c 128,-1,9
 371 53 371 53 336 32 c 0,10,11
 269 -7 269 -7 187 -7 c 128,-1,12
 105 -7 105 -7 22 44 c 1,13,-1
 66 208 l 1,14,-1
 112 201 l 1,15,16
 106 167 106 167 106 136 c 128,-1,17
 106 105 106 105 111 83 c 1,18,19
 148 46 148 46 215 46 c 0,20,21
 261 46 261 46 292 74.5 c 128,-1,22
 323 103 323 103 323 142.5 c 128,-1,23
 323 182 323 182 290.5 224 c 128,-1,24
 258 266 258 266 219.5 300.5 c 128,-1,25
 181 335 181 335 148.5 383 c 128,-1,26
 116 431 116 431 116 476 c 0,27,28
 116 569 116 569 181 622 c 128,-1,29
 246 675 246 675 325.5 675 c 128,-1,30
 405 675 405 675 443 643 c 128,-1,31
 481 611 481 611 481 565 c 0,32,33
 481 537 481 537 464 514.5 c 128,-1,34
 447 492 447 492 422 492 c 128,-1,35
 397 492 397 492 383.5 501.5 c 128,-1,36
 370 511 370 511 368 525 c 1,37,38
 386 546 386 546 386 569 c 128,-1,39
 386 592 386 592 367 607.5 c 128,-1,40
 348 623 348 623 307 623.5 c 128,-1,0
 266 624 266 624 235 595 c 128,-1,1
EndSplineSet
EndChar

StartChar: T
Encoding: 84 84 55
Width: 574
GlyphClass: 2
Flags: W
LayerCount: 2
Fore
SplineSet
98 670 m 1,0,-1
 341 667 l 1,1,-1
 608 670 l 1,2,-1
 582 501 l 1,3,4
 574 499 574 499 562.5 499 c 128,-1,5
 551 499 551 499 537 501 c 1,6,7
 538 508 538 508 538 524 c 0,8,9
 538 575 538 575 520 611 c 1,10,11
 486 613 486 613 392 615 c 1,12,-1
 304 62 l 1,13,14
 334 46 334 46 404 37 c 1,15,-1
 399 0 l 1,16,-1
 115 0 l 1,17,-1
 121 37 l 1,18,19
 184 43 184 43 215 62 c 1,20,-1
 304 615 l 1,21,22
 225 615 225 615 169 613 c 1,23,24
 129 562 129 562 116 501 c 1,25,26
 100 499 100 499 89 499 c 128,-1,27
 78 499 78 499 72 501 c 1,28,-1
 98 670 l 1,0,-1
EndSplineSet
EndChar

StartChar: U
Encoding: 85 85 56
Width: 632
GlyphClass: 2
Flags: W
LayerCount: 2
Fore
SplineSet
447 50 m 128,-1,1
 384 -7 384 -7 281.5 -7 c 128,-1,2
 179 -7 179 -7 130.5 31 c 128,-1,3
 82 69 82 69 82 150 c 0,4,5
 82 172 82 172 87 207 c 2,6,-1
 151 604 l 1,7,8
 120 623 120 623 65 630 c 1,9,-1
 70 667 l 1,10,-1
 330 667 l 1,11,-1
 324 630 l 1,12,13
 275 624 275 624 241 605 c 1,14,-1
 177 207 l 2,15,16
 173 182 173 182 173 157 c 0,17,18
 173 98 173 98 202.5 71.5 c 128,-1,19
 232 45 232 45 297 45 c 128,-1,20
 362 45 362 45 406 88 c 128,-1,21
 450 131 450 131 463 212 c 2,22,-1
 526 604 l 1,23,24
 493 624 493 624 440 630 c 1,25,-1
 445 667 l 1,26,-1
 679 667 l 1,27,-1
 673 630 l 1,28,29
 624 624 624 624 590 605 c 1,30,-1
 527 212 l 2,31,0
 510 107 510 107 447 50 c 128,-1,1
EndSplineSet
EndChar

StartChar: V
Encoding: 86 86 57
Width: 575
GlyphClass: 2
Flags: W
LayerCount: 2
Fore
SplineSet
630 667 m 1,0,-1
 625 630 l 1,1,2
 581 624 581 624 553 611 c 1,3,-1
 273 -7 l 1,4,5
 239 -7 239 -7 219 0 c 1,6,-1
 120 609 l 1,7,8
 88 626 88 626 56 630 c 1,9,-1
 61 667 l 1,10,-1
 310 667 l 1,11,-1
 305 630 l 1,12,13
 255 624 255 624 217 604 c 1,14,-1
 284 145 l 1,15,-1
 485 605 l 1,16,17
 453 623 453 623 401 630 c 1,18,-1
 406 667 l 1,19,-1
 630 667 l 1,0,-1
EndSplineSet
EndChar

StartChar: W
Encoding: 87 87 58
Width: 896
GlyphClass: 2
Flags: W
LayerCount: 2
Fore
SplineSet
335 667 m 1,0,-1
 330 630 l 1,1,2
 280 624 280 624 242 604 c 1,3,-1
 270 150 l 1,4,-1
 510 649 l 1,5,6
 526 655 526 655 559 656 c 1,7,-1
 570 657 l 1,8,-1
 605 152 l 1,9,-1
 813 604 l 1,10,11
 781 623 781 623 728 630 c 1,12,-1
 733 667 l 1,13,-1
 952 667 l 1,14,-1
 947 630 l 1,15,16
 903 620 903 620 879 605 c 1,17,-1
 591 -7 l 1,18,19
 556 -7 556 -7 537 0 c 1,20,-1
 491 477 l 1,21,-1
 255 -7 l 1,22,23
 220 -7 220 -7 201 0 c 1,24,-1
 148 608 l 1,25,26
 112 626 112 626 81 630 c 1,27,-1
 86 667 l 1,28,-1
 335 667 l 1,0,-1
EndSplineSet
EndChar

StartChar: X
Encoding: 88 88 59
Width: 545
GlyphClass: 2
Flags: W
LayerCount: 2
Fore
SplineSet
427 0 m 2,0,1
 393 0 393 0 378 13.5 c 128,-1,2
 363 27 363 27 347 66 c 2,3,-1
 139 584 l 2,4,5
 121 629 121 629 60 630 c 1,6,-1
 65 667 l 1,7,-1
 168 667 l 2,8,9
 191 667 191 667 197 661 c 2,10,-1
 205 653 l 2,11,12
 207 651 207 651 210.5 643.5 c 128,-1,13
 214 636 214 636 216 632 c 128,-1,14
 218 628 218 628 222 617 c 128,-1,15
 226 606 226 606 229 600 c 2,16,-1
 439 83 l 1,17,18
 449 62 449 62 465 52 c 128,-1,19
 481 42 481 42 520 38 c 1,20,-1
 514 0 l 1,21,-1
 427 0 l 2,0,1
252 355 m 1,22,-1
 275 302 l 1,23,-1
 100 63 l 1,24,25
 133 44 133 44 190 37 c 1,26,-1
 186 0 l 1,27,-1
 -52 0 l 1,28,-1
 -46 37 l 1,29,30
 8 44 8 44 35 61 c 1,31,-1
 252 355 l 1,22,-1
314 331 m 1,32,-1
 502 606 l 1,33,34
 534 624 534 624 582 630 c 1,35,-1
 587 667 l 1,36,-1
 355 667 l 1,37,-1
 350 630 l 1,38,39
 403 624 403 624 436 604 c 1,40,-1
 291 384 l 1,41,-1
 314 331 l 1,32,-1
EndSplineSet
EndChar

StartChar: Y
Encoding: 89 89 60
Width: 548
GlyphClass: 2
Flags: W
LayerCount: 2
Fore
SplineSet
96 0 m 1,0,-1
 101 37 l 1,1,2
 167 45 167 45 196 63 c 1,3,-1
 228 272 l 1,4,-1
 118 611 l 1,5,6
 87 626 87 626 56 630 c 1,7,-1
 61 667 l 1,8,-1
 304 667 l 1,9,-1
 299 630 l 1,10,11
 249 623 249 623 219 607 c 1,12,-1
 297 347 l 1,13,-1
 453 604 l 1,14,15
 421 623 421 623 368 630 c 1,16,-1
 373 667 l 1,17,-1
 606 667 l 1,18,-1
 601 630 l 1,19,20
 550 623 550 623 520 606 c 1,21,-1
 319 285 l 1,22,-1
 284 63 l 1,23,24
 314 46 314 46 384 37 c 1,25,-1
 380 0 l 1,26,-1
 96 0 l 1,0,-1
EndSplineSet
EndChar

StartChar: Z
Encoding: 90 90 61
Width: 512
GlyphClass: 2
Flags: W
LayerCount: 2
Fore
SplineSet
143 499 m 1,0,1
 129 497 129 497 116.5 497 c 128,-1,2
 104 497 104 497 99 499 c 1,3,-1
 110 644 l 1,4,-1
 134 667 l 1,5,-1
 535 667 l 1,6,-1
 537 627 l 1,7,-1
 139 53 l 1,8,-1
 375 62 l 1,9,10
 392 85 392 85 400.5 104.5 c 128,-1,11
 409 124 409 124 417 145 c 128,-1,12
 425 166 425 166 430 178 c 1,13,14
 444 180 444 180 454.5 180 c 128,-1,15
 465 180 465 180 479 178 c 1,16,-1
 441 0 l 1,17,-1
 30 0 l 1,18,-1
 24 44 l 1,19,-1
 419 612 l 1,20,21
 299 610 299 610 186 605 c 1,22,23
 165 567 165 567 143 499 c 1,0,1
EndSplineSet
EndChar

StartChar: bracketleft
Encoding: 91 91 62
Width: 339
GlyphClass: 2
Flags: W
LayerCount: 2
Fore
SplineSet
229 -140 m 1,0,-1
 44 -140 l 1,1,-1
 178 709 l 1,2,-1
 364 709 l 1,3,-1
 359 676 l 1,4,-1
 249 666 l 1,5,-1
 128 -96 l 1,6,-1
 235 -106 l 1,7,-1
 229 -140 l 1,0,-1
EndSplineSet
EndChar

StartChar: backslash
Encoding: 92 92 63
Width: 466
GlyphClass: 2
Flags: W
LayerCount: 2
Fore
SplineSet
291 -125 m 1,0,-1
 110 671 l 1,1,-1
 169 692 l 1,2,-1
 350 -104 l 1,3,-1
 291 -125 l 1,0,-1
EndSplineSet
EndChar

StartChar: bracketright
Encoding: 93 93 64
Width: 339
GlyphClass: 2
Flags: W
LayerCount: 2
Fore
SplineSet
119 709 m 1,0,-1
 304 709 l 1,1,-1
 170 -140 l 1,2,-1
 -16 -140 l 1,3,-1
 -11 -107 l 1,4,-1
 99 -97 l 1,5,-1
 220 665 l 1,6,-1
 113 675 l 1,7,-1
 119 709 l 1,0,-1
EndSplineSet
EndChar

StartChar: asciicircum
Encoding: 94 94 65
Width: 528
GlyphClass: 2
Flags: W
LayerCount: 2
Fore
SplineSet
298 674 m 1,0,-1
 350 674 l 1,1,-1
 480 356 l 1,2,-1
 426 331 l 1,3,-1
 313 604 l 1,4,-1
 113 331 l 1,5,-1
 66 356 l 1,6,-1
 298 674 l 1,0,-1
EndSplineSet
EndChar

StartChar: underscore
Encoding: 95 95 66
Width: 371
GlyphClass: 2
Flags: W
LayerCount: 2
Fore
SplineSet
366 -112 m 1,0,-1
 -4 -112 l 1,1,-1
 4 -58 l 1,2,-1
 375 -58 l 1,3,-1
 366 -112 l 1,0,-1
EndSplineSet
EndChar

StartChar: grave
Encoding: 96 96 67
Width: 271
GlyphClass: 2
Flags: W
LayerCount: 2
Fore
SplineSet
82 607 m 2,0,1
 63 624 63 624 63 640 c 128,-1,2
 63 656 63 656 76 668.5 c 128,-1,3
 89 681 89 681 106.5 681 c 128,-1,4
 124 681 124 681 134 664 c 2,5,-1
 199 548 l 1,6,-1
 173 524 l 1,7,-1
 82 607 l 2,0,1
EndSplineSet
EndChar

StartChar: a
Encoding: 97 97 68
Width: 526
GlyphClass: 2
Flags: W
LayerCount: 2
Fore
SplineSet
397 99 m 1,0,-1
 394 77 l 1,1,2
 394 62 394 62 414 62 c 128,-1,3
 434 62 434 62 466 81 c 1,4,-1
 476 49 l 1,5,6
 411 -7 411 -7 362 -7 c 0,7,8
 328 -7 328 -7 317 6 c 128,-1,9
 306 19 306 19 306 37.5 c 128,-1,10
 306 56 306 56 314 98 c 1,11,12
 243 -7 243 -7 169.5 -7 c 128,-1,13
 96 -7 96 -7 68 39.5 c 128,-1,14
 40 86 40 86 40 168 c 128,-1,15
 40 250 40 250 66 318.5 c 128,-1,16
 92 387 92 387 145 432.5 c 128,-1,17
 198 478 198 478 259 478 c 128,-1,18
 320 478 320 478 376 452 c 1,19,20
 398 476 398 476 427 476 c 1,21,-1
 458 474 l 1,22,-1
 397 99 l 1,0,-1
193 45 m 0,23,24
 235 45 235 45 280 117.5 c 128,-1,25
 325 190 325 190 343 301 c 2,26,-1
 360 406 l 1,27,28
 323 430 323 430 281 430 c 128,-1,29
 239 430 239 430 201.5 385.5 c 128,-1,30
 164 341 164 341 146.5 283 c 128,-1,31
 129 225 129 225 129 171 c 0,32,33
 129 45 129 45 193 45 c 0,23,24
EndSplineSet
EndChar

StartChar: b
Encoding: 98 98 69
Width: 521
GlyphClass: 2
Flags: W
LayerCount: 2
Fore
SplineSet
160 597 m 2,0,-1
 161 604 l 2,1,2
 161 605 161 605 161 606 c 0,3,4
 161 623 161 623 148.5 631.5 c 128,-1,5
 136 640 136 640 122.5 641.5 c 128,-1,6
 109 643 109 643 83 643 c 1,7,-1
 89 682 l 1,8,9
 161 696 161 696 209 696 c 1,10,-1
 246 694 l 1,11,-1
 258 672 l 1,12,-1
 210 378 l 1,13,14
 278 476 278 476 350.5 476 c 128,-1,15
 423 476 423 476 451 429 c 128,-1,16
 479 382 479 382 479 303.5 c 128,-1,17
 479 225 479 225 450 155.5 c 128,-1,18
 421 86 421 86 365 39.5 c 128,-1,19
 309 -7 309 -7 247 -7 c 128,-1,20
 185 -7 185 -7 150.5 1.5 c 128,-1,21
 116 10 116 10 105.5 13.5 c 128,-1,22
 95 17 95 17 85.5 28.5 c 128,-1,23
 76 40 76 40 76 54 c 128,-1,24
 76 68 76 68 81 103 c 2,25,-1
 158 584 l 2,26,27
 160 592 160 592 160 597 c 2,0,-1
234 38 m 0,28,29
 299 38 299 38 344.5 122.5 c 128,-1,30
 390 207 390 207 390 297 c 0,31,32
 390 424 390 424 326 424 c 0,33,34
 279 424 279 424 229 329.5 c 128,-1,35
 179 235 179 235 162 75 c 1,36,37
 162 58 162 58 182.5 48 c 128,-1,38
 203 38 203 38 234 38 c 0,28,29
EndSplineSet
EndChar

StartChar: c
Encoding: 99 99 70
Width: 433
GlyphClass: 2
Flags: W
LayerCount: 2
Fore
SplineSet
210 -7 m 0,0,1
 39 -7 39 -7 39 162 c 0,2,3
 39 336 39 336 138 427 c 0,4,5
 192 476 192 476 259 476 c 128,-1,6
 326 476 326 476 368 449.5 c 128,-1,7
 410 423 410 423 410 374 c 0,8,9
 410 346 410 346 392 324 c 128,-1,10
 374 302 374 302 352 302 c 0,11,12
 308 302 308 302 304 338 c 1,13,14
 320 363 320 363 320 383 c 0,15,16
 320 431 320 431 277 431 c 0,17,18
 216 431 216 431 172 350 c 128,-1,19
 128 269 128 269 128 171 c 0,20,21
 128 116 128 116 151.5 80.5 c 128,-1,22
 175 45 175 45 222 45 c 0,23,24
 248 45 248 45 280.5 58.5 c 128,-1,25
 313 72 313 72 332 86 c 2,26,-1
 351 100 l 1,27,-1
 378 63 l 1,28,29
 353 38 353 38 302.5 15.5 c 128,-1,30
 252 -7 252 -7 210 -7 c 0,0,1
EndSplineSet
EndChar

StartChar: d
Encoding: 100 100 71
Width: 524
GlyphClass: 2
Flags: W
LayerCount: 2
Fore
SplineSet
317 6 m 128,-1,1
 306 19 306 19 306 37.5 c 128,-1,2
 306 56 306 56 314 98 c 1,3,4
 243 -7 243 -7 169.5 -7 c 128,-1,5
 96 -7 96 -7 68 39.5 c 128,-1,6
 40 86 40 86 40 165.5 c 128,-1,7
 40 245 40 245 65.5 313.5 c 128,-1,8
 91 382 91 382 143 429 c 128,-1,9
 195 476 195 476 257.5 476 c 128,-1,10
 320 476 320 476 368 455 c 1,11,-1
 389 577 l 2,12,13
 392 596 392 596 392 604 c 0,14,15
 392 629 392 629 373.5 636 c 128,-1,16
 355 643 355 643 315 643 c 1,17,-1
 321 682 l 1,18,19
 391 696 391 696 441 696 c 1,20,-1
 478 694 l 1,21,-1
 490 672 l 1,22,-1
 397 96 l 2,23,24
 394 81 394 81 394 77 c 0,25,26
 394 62 394 62 414 62 c 128,-1,27
 434 62 434 62 466 81 c 1,28,-1
 476 49 l 1,29,30
 411 -7 411 -7 363 -7 c 0,31,0
 328 -7 328 -7 317 6 c 128,-1,1
193 45 m 0,32,33
 235 45 235 45 280 117.5 c 128,-1,34
 325 190 325 190 343 301 c 2,35,-1
 360 406 l 1,36,37
 322 431 322 431 285 431 c 0,38,39
 219 431 219 431 174 346 c 128,-1,40
 129 261 129 261 129 171 c 0,41,42
 129 45 129 45 193 45 c 0,32,33
EndSplineSet
EndChar

StartChar: e
Encoding: 101 101 72
Width: 457
GlyphClass: 2
Flags: W
LayerCount: 2
Fore
SplineSet
423 370 m 0,0,1
 423 296 423 296 340 245.5 c 128,-1,2
 257 195 257 195 131 195 c 1,3,-1
 131 172 l 2,4,5
 131 108 131 108 155 76.5 c 128,-1,6
 179 45 179 45 220 45 c 0,7,8
 276 45 276 45 357 106 c 1,9,-1
 386 69 l 1,10,11
 355 38 355 38 305 15.5 c 128,-1,12
 255 -7 255 -7 200 -7 c 0,13,14
 117 -7 117 -7 78.5 41 c 128,-1,15
 40 89 40 89 40 157 c 0,16,17
 40 301 40 301 108.5 388.5 c 128,-1,18
 177 476 177 476 286 476 c 0,19,20
 354 476 354 476 388.5 445 c 128,-1,21
 423 414 423 414 423 370 c 0,0,1
279 430 m 0,22,23
 224 430 224 430 186.5 378 c 128,-1,24
 149 326 149 326 136 244 c 1,25,26
 225 244 225 244 280 280 c 128,-1,27
 335 316 335 316 335 372 c 0,28,29
 335 396 335 396 320.5 413 c 128,-1,30
 306 430 306 430 279 430 c 0,22,23
EndSplineSet
EndChar

StartChar: f
Encoding: 102 102 73
Width: 292
GlyphClass: 2
Flags: W
LayerCount: 2
Fore
SplineSet
13.5 -212.5 m 128,-1,1
 -7 -219 -7 -219 -40.5 -219 c 128,-1,2
 -74 -219 -74 -219 -101.5 -198 c 128,-1,3
 -129 -177 -129 -177 -129 -143.5 c 128,-1,4
 -129 -110 -129 -110 -111.5 -93 c 128,-1,5
 -94 -76 -94 -76 -70 -76 c 0,6,7
 -30 -76 -30 -76 -22 -112 c 1,8,9
 -39 -121 -39 -121 -39 -143 c 0,10,11
 -39 -171 -39 -171 -12 -171 c 0,12,13
 29 -171 29 -171 44 -116 c 0,14,15
 54 -80 54 -80 60.5 -17 c 128,-1,16
 67 46 67 46 71 70 c 2,17,-1
 126 413 l 1,18,-1
 52 413 l 1,19,-1
 58 447 l 1,20,-1
 134 467 l 1,21,-1
 143 513 l 2,22,23
 178 697 178 697 313 697 c 0,24,25
 358 697 358 697 389.5 673.5 c 128,-1,26
 421 650 421 650 421 615 c 128,-1,27
 421 580 421 580 402 560 c 128,-1,28
 383 540 383 540 359 540 c 0,29,30
 324 540 324 540 314 576 c 1,31,32
 338 594 338 594 338 612 c 0,33,34
 338 650 338 650 294 650 c 0,35,36
 248 650 248 650 234 600 c 0,37,38
 224 563 224 563 222 518 c 128,-1,39
 220 473 220 473 219 462 c 1,40,-1
 315 462 l 1,41,-1
 308 413 l 1,42,-1
 211 413 l 1,43,-1
 155 59 l 2,44,45
 140 -39 140 -39 133.5 -58 c 128,-1,46
 127 -77 127 -77 118 -103.5 c 128,-1,47
 109 -130 109 -130 100.5 -141.5 c 128,-1,48
 92 -153 92 -153 78 -171.5 c 128,-1,49
 64 -190 64 -190 49 -198 c 128,-1,0
 34 -206 34 -206 13.5 -212.5 c 128,-1,1
EndSplineSet
EndChar

StartChar: g
Encoding: 103 103 74
Width: 522
GlyphClass: 2
Flags: W
LayerCount: 2
Fore
SplineSet
-36 -113 m 0,0,1
 -36 -82 -36 -82 -15.5 -63.5 c 128,-1,2
 5 -45 5 -45 32 -45 c 0,3,4
 70 -45 70 -45 83 -80 c 1,5,6
 66 -94 66 -94 66 -117 c 128,-1,7
 66 -140 66 -140 86.5 -156.5 c 128,-1,8
 107 -173 107 -173 149 -173 c 0,9,10
 225 -173 225 -173 263 -118.5 c 128,-1,11
 301 -64 301 -64 318 36 c 2,12,-1
 328 97 l 1,13,14
 258 -7 258 -7 184.5 -7 c 128,-1,15
 111 -7 111 -7 83 39.5 c 128,-1,16
 55 86 55 86 55 165.5 c 128,-1,17
 55 245 55 245 80.5 313.5 c 128,-1,18
 106 382 106 382 158 429 c 128,-1,19
 210 476 210 476 273 476 c 128,-1,20
 336 476 336 476 389 452 c 1,21,22
 409 476 409 476 441 476 c 1,23,-1
 473 474 l 1,24,-1
 408 74 l 2,25,26
 384 -77 384 -77 318 -148 c 128,-1,27
 252 -219 252 -219 134 -219 c 0,28,29
 60 -219 60 -219 12 -191.5 c 128,-1,30
 -36 -164 -36 -164 -36 -113 c 0,0,1
300 431 m 0,31,32
 234 431 234 431 189 346 c 128,-1,33
 144 261 144 261 144 171 c 0,34,35
 144 45 144 45 208 45 c 0,36,37
 249 45 249 45 299 130.5 c 128,-1,38
 349 216 349 216 361 312 c 2,39,-1
 373 407 l 1,40,41
 338 431 338 431 300 431 c 0,31,32
EndSplineSet
EndChar

StartChar: h
Encoding: 104 104 75
Width: 530
GlyphClass: 2
Flags: W
LayerCount: 2
Fore
SplineSet
407 84 m 1,0,1
 407 62 407 62 427 62 c 128,-1,2
 447 62 447 62 479 81 c 1,3,-1
 489 49 l 1,4,5
 424 -7 424 -7 375 -7 c 0,6,7
 341 -7 341 -7 329.5 6.5 c 128,-1,8
 318 20 318 20 318 39.5 c 128,-1,9
 318 59 318 59 342 197 c 128,-1,10
 366 335 366 335 366 360.5 c 128,-1,11
 366 386 366 386 351.5 403.5 c 128,-1,12
 337 421 337 421 313 421 c 0,13,14
 261 421 261 421 220.5 356.5 c 128,-1,15
 180 292 180 292 160 201 c 1,16,-1
 127 0 l 1,17,-1
 41 0 l 1,18,-1
 133 576 l 1,19,-1
 136 604 l 1,20,21
 136 629 136 629 117.5 636 c 128,-1,22
 99 643 99 643 59 643 c 1,23,-1
 64 682 l 1,24,25
 135 696 135 696 185 696 c 1,26,-1
 222 694 l 1,27,-1
 234 672 l 1,28,-1
 183 359 l 1,29,30
 250 476 250 476 341 476 c 0,31,32
 395 476 395 476 424.5 448 c 128,-1,33
 454 420 454 420 454 369 c 0,34,35
 454 358 454 358 449 327 c 2,36,-1
 407 84 l 1,0,1
EndSplineSet
EndChar

StartChar: i
Encoding: 105 105 76
Width: 271
GlyphClass: 2
Flags: W
LayerCount: 2
Fore
SplineSet
67 6 m 128,-1,1
 56 19 56 19 56 40.5 c 128,-1,2
 56 62 56 62 81.5 222 c 128,-1,3
 107 382 107 382 107 386 c 0,4,5
 107 415 107 415 74 415 c 0,6,7
 67 415 67 415 43 413 c 1,8,-1
 38 445 l 1,9,10
 108 476 108 476 166 476 c 1,11,-1
 193 473 l 1,12,-1
 205 454 l 1,13,14
 147 106 147 106 147 88.5 c 128,-1,15
 147 71 147 71 150.5 66.5 c 128,-1,16
 154 62 154 62 169.5 62 c 128,-1,17
 185 62 185 62 217 81 c 1,18,-1
 227 49 l 1,19,20
 162 -7 162 -7 112 -7 c 0,21,0
 78 -7 78 -7 67 6 c 128,-1,1
212.5 559 m 128,-1,23
 196 540 196 540 172 540 c 0,24,25
 123 540 123 540 123 585 c 0,26,27
 123 618 123 618 139.5 637 c 128,-1,28
 156 656 156 656 180 656 c 128,-1,29
 204 656 204 656 216.5 644 c 128,-1,30
 229 632 229 632 229 605 c 128,-1,22
 229 578 229 578 212.5 559 c 128,-1,23
EndSplineSet
EndChar

StartChar: j
Encoding: 106 106 77
Width: 266
GlyphClass: 2
Flags: W
LayerCount: 2
Fore
SplineSet
15 -208 m 128,-1,1
 -12 -219 -12 -219 -51 -219 c 128,-1,2
 -90 -219 -90 -219 -117.5 -197.5 c 128,-1,3
 -145 -176 -145 -176 -145 -143 c 128,-1,4
 -145 -110 -145 -110 -126.5 -93 c 128,-1,5
 -108 -76 -108 -76 -88 -76 c 128,-1,6
 -68 -76 -68 -76 -54.5 -85.5 c 128,-1,7
 -41 -95 -41 -95 -38 -112 c 1,8,9
 -55 -121 -55 -121 -55 -143 c 0,10,11
 -55 -171 -55 -171 -27 -171 c 0,12,13
 15 -171 15 -171 30 -117 c 1,14,15
 42 -70 42 -70 47.5 -11.5 c 128,-1,16
 53 47 53 47 57 70 c 2,17,-1
 102 353 l 2,18,19
 103 358 103 358 104 366 c 128,-1,20
 105 374 105 374 106 379 c 128,-1,21
 107 384 107 384 107 386 c 0,22,23
 107 415 107 415 74 415 c 0,24,25
 67 415 67 415 43 413 c 1,26,-1
 38 445 l 1,27,28
 106 476 106 476 164 476 c 1,29,-1
 190 473 l 1,30,-1
 203 454 l 1,31,-1
 137 48 l 2,32,33
 116 -86 116 -86 92 -128 c 0,34,35
 79 -150 79 -150 60.5 -173.5 c 128,-1,0
 42 -197 42 -197 15 -208 c 128,-1,1
210.5 559 m 128,-1,37
 194 540 194 540 170 540 c 0,38,39
 121 540 121 540 121 585 c 0,40,41
 121 618 121 618 137.5 637 c 128,-1,42
 154 656 154 656 178 656 c 128,-1,43
 202 656 202 656 214.5 644 c 128,-1,44
 227 632 227 632 227 605 c 128,-1,36
 227 578 227 578 210.5 559 c 128,-1,37
EndSplineSet
EndChar

StartChar: k
Encoding: 107 107 78
Width: 497
GlyphClass: 2
Flags: W
LayerCount: 2
Fore
SplineSet
296 337.5 m 128,-1,1
 339 375 339 375 339 398 c 128,-1,2
 339 421 339 421 316 423 c 1,3,-1
 312 455 l 1,4,5
 357 476 357 476 415 476 c 1,6,-1
 442 473 l 1,7,-1
 453 454 l 1,8,9
 453 440 453 440 443 417 c 128,-1,10
 433 394 433 394 417.5 374 c 128,-1,11
 402 354 402 354 368.5 325.5 c 128,-1,12
 335 297 335 297 289 271 c 1,13,14
 385 86 385 86 387.5 81 c 128,-1,15
 390 76 390 76 391 74 c 0,16,17
 399 62 399 62 414 62 c 128,-1,18
 429 62 429 62 461 81 c 1,19,-1
 471 49 l 1,20,21
 406 -7 406 -7 367 -7 c 0,22,23
 338 -7 338 -7 324 18 c 0,24,25
 319 26 319 26 311 45 c 2,26,-1
 221 237 l 1,27,28
 188 222 188 222 156 211 c 1,29,-1
 123 0 l 1,30,-1
 37 0 l 1,31,-1
 130 581 l 1,32,-1
 132 604 l 1,33,34
 132 629 132 629 113.5 636 c 128,-1,35
 95 643 95 643 55 643 c 1,36,-1
 60 682 l 1,37,38
 131 696 131 696 181 696 c 1,39,-1
 218 694 l 1,40,-1
 230 672 l 1,41,-1
 165 265 l 1,42,0
 253 300 253 300 296 337.5 c 128,-1,1
EndSplineSet
EndChar

StartChar: l
Encoding: 108 108 79
Width: 267
GlyphClass: 2
Flags: W
LayerCount: 2
Fore
SplineSet
52 6 m 128,-1,1
 41 19 41 19 41 46 c 128,-1,2
 41 73 41 73 84 336 c 128,-1,3
 127 599 127 599 127 604 c 0,4,5
 127 629 127 629 108.5 636 c 128,-1,6
 90 643 90 643 50 643 c 1,7,-1
 56 682 l 1,8,9
 126 696 126 696 176 696 c 1,10,-1
 213 694 l 1,11,-1
 225 672 l 1,12,-1
 133 100 l 2,13,14
 129 80 129 80 129 78 c 0,15,16
 129 62 129 62 149.5 62 c 128,-1,17
 170 62 170 62 202 81 c 1,18,-1
 212 49 l 1,19,20
 147 -7 147 -7 97 -7 c 0,21,0
 63 -7 63 -7 52 6 c 128,-1,1
EndSplineSet
EndChar

StartChar: m
Encoding: 109 109 80
Width: 799
GlyphClass: 2
Flags: W
LayerCount: 2
Fore
SplineSet
680 77 m 0,0,1
 680 62 680 62 699.5 62 c 128,-1,2
 719 62 719 62 751 81 c 1,3,-1
 761 49 l 1,4,5
 696 -7 696 -7 646 -7 c 0,6,7
 612 -7 612 -7 601 6.5 c 128,-1,8
 590 20 590 20 590 40 c 128,-1,9
 590 60 590 60 614 198 c 128,-1,10
 638 336 638 336 638 361 c 128,-1,11
 638 386 638 386 623.5 403.5 c 128,-1,12
 609 421 609 421 581.5 421 c 128,-1,13
 554 421 554 421 528 401 c 128,-1,14
 502 381 502 381 484 345.5 c 128,-1,15
 466 310 466 310 452 270 c 128,-1,16
 438 230 438 230 428 180 c 0,17,18
 414 103 414 103 407 53 c 128,-1,19
 400 3 400 3 400 0 c 1,20,-1
 315 0 l 1,21,22
 318 22 318 22 332 107 c 0,23,24
 370 327 370 327 370 356.5 c 128,-1,25
 370 386 370 386 355.5 403.5 c 128,-1,26
 341 421 341 421 317 421 c 0,27,28
 259 421 259 421 216 343 c 128,-1,29
 173 265 173 265 157 163 c 2,30,-1
 131 0 l 1,31,-1
 46 0 l 1,32,33
 106 378 106 378 106 386 c 0,34,35
 106 415 106 415 72 415 c 0,36,37
 65 415 65 415 41 413 c 1,38,-1
 36 445 l 1,39,40
 47 456 47 456 89.5 465.5 c 128,-1,41
 132 475 132 475 153.5 475 c 128,-1,42
 175 475 175 475 187 473 c 1,43,-1
 197 454 l 1,44,-1
 187 359 l 1,45,46
 252 476 252 476 345 476 c 0,47,48
 401 476 401 476 429.5 447 c 128,-1,49
 458 418 458 418 458 364 c 1,50,51
 524 476 524 476 613 476 c 0,52,53
 667 476 667 476 696.5 448 c 128,-1,54
 726 420 726 420 726 369 c 0,55,56
 726 352 726 352 722 329 c 2,57,-1
 685 107 l 2,58,59
 680 82 680 82 680 77 c 0,0,1
EndSplineSet
EndChar

StartChar: n
Encoding: 110 110 81
Width: 535
GlyphClass: 2
Flags: W
LayerCount: 2
Fore
SplineSet
106 386 m 0,0,1
 106 415 106 415 72 415 c 0,2,3
 65 415 65 415 41 413 c 1,4,-1
 36 445 l 1,5,6
 104 476 104 476 162 476 c 1,7,-1
 187 473 l 1,8,-1
 197 454 l 1,9,-1
 187 359 l 1,10,11
 252 476 252 476 345 476 c 0,12,13
 399 476 399 476 428.5 448 c 128,-1,14
 458 420 458 420 458 369 c 0,15,16
 458 349 458 349 442 259 c 0,17,18
 413 96 413 96 413 83.5 c 128,-1,19
 413 71 413 71 416.5 66.5 c 128,-1,20
 420 62 420 62 435.5 62 c 128,-1,21
 451 62 451 62 483 81 c 1,22,-1
 493 49 l 1,23,24
 428 -7 428 -7 378 -7 c 0,25,26
 344 -7 344 -7 333 6.5 c 128,-1,27
 322 20 322 20 322 40 c 128,-1,28
 322 60 322 60 346 198 c 128,-1,29
 370 336 370 336 370 361 c 128,-1,30
 370 386 370 386 355.5 403.5 c 128,-1,31
 341 421 341 421 317 421 c 0,32,33
 259 421 259 421 216 343 c 128,-1,34
 173 265 173 265 157 163 c 2,35,-1
 131 0 l 1,36,-1
 46 0 l 1,37,38
 106 378 106 378 106 386 c 0,0,1
EndSplineSet
EndChar

StartChar: o
Encoding: 111 111 82
Width: 507
GlyphClass: 2
Flags: W
LayerCount: 2
Fore
SplineSet
218 41 m 0,0,1
 275 41 275 41 320.5 121 c 128,-1,2
 366 201 366 201 366 314.5 c 128,-1,3
 366 428 366 428 296 428 c 0,4,5
 238 428 238 428 193 347.5 c 128,-1,6
 148 267 148 267 148 154 c 128,-1,7
 148 41 148 41 218 41 c 0,0,1
218 -7 m 0,8,9
 138 -7 138 -7 96.5 37.5 c 128,-1,10
 55 82 55 82 55 164 c 0,11,12
 55 291 55 291 119 383.5 c 128,-1,13
 183 476 183 476 296 476 c 0,14,15
 376 476 376 476 417.5 431.5 c 128,-1,16
 459 387 459 387 459 305 c 0,17,18
 459 177 459 177 395 85 c 128,-1,19
 331 -7 331 -7 218 -7 c 0,8,9
EndSplineSet
EndChar

StartChar: p
Encoding: 112 112 83
Width: 527
GlyphClass: 2
Flags: W
LayerCount: 2
Fore
SplineSet
52 -210.5 m 128,-1,1
 41 -202 41 -202 41 -182.5 c 128,-1,2
 41 -163 41 -163 62.5 -23 c 128,-1,3
 84 117 84 117 105 251 c 128,-1,4
 126 385 126 385 126 386 c 0,5,6
 126 415 126 415 92 415 c 0,7,8
 85 415 85 415 61 413 c 1,9,-1
 55 445 l 1,10,11
 119 476 119 476 177 476 c 1,12,-1
 204 473 l 1,13,-1
 214 454 l 1,14,-1
 204 366 l 1,15,16
 274 476 274 476 349.5 476 c 128,-1,17
 425 476 425 476 453 429 c 128,-1,18
 481 382 481 382 481 297 c 0,19,20
 481 181 481 181 419.5 87 c 128,-1,21
 358 -7 358 -7 258 -7 c 0,22,23
 199 -7 199 -7 150 14 c 1,24,25
 128 -125 128 -125 128 -146 c 128,-1,26
 128 -167 128 -167 151.5 -167 c 128,-1,27
 175 -167 175 -167 202 -161 c 1,28,-1
 211 -192 l 1,29,30
 153 -219 153 -219 108 -219 c 128,-1,0
 63 -219 63 -219 52 -210.5 c 128,-1,1
235 38 m 0,31,32
 300 38 300 38 346 122.5 c 128,-1,33
 392 207 392 207 392 297 c 0,34,35
 392 424 392 424 327 424 c 0,36,37
 280 424 280 424 229.5 329.5 c 128,-1,38
 179 235 179 235 162 75 c 1,39,40
 162 58 162 58 182.5 48 c 128,-1,41
 203 38 203 38 235 38 c 0,31,32
EndSplineSet
EndChar

StartChar: q
Encoding: 113 113 84
Width: 521
GlyphClass: 2
Flags: W
LayerCount: 2
Fore
SplineSet
364 -143 m 0,0,1
 364 -167 364 -167 384 -167 c 0,2,3
 408 -167 408 -167 435 -161 c 1,4,-1
 445 -192 l 1,5,6
 385 -219 385 -219 341 -219 c 128,-1,7
 297 -219 297 -219 286 -210 c 128,-1,8
 275 -201 275 -201 275 -185.5 c 128,-1,9
 275 -170 275 -170 322 103 c 1,10,11
 250 -7 250 -7 175 -7 c 128,-1,12
 100 -7 100 -7 72 40 c 128,-1,13
 44 87 44 87 44 172 c 0,14,15
 44 287 44 287 105.5 381.5 c 128,-1,16
 167 476 167 476 267 476 c 0,17,18
 328 476 328 476 381 451 c 1,19,20
 402 476 402 476 433 476 c 1,21,-1
 461 474 l 1,22,-1
 365 -130 l 2,23,24
 364 -135 364 -135 364 -143 c 0,0,1
198 45 m 0,25,26
 239 45 239 45 283.5 116.5 c 128,-1,27
 328 188 328 188 347 298 c 2,28,-1
 365 406 l 1,29,30
 327 431 327 431 290 431 c 0,31,32
 224 431 224 431 179 346 c 128,-1,33
 134 261 134 261 134 171 c 0,34,35
 134 45 134 45 198 45 c 0,25,26
EndSplineSet
EndChar

StartChar: r
Encoding: 114 114 85
Width: 407
GlyphClass: 2
Flags: W
LayerCount: 2
Fore
SplineSet
108 370 m 1,0,-1
 109 386 l 1,1,2
 109 415 109 415 76 415 c 0,3,4
 69 415 69 415 45 413 c 1,5,-1
 40 445 l 1,6,7
 110 476 110 476 168 476 c 1,8,-1
 194 473 l 1,9,-1
 205 454 l 1,10,-1
 190 354 l 1,11,12
 251 476 251 476 322 476 c 0,13,14
 359 476 359 476 379.5 452.5 c 128,-1,15
 400 429 400 429 400 399.5 c 128,-1,16
 400 370 400 370 382 349 c 128,-1,17
 364 328 364 328 336 328 c 128,-1,18
 308 328 308 328 299 345 c 1,19,20
 306 362 306 362 306 385.5 c 128,-1,21
 306 409 306 409 288 409 c 0,22,23
 254 409 254 409 214.5 339 c 128,-1,24
 175 269 175 269 158 145 c 2,25,-1
 139 0 l 1,26,-1
 51 0 l 1,27,-1
 108 370 l 1,0,-1
EndSplineSet
EndChar

StartChar: s
Encoding: 115 115 86
Width: 382
GlyphClass: 2
Flags: W
LayerCount: 2
Fore
SplineSet
226 431 m 0,0,1
 202 431 202 431 181 415 c 128,-1,2
 160 399 160 399 160 370 c 128,-1,3
 160 341 160 341 178 320 c 128,-1,4
 196 299 196 299 227.5 273 c 128,-1,5
 259 247 259 247 273 233.5 c 128,-1,6
 287 220 287 220 301.5 196 c 128,-1,7
 316 172 316 172 316 147 c 0,8,9
 316 73 316 73 264.5 33 c 128,-1,10
 213 -7 213 -7 141.5 -7 c 128,-1,11
 70 -7 70 -7 17 32 c 1,12,-1
 47 155 l 1,13,-1
 83 149 l 1,14,15
 81 129 81 129 81 104 c 128,-1,16
 81 79 81 79 99.5 60 c 128,-1,17
 118 41 118 41 166 41 c 0,18,19
 188 41 188 41 210 57 c 128,-1,20
 232 73 232 73 232 108 c 0,21,22
 232 125 232 125 225.5 134 c 128,-1,23
 219 143 219 143 215.5 148 c 128,-1,24
 212 153 212 153 203 161.5 c 128,-1,25
 194 170 194 170 190 174 c 0,26,27
 172 192 172 192 153.5 207 c 128,-1,28
 135 222 135 222 120.5 237.5 c 128,-1,29
 106 253 106 253 93 279.5 c 128,-1,30
 80 306 80 306 80 334 c 0,31,32
 80 403 80 403 127 439.5 c 128,-1,33
 174 476 174 476 232 476 c 128,-1,34
 290 476 290 476 326.5 452.5 c 128,-1,35
 363 429 363 429 363 393 c 128,-1,36
 363 357 363 357 347.5 341 c 128,-1,37
 332 325 332 325 302 325 c 128,-1,38
 272 325 272 325 259 352 c 1,39,40
 281 368 281 368 281 389 c 0,41,42
 281 431 281 431 226 431 c 0,0,1
EndSplineSet
EndChar

StartChar: t
Encoding: 116 116 87
Width: 345
GlyphClass: 2
Flags: W
LayerCount: 2
Fore
SplineSet
143 90 m 0,0,1
 143 55 143 55 178 55 c 128,-1,2
 213 55 213 55 288 106 c 1,3,-1
 312 72 l 1,4,5
 281 47 281 47 263 34.5 c 128,-1,6
 245 22 245 22 209 7.5 c 128,-1,7
 173 -7 173 -7 135 -7 c 128,-1,8
 97 -7 97 -7 76.5 14.5 c 128,-1,9
 56 36 56 36 56 66 c 128,-1,10
 56 96 56 96 106 413 c 1,11,-1
 34 413 l 1,12,-1
 40 446 l 1,13,14
 99 462 99 462 125 487.5 c 128,-1,15
 151 513 151 513 177 564 c 1,16,-1
 217 564 l 1,17,-1
 201 467 l 1,18,-1
 361 467 l 1,19,-1
 350 413 l 1,20,-1
 192 413 l 1,21,-1
 180 340 l 2,22,23
 143 115 143 115 143 90 c 0,0,1
EndSplineSet
EndChar

StartChar: u
Encoding: 117 117 88
Width: 535
GlyphClass: 2
Flags: W
LayerCount: 2
Fore
SplineSet
164 185 m 128,-1,1
 155 130 155 130 155 106.5 c 128,-1,2
 155 83 155 83 169.5 65 c 128,-1,3
 184 47 184 47 208 47 c 0,4,5
 266 47 266 47 309 125.5 c 128,-1,6
 352 204 352 204 368 306 c 2,7,-1
 394 467 l 1,8,9
 421 476 421 476 451 476 c 1,10,-1
 480 474 l 1,11,-1
 418 84 l 1,12,-1
 418 79 l 2,13,14
 418 62 418 62 438 62 c 128,-1,15
 458 62 458 62 490 81 c 1,16,-1
 500 49 l 1,17,18
 435 -7 435 -7 386 -7 c 0,19,20
 352 -7 352 -7 341 6 c 128,-1,21
 330 19 330 19 330 34.5 c 128,-1,22
 330 50 330 50 341 116 c 1,23,24
 274 -7 274 -7 180 -7 c 0,25,26
 126 -7 126 -7 96.5 21 c 128,-1,27
 67 49 67 49 67 100 c 0,28,29
 67 108 67 108 69 126 c 1,30,-1
 110 364 l 2,31,32
 113 382 113 382 113 386 c 0,33,34
 113 415 113 415 80 415 c 0,35,36
 73 415 73 415 49 413 c 1,37,-1
 44 445 l 1,38,39
 115 476 115 476 172 476 c 1,40,-1
 199 473 l 1,41,-1
 211 454 l 1,42,43
 203 406 203 406 188 323 c 128,-1,0
 173 240 173 240 164 185 c 128,-1,1
EndSplineSet
EndChar

StartChar: v
Encoding: 118 118 89
Width: 460
GlyphClass: 2
Flags: W
LayerCount: 2
Fore
SplineSet
52 411 m 2,0,-1
 28 413 l 1,1,-1
 22 445 l 1,2,3
 88 476 88 476 136 476 c 1,4,-1
 163 474 l 1,5,-1
 212 106 l 1,6,7
 324 288 324 288 338 343 c 0,8,9
 345 370 345 370 345 389 c 0,10,11
 345 423 345 423 301 423 c 1,12,-1
 297 460 l 1,13,14
 356 476 356 476 390 476 c 128,-1,15
 424 476 424 476 447 473 c 1,16,-1
 458 454 l 1,17,18
 441 375 441 375 380 280 c 2,19,-1
 195 -7 l 1,20,21
 161 -7 161 -7 141 0 c 1,22,-1
 92 366 l 2,23,24
 89 393 89 393 81 399 c 128,-1,25
 73 405 73 405 70 406 c 0,26,27
 63 411 63 411 52 411 c 2,0,-1
EndSplineSet
EndChar

StartChar: w
Encoding: 119 119 90
Width: 728
GlyphClass: 2
Flags: W
LayerCount: 2
Fore
SplineSet
608 388 m 0,0,1
 608 409 608 409 597.5 416 c 128,-1,2
 587 423 587 423 562 423 c 1,3,-1
 559 460 l 1,4,5
 614 475 614 475 654 475 c 128,-1,6
 694 475 694 475 708 473 c 1,7,-1
 719 454 l 1,8,9
 701 373 701 373 641 280 c 2,10,-1
 455 -7 l 1,11,12
 422 -7 422 -7 402 0 c 1,13,-1
 363 269 l 1,14,-1
 191 -7 l 1,15,16
 144 -2 144 -2 139 0 c 1,17,-1
 89 366 l 2,18,19
 85 396 85 396 70 404.5 c 128,-1,20
 55 413 55 413 25 413 c 1,21,-1
 20 445 l 1,22,23
 85 476 85 476 133 476 c 1,24,-1
 161 474 l 1,25,-1
 209 107 l 1,26,27
 303 263 303 263 331 343 c 0,28,29
 344 381 344 381 344 467 c 1,30,31
 376 476 376 476 393 476 c 1,32,-1
 420 474 l 1,33,-1
 473 106 l 1,34,35
 608 318 608 318 608 388 c 0,0,1
EndSplineSet
EndChar

StartChar: x
Encoding: 120 120 91
Width: 449
GlyphClass: 2
Flags: W
LayerCount: 2
Fore
SplineSet
109 65 m 0,0,1
 109 40 109 40 146 37 c 1,2,-1
 141 0 l 1,3,-1
 0 0 l 1,4,-1
 -10 19 l 1,5,6
 17 71 17 71 116 171 c 2,7,-1
 178 234 l 1,8,-1
 120 367 l 2,9,10
 107 398 107 398 93.5 405.5 c 128,-1,11
 80 413 80 413 52 413 c 1,12,-1
 47 445 l 1,13,14
 61 458 61 458 92 466.5 c 128,-1,15
 123 475 123 475 143 475 c 128,-1,16
 163 475 163 475 168 474 c 1,17,-1
 247 290 l 1,18,19
 329 374 329 374 329 402 c 0,20,21
 329 423 329 423 301 423 c 1,22,-1
 297 460 l 1,23,24
 342 476 342 476 400 476 c 1,25,-1
 437 473 l 1,26,-1
 448 454 l 1,27,28
 452 450 452 450 409.5 398.5 c 128,-1,29
 367 347 367 347 320 300 c 2,30,-1
 266 246 l 1,31,-1
 336 86 l 2,32,33
 346 65 346 65 351 63.5 c 128,-1,34
 356 62 356 62 368 62 c 128,-1,35
 380 62 380 62 412 81 c 1,36,-1
 422 49 l 1,37,38
 357 -7 357 -7 318 -7 c 0,39,40
 291 -7 291 -7 276 18 c 0,41,42
 270 27 270 27 262 45 c 2,43,-1
 198 190 l 1,44,45
 109 101 109 101 109 65 c 0,0,1
EndSplineSet
EndChar

StartChar: y
Encoding: 121 121 92
Width: 460
GlyphClass: 2
Flags: W
LayerCount: 2
Fore
SplineSet
345 389 m 0,0,1
 345 423 345 423 301 423 c 1,2,-1
 297 460 l 1,3,4
 362 476 362 476 398.5 476 c 128,-1,5
 435 476 435 476 447 473 c 1,6,-1
 458 454 l 1,7,8
 432 359 432 359 380 280 c 2,9,-1
 143 -83 l 2,10,11
 134 -97 134 -97 132 -114 c 1,12,13
 132 -139 132 -139 156 -139 c 0,14,15
 167 -139 167 -139 180 -132 c 1,16,17
 192 -150 192 -150 192 -169 c 128,-1,18
 192 -188 192 -188 172 -203.5 c 128,-1,19
 152 -219 152 -219 122.5 -219 c 128,-1,20
 93 -219 93 -219 75.5 -203.5 c 128,-1,21
 58 -188 58 -188 58 -165 c 128,-1,22
 58 -142 58 -142 70 -114 c 0,23,24
 90 -71 90 -71 140 6 c 1,25,-1
 92 366 l 2,26,27
 89 394 89 394 72.5 403.5 c 128,-1,28
 56 413 56 413 28 413 c 1,29,-1
 22 445 l 1,30,31
 88 476 88 476 136 476 c 1,32,-1
 163 474 l 1,33,-1
 212 105 l 1,34,35
 293 231 293 231 335 335 c 0,36,37
 345 360 345 360 345 389 c 0,0,1
EndSplineSet
EndChar

StartChar: z
Encoding: 122 122 93
Width: 450
GlyphClass: 2
Flags: W
LayerCount: 2
Fore
SplineSet
106 469 m 1,0,-1
 284 467 l 2,1,2
 357 467 357 467 425 469 c 1,3,-1
 436 433 l 1,4,-1
 119 46 l 1,5,-1
 288 46 l 1,6,7
 311 79 311 79 337 155 c 1,8,-1
 388 149 l 1,9,-1
 361 21 l 1,10,-1
 338 -3 l 1,11,12
 300 0 300 0 198 0 c 1,13,-1
 24 -4 l 1,14,-1
 13 38 l 1,15,-1
 330 421 l 1,16,-1
 167 421 l 1,17,18
 147 400 147 400 127 329 c 1,19,20
 114 324 114 324 99.5 324 c 128,-1,21
 85 324 85 324 74 328 c 1,22,-1
 83 448 l 1,23,-1
 106 469 l 1,0,-1
EndSplineSet
EndChar

StartChar: braceleft
Encoding: 123 123 94
Width: 375
GlyphClass: 2
Flags: W
LayerCount: 2
Fore
SplineSet
171 409 m 1,0,-1
 168 513 l 1,1,2
 168 594 168 594 228 651 c 128,-1,3
 288 708 288 708 369 708 c 1,4,-1
 364 675 l 1,5,6
 303 670 303 670 276 620 c 128,-1,7
 249 570 249 570 249 504 c 2,8,-1
 249 456 l 2,9,10
 249 336 249 336 184 284 c 1,11,12
 209 256 209 256 209 205 c 128,-1,13
 209 154 209 154 188 90 c 128,-1,14
 167 26 167 26 167 -13.5 c 128,-1,15
 167 -53 167 -53 185.5 -79.5 c 128,-1,16
 204 -106 204 -106 240 -107 c 1,17,-1
 235 -142 l 1,18,19
 172 -142 172 -142 128 -103 c 128,-1,20
 84 -64 84 -64 84 -5 c 0,21,22
 84 27 84 27 113 105.5 c 128,-1,23
 142 184 142 184 142 206.5 c 128,-1,24
 142 229 142 229 132 244 c 128,-1,25
 122 259 122 259 112 263 c 2,26,-1
 102 267 l 1,27,-1
 107 301 l 1,28,29
 126 301 126 301 150 331 c 1,30,31
 171 359 171 359 171 409 c 1,0,-1
EndSplineSet
EndChar

StartChar: bar
Encoding: 124 124 95
Width: 315
GlyphClass: 2
Flags: W
LayerCount: 2
Fore
SplineSet
54 -146 m 1,0,-1
 197 754 l 1,1,-1
 263 754 l 1,2,-1
 120 -146 l 1,3,-1
 54 -146 l 1,0,-1
EndSplineSet
EndChar

StartChar: braceright
Encoding: 125 125 96
Width: 375
GlyphClass: 2
Flags: W
LayerCount: 2
Fore
SplineSet
216 157 m 1,0,-1
 219 53 l 1,1,2
 219 -28 219 -28 159 -85 c 128,-1,3
 99 -142 99 -142 18 -142 c 1,4,-1
 23 -109 l 1,5,6
 84 -104 84 -104 111 -54 c 128,-1,7
 138 -4 138 -4 138 62 c 2,8,-1
 138 110 l 2,9,10
 138 230 138 230 203 282 c 1,11,12
 178 310 178 310 178 361 c 128,-1,13
 178 412 178 412 199 476 c 128,-1,14
 220 540 220 540 220 579.5 c 128,-1,15
 220 619 220 619 201.5 645.5 c 128,-1,16
 183 672 183 672 147 673 c 1,17,-1
 152 708 l 1,18,19
 215 708 215 708 259 669 c 128,-1,20
 303 630 303 630 303 571 c 0,21,22
 303 539 303 539 274 460.5 c 128,-1,23
 245 382 245 382 245 359.5 c 128,-1,24
 245 337 245 337 255 322 c 128,-1,25
 265 307 265 307 275 303 c 2,26,-1
 285 299 l 1,27,-1
 280 265 l 1,28,29
 261 265 261 265 238 235 c 0,30,31
 216 207 216 207 216 157 c 1,0,-1
EndSplineSet
EndChar

StartChar: asciitilde
Encoding: 126 126 97
Width: 528
GlyphClass: 2
Flags: W
LayerCount: 2
Fore
SplineSet
184 342 m 0,0,1
 215 342 215 342 291.5 317.5 c 128,-1,2
 368 293 368 293 394 293 c 0,3,4
 442 293 442 293 501 333 c 1,5,6
 511 326 511 326 518 314 c 1,7,8
 452 231 452 231 376 231 c 0,9,10
 339 231 339 231 261.5 256 c 128,-1,11
 184 281 184 281 144 281 c 128,-1,12
 104 281 104 281 46 241 c 1,13,14
 34 249 34 249 30 262 c 1,15,16
 107 342 107 342 184 342 c 0,0,1
EndSplineSet
EndChar

StartChar: exclamdown
Encoding: 161 161 99
Width: 280
GlyphClass: 2
Flags: W
LayerCount: 2
Fore
SplineSet
123.5 -43.5 m 128,-1,1
 117 -104 117 -104 117 -136.5 c 128,-1,2
 117 -169 117 -169 118 -180 c 1,3,4
 94 -197 94 -197 56 -197 c 0,5,6
 9 -197 9 -197 9 -149.5 c 128,-1,7
 9 -102 9 -102 57.5 44 c 128,-1,8
 106 190 106 190 119 254 c 1,9,-1
 172 263 l 1,10,11
 168 239 168 239 156.5 173 c 128,-1,12
 145 107 145 107 137.5 62 c 128,-1,0
 130 17 130 17 123.5 -43.5 c 128,-1,1
134.5 465.5 m 128,-1,14
 151 487 151 487 174 487 c 128,-1,15
 197 487 197 487 209 475 c 128,-1,16
 221 463 221 463 221 438.5 c 128,-1,17
 221 414 221 414 204.5 392.5 c 128,-1,18
 188 371 188 371 165 371 c 128,-1,19
 142 371 142 371 130 383 c 128,-1,20
 118 395 118 395 118 419.5 c 128,-1,13
 118 444 118 444 134.5 465.5 c 128,-1,14
EndSplineSet
EndChar

StartChar: cent
Encoding: 162 162 100
Width: 437
GlyphClass: 2
Flags: W
LayerCount: 2
Fore
SplineSet
430 381 m 0,0,1
 430 354 430 354 411 333 c 128,-1,2
 392 312 392 312 370 312 c 128,-1,3
 348 312 348 312 335 321.5 c 128,-1,4
 322 331 322 331 321 346 c 1,5,6
 339 368 339 368 339 388 c 128,-1,7
 339 408 339 408 324.5 419 c 128,-1,8
 310 430 310 430 288 432 c 1,9,-1
 231 74 l 1,10,11
 308 77 308 77 352 157 c 1,12,-1
 391 144 l 1,13,14
 367 95 367 95 322.5 64.5 c 128,-1,15
 278 34 278 34 224 32 c 1,16,-1
 210 -58 l 1,17,-1
 204 -64 l 1,18,19
 192 -64 192 -64 170 -60 c 1,20,-1
 185 33 l 1,21,22
 37 46 37 46 37 192 c 0,23,24
 37 310 37 310 95.5 384 c 128,-1,25
 154 458 154 458 254 470 c 1,26,-1
 269 562 l 1,27,-1
 275 569 l 1,28,29
 291 569 291 569 309 564 c 1,30,-1
 294 473 l 1,31,32
 355 472 355 472 392.5 446.5 c 128,-1,33
 430 421 430 421 430 381 c 0,0,1
155 338 m 128,-1,35
 127 266 127 266 127 178 c 128,-1,36
 127 90 127 90 192 77 c 1,37,-1
 247 427 l 1,38,34
 183 410 183 410 155 338 c 128,-1,35
EndSplineSet
EndChar

StartChar: sterling
Encoding: 163 163 101
Width: 500
GlyphClass: 2
Flags: W
LayerCount: 2
Fore
SplineSet
372 348 m 1,0,-1
 373 334 l 2,1,2
 373 328 373 328 371 314 c 1,3,-1
 364 308 l 1,4,-1
 226 308 l 1,5,-1
 229 248 l 1,6,7
 229 174 229 174 193 104 c 1,8,9
 268 76 268 76 335 76 c 0,10,11
 356 76 356 76 368.5 88 c 128,-1,12
 381 100 381 100 384.5 113 c 128,-1,13
 388 126 388 126 391 151 c 1,14,15
 416 150 416 150 433.5 135 c 128,-1,16
 451 120 451 120 451 95 c 0,17,18
 451 43 451 43 415 18 c 128,-1,19
 379 -7 379 -7 328 -7 c 0,20,21
 267 -7 267 -7 190 46 c 0,22,23
 172 58 172 58 167 61 c 1,24,25
 114 -7 114 -7 46 -7 c 0,26,27
 14 -7 14 -7 -7 7.5 c 128,-1,28
 -28 22 -28 22 -28 54.5 c 128,-1,29
 -28 87 -28 87 2 111.5 c 128,-1,30
 32 136 32 136 65 136 c 128,-1,31
 98 136 98 136 136 125 c 1,32,33
 143 153 143 153 143 189.5 c 128,-1,34
 143 226 143 226 133 308 c 1,35,-1
 50 308 l 1,36,37
 48 318 48 318 48 323.5 c 128,-1,38
 48 329 48 329 50 341 c 1,39,-1
 58 348 l 1,40,-1
 129 348 l 1,41,42
 126 382 126 382 126 414 c 0,43,44
 126 531 126 531 193 598 c 128,-1,45
 260 665 260 665 364 665 c 0,46,47
 421 665 421 665 463.5 638 c 128,-1,48
 506 611 506 611 506 567 c 128,-1,49
 506 523 506 523 485.5 497.5 c 128,-1,50
 465 472 465 472 442.5 472 c 128,-1,51
 420 472 420 472 406 481 c 128,-1,52
 392 490 392 490 390 505 c 1,53,54
 416 536 416 536 416 559.5 c 128,-1,55
 416 583 416 583 398 597.5 c 128,-1,56
 380 612 380 612 347 612 c 0,57,58
 286 612 286 612 252 559 c 128,-1,59
 218 506 218 506 218 420 c 0,60,61
 218 396 218 396 222 348 c 1,62,-1
 372 348 l 1,0,-1
51 32 m 0,63,64
 98 32 98 32 123 86 c 1,65,66
 95 99 95 99 70.5 99 c 128,-1,67
 46 99 46 99 32 87.5 c 128,-1,68
 18 76 18 76 18 57 c 0,69,70
 18 32 18 32 51 32 c 0,63,64
EndSplineSet
EndChar

StartChar: currency
Encoding: 164 164 102
Width: 554
GlyphClass: 2
Flags: W
LayerCount: 2
Fore
SplineSet
132 170 m 1,0,1
 91 217 91 217 91 294.5 c 128,-1,2
 91 372 91 372 134 421 c 1,3,-1
 74 486 l 1,4,-1
 113 524 l 1,5,-1
 178 454 l 1,6,7
 219 476 219 476 271 476 c 128,-1,8
 323 476 323 476 365 455 c 1,9,-1
 431 524 l 1,10,-1
 470 486 l 1,11,-1
 409 421 l 1,12,13
 452 370 452 370 452 294.5 c 128,-1,14
 452 219 452 219 411 170 c 1,15,-1
 470 105 l 1,16,-1
 431 68 l 1,17,-1
 370 136 l 1,18,19
 330 112 330 112 272.5 112 c 128,-1,20
 215 112 215 112 173 136 c 1,21,-1
 113 68 l 1,22,-1
 74 105 l 1,23,-1
 132 170 l 1,0,1
272 153 m 128,-1,25
 330 153 330 153 358.5 190 c 128,-1,26
 387 227 387 227 387 293.5 c 128,-1,27
 387 360 387 360 358.5 397.5 c 128,-1,28
 330 435 330 435 272 435 c 0,29,30
 156 435 156 435 156 294 c 0,31,32
 156 227 156 227 185 190 c 128,-1,24
 214 153 214 153 272 153 c 128,-1,25
EndSplineSet
EndChar

StartChar: yen
Encoding: 165 165 103
Width: 599
GlyphClass: 2
Flags: W
LayerCount: 2
Fore
SplineSet
502 281 m 1,0,-1
 503 268 l 2,1,2
 503 262 503 262 501 248 c 1,3,-1
 494 242 l 1,4,-1
 338 242 l 1,5,-1
 310 63 l 1,6,7
 339 45 339 45 406 37 c 1,8,-1
 396 0 l 1,9,-1
 112 0 l 1,10,-1
 124 37 l 1,11,12
 187 44 187 44 222 63 c 1,13,-1
 250 242 l 1,14,-1
 86 242 l 1,15,16
 84 256 84 256 84 263.5 c 128,-1,17
 84 271 84 271 85 275 c 1,18,-1
 93 281 l 1,19,-1
 246 281 l 1,20,-1
 225 345 l 1,21,-1
 101 345 l 1,22,23
 100 349 100 349 100 356.5 c 128,-1,24
 100 364 100 364 102 378 c 1,25,-1
 109 384 l 1,26,-1
 213 384 l 1,27,-1
 144 594 l 1,28,29
 126 613 126 613 69 620 c 1,30,-1
 80 657 l 1,31,-1
 350 657 l 1,32,-1
 338 620 l 1,33,34
 276 612 276 612 245 596 c 1,35,-1
 321 341 l 1,36,-1
 484 597 l 1,37,38
 451 612 451 612 390 620 c 1,39,-1
 400 657 l 1,40,-1
 639 657 l 1,41,-1
 627 620 l 1,42,43
 574 618 574 618 550 597 c 1,44,-1
 414 384 l 1,45,-1
 519 384 l 1,46,-1
 520 371 l 2,47,48
 520 365 520 365 518 351 c 1,49,-1
 510 345 l 1,50,-1
 389 345 l 1,51,-1
 348 281 l 1,52,-1
 502 281 l 1,0,-1
EndSplineSet
EndChar

StartChar: brokenbar
Encoding: 166 166 104
Width: 315
GlyphClass: 2
Flags: W
LayerCount: 2
Fore
SplineSet
139 398 m 1,0,-1
 196 754 l 1,1,-1
 262 754 l 1,2,-1
 205 398 l 1,3,-1
 139 398 l 1,0,-1
53 -146 m 1,4,-1
 110 210 l 1,5,-1
 176 210 l 1,6,-1
 119 -146 l 1,7,-1
 53 -146 l 1,4,-1
EndSplineSet
EndChar

StartChar: section
Encoding: 167 167 105
Width: 475
GlyphClass: 2
Flags: W
LayerCount: 2
Fore
SplineSet
193 13 m 0,0,1
 277 13 277 13 277 112 c 0,2,3
 277 154 277 154 250 203.5 c 128,-1,4
 223 253 223 253 190.5 292.5 c 128,-1,5
 158 332 158 332 131 384.5 c 128,-1,6
 104 437 104 437 104 483 c 0,7,8
 104 578 104 578 169.5 637.5 c 128,-1,9
 235 697 235 697 331 697 c 0,10,11
 404 697 404 697 442 665 c 128,-1,12
 480 633 480 633 480 587 c 0,13,14
 480 559 480 559 463 536.5 c 128,-1,15
 446 514 446 514 421 514 c 128,-1,16
 396 514 396 514 382.5 523.5 c 128,-1,17
 369 533 369 533 367 547 c 1,18,19
 389 572 389 572 389 597.5 c 128,-1,20
 389 623 389 623 373 638 c 128,-1,21
 357 653 357 653 324 653 c 0,22,23
 241 653 241 653 241 551 c 0,24,25
 241 517 241 517 255 488.5 c 128,-1,26
 269 460 269 460 301 418 c 128,-1,27
 333 376 333 376 342 362 c 128,-1,28
 351 348 351 348 365.5 326.5 c 128,-1,29
 380 305 380 305 385.5 294.5 c 128,-1,30
 391 284 391 284 400 265 c 0,31,32
 416 231 416 231 416 200 c 128,-1,33
 416 169 416 169 413 148 c 0,34,35
 400 67 400 67 337 18 c 128,-1,36
 274 -31 274 -31 193.5 -31 c 128,-1,37
 113 -31 113 -31 75 1 c 128,-1,38
 37 33 37 33 37 79 c 0,39,40
 37 107 37 107 54 129.5 c 128,-1,41
 71 152 71 152 96 152 c 128,-1,42
 121 152 121 152 134.5 142.5 c 128,-1,43
 148 133 148 133 150 119 c 1,44,45
 128 94 128 94 128 68.5 c 128,-1,46
 128 43 128 43 144 28 c 128,-1,47
 160 13 160 13 193 13 c 0,0,1
329 81 m 1,48,49
 363 118 363 118 363 183 c 0,50,51
 363 255 363 255 302 332 c 0,52,53
 276 364 276 364 250 396 c 1,54,55
 189 475 189 475 189 552 c 0,56,57
 189 560 189 560 191 576 c 1,58,59
 176 562 176 562 166.5 533.5 c 128,-1,60
 157 505 157 505 157 477 c 128,-1,61
 157 449 157 449 175 412.5 c 128,-1,62
 193 376 193 376 218.5 342.5 c 128,-1,63
 244 309 244 309 270 274 c 0,64,65
 331 191 331 191 331 114 c 0,66,67
 331 92 331 92 329 81 c 1,48,49
EndSplineSet
EndChar

StartChar: dieresis
Encoding: 168 168 106
Width: 271
GlyphClass: 2
Flags: W
LayerCount: 2
Fore
SplineSet
53 552 m 0,0,1
 11 552 11 552 11 592 c 0,2,3
 11 623 11 623 25.5 640 c 128,-1,4
 40 657 40 657 62.5 657 c 128,-1,5
 85 657 85 657 96 646 c 128,-1,6
 107 635 107 635 107 610.5 c 128,-1,7
 107 586 107 586 92.5 569 c 128,-1,8
 78 552 78 552 53 552 c 0,0,1
220 552 m 0,9,10
 178 552 178 552 178 592 c 0,11,12
 178 623 178 623 192.5 640 c 128,-1,13
 207 657 207 657 229.5 657 c 128,-1,14
 252 657 252 657 263 646 c 128,-1,15
 274 635 274 635 274 610.5 c 128,-1,16
 274 586 274 586 259.5 569 c 128,-1,17
 245 552 245 552 220 552 c 0,9,10
EndSplineSet
EndChar

StartChar: copyright
Encoding: 169 169 107
Width: 851
GlyphClass: 2
Flags: W
LayerCount: 2
Fore
SplineSet
251.5 481 m 128,-1,1
 179 407 179 407 179 303.5 c 128,-1,2
 179 200 179 200 251.5 126.5 c 128,-1,3
 324 53 324 53 425 53 c 128,-1,4
 526 53 526 53 598.5 126.5 c 128,-1,5
 671 200 671 200 671 303.5 c 128,-1,6
 671 407 671 407 598.5 481 c 128,-1,7
 526 555 526 555 425 555 c 128,-1,0
 324 555 324 555 251.5 481 c 128,-1,1
219.5 100 m 128,-1,9
 135 184 135 184 135 303.5 c 128,-1,10
 135 423 135 423 219.5 507.5 c 128,-1,11
 304 592 304 592 425 592 c 128,-1,12
 546 592 546 592 631 507.5 c 128,-1,13
 716 423 716 423 716 304 c 128,-1,14
 716 185 716 185 631 100.5 c 128,-1,15
 546 16 546 16 425 16 c 128,-1,8
 304 16 304 16 219.5 100 c 128,-1,9
430 127 m 0,16,17
 350 127 350 127 313 169 c 128,-1,18
 276 211 276 211 276 301 c 0,19,20
 276 476 276 476 433 476 c 0,21,22
 483 476 483 476 514.5 454.5 c 128,-1,23
 546 433 546 433 546 399 c 0,24,25
 546 382 546 382 534.5 368.5 c 128,-1,26
 523 355 523 355 507 355 c 0,27,28
 475 355 475 355 468 382 c 1,29,30
 478 397 478 397 478 411.5 c 128,-1,31
 478 426 478 426 465.5 437.5 c 128,-1,32
 453 449 453 449 433 449 c 0,33,34
 387 449 387 449 366 413.5 c 128,-1,35
 345 378 345 378 345 301 c 128,-1,36
 345 224 345 224 364.5 191 c 128,-1,37
 384 158 384 158 430 158 c 0,38,39
 490 158 490 158 513 221 c 1,40,-1
 543 211 l 1,41,42
 531 173 531 173 500.5 150 c 128,-1,43
 470 127 470 127 430 127 c 0,16,17
EndSplineSet
EndChar

StartChar: ordfeminine
Encoding: 170 170 108
Width: 396
GlyphClass: 2
Flags: W
LayerCount: 2
Fore
SplineSet
367 378 m 1,0,1
 323 340 323 340 284.5 340 c 128,-1,2
 246 340 246 340 246 370 c 0,3,4
 246 382 246 382 249 400 c 1,5,6
 208 340 208 340 156.5 340 c 128,-1,7
 105 340 105 340 86 371.5 c 128,-1,8
 67 403 67 403 67 461 c 0,9,10
 67 543 67 543 111.5 603.5 c 128,-1,11
 156 664 156 664 227 664 c 0,12,13
 261 664 261 664 295 650 c 1,14,15
 309 666 309 666 332 666 c 2,16,-1
 355 665 l 1,17,-1
 315 419 l 2,18,19
 313 407 313 407 313 401 c 0,20,21
 313 387 313 387 326.5 387 c 128,-1,22
 340 387 340 387 360 400 c 1,23,-1
 367 378 l 1,0,1
175 387 m 0,24,25
 203 387 203 387 230.5 431 c 128,-1,26
 258 475 258 475 272 554 c 2,27,-1
 282 613 l 1,28,29
 260 627 260 627 237 627 c 0,30,31
 192 627 192 627 163 573 c 128,-1,32
 134 519 134 519 134 461 c 0,33,34
 134 387 134 387 175 387 c 0,24,25
46 256 m 1,35,-1
 51 290 l 1,36,-1
 358 290 l 1,37,-1
 353 256 l 1,38,-1
 46 256 l 1,35,-1
EndSplineSet
EndChar

StartChar: guillemotleft
Encoding: 171 171 109
Width: 469
GlyphClass: 2
Flags: W
LayerCount: 2
Fore
SplineSet
163 43 m 1,0,-1
 35 241 l 1,1,-1
 226 439 l 1,2,-1
 261 415 l 1,3,-1
 133 240 l 1,4,-1
 205 68 l 1,5,-1
 163 43 l 1,0,-1
343 43 m 1,6,-1
 215 241 l 1,7,-1
 406 439 l 1,8,-1
 441 415 l 1,9,-1
 313 240 l 1,10,-1
 385 68 l 1,11,-1
 343 43 l 1,6,-1
EndSplineSet
EndChar

StartChar: logicalnot
Encoding: 172 172 110
Width: 528
GlyphClass: 2
Flags: W
LayerCount: 2
Fore
SplineSet
494 398 m 1,0,-1
 459 177 l 1,1,-1
 399 177 l 1,2,-1
 426 345 l 1,3,-1
 47 345 l 1,4,-1
 55 398 l 1,5,-1
 494 398 l 1,0,-1
EndSplineSet
EndChar

StartChar: uni00AD
Encoding: 173 173 111
Width: 332
GlyphClass: 2
Flags: W
LayerCount: 2
Fore
SplineSet
47 231 m 1,0,-1
 56 285 l 1,1,-1
 285 285 l 1,2,-1
 276 231 l 1,3,-1
 47 231 l 1,0,-1
EndSplineSet
EndChar

StartChar: registered
Encoding: 174 174 112
Width: 851
GlyphClass: 2
Flags: W
LayerCount: 2
Fore
SplineSet
394 297 m 1,0,-1
 394 194 l 1,1,-1
 436 185 l 1,2,-1
 433 160 l 1,3,-1
 294 160 l 1,4,-1
 297 185 l 1,5,-1
 337 194 l 1,6,-1
 337 430 l 1,7,-1
 294 442 l 1,8,-1
 297 467 l 1,9,-1
 427 467 l 2,10,11
 539 467 539 467 539 383 c 0,12,13
 539 325 539 325 477 308 c 1,14,15
 495 295 495 295 503 275 c 1,16,-1
 540 194 l 1,17,-1
 575 186 l 1,18,-1
 571 160 l 1,19,-1
 489 160 l 1,20,-1
 450 261 l 2,21,22
 442 281 442 281 430.5 289 c 128,-1,23
 419 297 419 297 394 297 c 1,0,-1
427 437 m 2,24,-1
 394 437 l 1,25,-1
 394 330 l 1,26,-1
 408 330 l 2,27,28
 481 330 481 330 481 383 c 0,29,30
 481 409 481 409 466.5 423 c 128,-1,31
 452 437 452 437 427 437 c 2,24,-1
251.5 481 m 128,-1,33
 179 407 179 407 179 303.5 c 128,-1,34
 179 200 179 200 251.5 126.5 c 128,-1,35
 324 53 324 53 425 53 c 128,-1,36
 526 53 526 53 598.5 126.5 c 128,-1,37
 671 200 671 200 671 303.5 c 128,-1,38
 671 407 671 407 598.5 481 c 128,-1,39
 526 555 526 555 425 555 c 128,-1,32
 324 555 324 555 251.5 481 c 128,-1,33
219.5 100 m 128,-1,41
 135 184 135 184 135 303.5 c 128,-1,42
 135 423 135 423 219.5 507.5 c 128,-1,43
 304 592 304 592 425 592 c 128,-1,44
 546 592 546 592 631 507.5 c 128,-1,45
 716 423 716 423 716 304 c 128,-1,46
 716 185 716 185 631 100.5 c 128,-1,47
 546 16 546 16 425 16 c 128,-1,40
 304 16 304 16 219.5 100 c 128,-1,41
EndSplineSet
EndChar

StartChar: macron
Encoding: 175 175 113
Width: 271
GlyphClass: 2
Flags: W
LayerCount: 2
Fore
SplineSet
-1 570 m 1,0,-1
 6 614 l 1,1,-1
 283 614 l 1,2,-1
 276 570 l 1,3,-1
 -1 570 l 1,0,-1
EndSplineSet
EndChar

StartChar: degree
Encoding: 176 176 114
Width: 375
GlyphClass: 2
Flags: W
LayerCount: 2
Fore
SplineSet
144 422 m 128,-1,1
 110 454 110 454 110 512 c 128,-1,2
 110 570 110 570 159.5 617.5 c 128,-1,3
 209 665 209 665 268 665 c 128,-1,4
 327 665 327 665 361 633 c 128,-1,5
 395 601 395 601 395 543 c 128,-1,6
 395 485 395 485 345.5 437.5 c 128,-1,7
 296 390 296 390 237 390 c 128,-1,0
 178 390 178 390 144 422 c 128,-1,1
269 629 m 0,8,9
 227 629 227 629 203 589.5 c 128,-1,10
 179 550 179 550 179 508 c 0,11,12
 179 425 179 425 236 425 c 0,13,14
 278 425 278 425 302 465 c 128,-1,15
 326 505 326 505 326 547 c 0,16,17
 326 629 326 629 269 629 c 0,8,9
EndSplineSet
EndChar

StartChar: plusminus
Encoding: 177 177 115
Width: 528
GlyphClass: 2
Flags: W
LayerCount: 2
Fore
SplineSet
67 327 m 1,0,-1
 75 380 l 1,1,-1
 247 380 l 1,2,-1
 276 558 l 1,3,-1
 336 558 l 1,4,-1
 307 380 l 1,5,-1
 484 380 l 1,6,-1
 476 327 l 1,7,-1
 299 327 l 1,8,-1
 271 150 l 1,9,-1
 211 150 l 1,10,-1
 239 327 l 1,11,-1
 67 327 l 1,0,-1
22 27 m 1,12,-1
 31 80 l 1,13,-1
 431 80 l 1,14,-1
 422 27 l 1,15,-1
 22 27 l 1,12,-1
EndSplineSet
EndChar

StartChar: twosuperior
Encoding: 178 178 116
Width: 395
GlyphClass: 2
Flags: W
LayerCount: 2
Fore
SplineSet
256 722 m 0,0,1
 256 772 256 772 201 772 c 0,2,3
 171 772 171 772 151 758.5 c 128,-1,4
 131 745 131 745 131 726.5 c 128,-1,5
 131 708 131 708 143 692 c 1,6,7
 120 674 120 674 102 674 c 0,8,9
 62 674 62 674 62 712 c 0,10,11
 62 762 62 762 105 787 c 128,-1,12
 148 812 148 812 206.5 812 c 128,-1,13
 265 812 265 812 295 788 c 128,-1,14
 325 764 325 764 325 713.5 c 128,-1,15
 325 663 325 663 276 602.5 c 128,-1,16
 227 542 227 542 108 459 c 1,17,-1
 302 459 l 1,18,-1
 293 405 l 1,19,-1
 13 405 l 1,20,-1
 20 447 l 1,21,22
 157 550 157 550 206.5 609 c 128,-1,23
 256 668 256 668 256 722 c 0,0,1
EndSplineSet
EndChar

StartChar: threesuperior
Encoding: 179 179 117
Width: 395
GlyphClass: 2
Flags: W
LayerCount: 2
Fore
SplineSet
263 725 m 0,0,1
 263 772 263 772 213 772 c 0,2,3
 185 772 185 772 165.5 758 c 128,-1,4
 146 744 146 744 146 723 c 0,5,6
 146 714 146 714 153 704 c 1,7,8
 129 689 129 689 111 689 c 0,9,10
 83 689 83 689 83 723.5 c 128,-1,11
 83 758 83 758 123 785 c 128,-1,12
 163 812 163 812 217 812 c 128,-1,13
 271 812 271 812 301 788.5 c 128,-1,14
 331 765 331 765 331 727 c 0,15,16
 331 650 331 650 242 618 c 1,17,18
 306 596 306 596 306 537.5 c 128,-1,19
 306 479 306 479 261 440 c 128,-1,20
 216 401 216 401 154 401 c 128,-1,21
 92 401 92 401 59.5 420 c 128,-1,22
 27 439 27 439 27 474 c 0,23,24
 27 497 27 497 40 511 c 128,-1,25
 53 525 53 525 73 525 c 128,-1,26
 93 525 93 525 110 512 c 1,27,28
 97 494 97 494 97 477.5 c 128,-1,29
 97 461 97 461 113.5 450.5 c 128,-1,30
 130 440 130 440 161.5 440 c 128,-1,31
 193 440 193 440 216.5 465 c 128,-1,32
 240 490 240 490 240 527 c 0,33,34
 240 599 240 599 140 599 c 1,35,-1
 146 635 l 1,36,37
 201 637 201 637 232 660 c 128,-1,38
 263 683 263 683 263 725 c 0,0,1
EndSplineSet
EndChar

StartChar: acute
Encoding: 180 180 118
Width: 271
GlyphClass: 2
Flags: W
LayerCount: 2
Fore
SplineSet
154 665 m 1,0,1
 169 681 169 681 186 681 c 128,-1,2
 203 681 203 681 213.5 671.5 c 128,-1,3
 224 662 224 662 224 643.5 c 128,-1,4
 224 625 224 625 201 608 c 2,5,-1
 79 524 l 1,6,-1
 57 549 l 1,7,-1
 154 665 l 1,0,1
EndSplineSet
EndChar

StartChar: mu
Encoding: 181 181 119
Width: 551
GlyphClass: 2
Flags: W
LayerCount: 2
Fore
SplineSet
113 386 m 0,0,1
 113 415 113 415 80 415 c 0,2,3
 73 415 73 415 49 413 c 1,4,-1
 44 445 l 1,5,6
 115 476 115 476 172 476 c 1,7,-1
 199 473 l 1,8,-1
 211 454 l 1,9,-1
 167 204 l 2,10,11
 155 140 155 140 155 111.5 c 128,-1,12
 155 83 155 83 169.5 65 c 128,-1,13
 184 47 184 47 208 47 c 0,14,15
 266 47 266 47 309 125 c 128,-1,16
 352 203 352 203 368 305 c 2,17,-1
 394 467 l 1,18,19
 421 476 421 476 451 476 c 1,20,-1
 480 474 l 1,21,-1
 418 84 l 1,22,-1
 418 79 l 2,23,24
 418 62 418 62 438 62 c 128,-1,25
 458 62 458 62 490 81 c 1,26,-1
 500 49 l 1,27,28
 435 -7 435 -7 386 -7 c 0,29,30
 352 -7 352 -7 341 6 c 128,-1,31
 330 19 330 19 330 40.5 c 128,-1,32
 330 62 330 62 341 115 c 1,33,34
 274 -7 274 -7 180 -7 c 0,35,36
 158 -7 158 -7 133 0 c 1,37,-1
 99 -205 l 1,38,-1
 12 -205 l 1,39,-1
 108 352 l 2,40,41
 113 384 113 384 113 386 c 0,0,1
EndSplineSet
EndChar

StartChar: paragraph
Encoding: 182 182 120
Width: 569
GlyphClass: 2
Flags: W
LayerCount: 2
Fore
SplineSet
377 667 m 2,0,-1
 602 667 l 1,1,-1
 597 630 l 1,2,3
 531 622 531 622 498 604 c 1,4,-1
 412 69 l 2,5,6
 387 -84 387 -84 330 -153 c 0,7,8
 306 -181 306 -181 267 -200 c 128,-1,9
 228 -219 228 -219 182 -219 c 128,-1,10
 136 -219 136 -219 108.5 -198 c 128,-1,11
 81 -177 81 -177 81 -143.5 c 128,-1,12
 81 -110 81 -110 98.5 -93 c 128,-1,13
 116 -76 116 -76 140 -76 c 0,14,15
 180 -76 180 -76 188 -112 c 1,16,17
 171 -121 171 -121 171 -143 c 0,18,19
 171 -171 171 -171 198 -171 c 0,20,21
 241 -171 241 -171 256 -114 c 0,22,23
 266 -76 266 -76 272.5 -11 c 128,-1,24
 279 54 279 54 283 80 c 2,25,-1
 322 324 l 1,26,27
 216 324 216 324 159 354 c 128,-1,28
 102 384 102 384 102 458 c 0,29,30
 102 560 102 560 180 613.5 c 128,-1,31
 258 667 258 667 377 667 c 2,0,-1
416 623 m 1,32,-1
 326 61 l 2,33,34
 324 50 324 50 320 8 c 0,35,36
 311 -84 311 -84 295 -122 c 1,37,38
 315 -110 315 -110 330.5 -78 c 128,-1,39
 346 -46 346 -46 351 -13 c 2,40,-1
 452 623 l 1,41,-1
 416 623 l 1,32,-1
EndSplineSet
EndChar

StartChar: periodcentered
Encoding: 183 183 121
Width: 241
GlyphClass: 2
Flags: W
LayerCount: 2
Fore
SplineSet
106.5 329.5 m 128,-1,1
 123 351 123 351 146 351 c 128,-1,2
 169 351 169 351 181 339 c 128,-1,3
 193 327 193 327 193 302.5 c 128,-1,4
 193 278 193 278 176.5 256.5 c 128,-1,5
 160 235 160 235 137 235 c 128,-1,6
 114 235 114 235 102 247 c 128,-1,7
 90 259 90 259 90 283.5 c 128,-1,0
 90 308 90 308 106.5 329.5 c 128,-1,1
EndSplineSet
EndChar

StartChar: cedilla
Encoding: 184 184 122
Width: 271
GlyphClass: 2
Flags: W
LayerCount: 2
Fore
SplineSet
227 -108 m 0,0,1
 227 -148 227 -148 196 -176 c 128,-1,2
 165 -204 165 -204 121.5 -204 c 128,-1,3
 78 -204 78 -204 57.5 -187.5 c 128,-1,4
 37 -171 37 -171 37 -150 c 128,-1,5
 37 -129 37 -129 48.5 -114 c 128,-1,6
 60 -99 60 -99 73 -99 c 128,-1,7
 86 -99 86 -99 95 -103 c 1,8,9
 86 -125 86 -125 86 -137.5 c 128,-1,10
 86 -150 86 -150 97 -160.5 c 128,-1,11
 108 -171 108 -171 128 -171 c 128,-1,12
 148 -171 148 -171 162.5 -156 c 128,-1,13
 177 -141 177 -141 177 -114 c 0,14,15
 177 -84 177 -84 128 -76 c 1,16,-1
 113 -56 l 1,17,-1
 163 9 l 1,18,-1
 189 4 l 1,19,-1
 163 -46 l 1,20,21
 227 -59 227 -59 227 -108 c 0,0,1
EndSplineSet
EndChar

StartChar: onesuperior
Encoding: 185 185 123
Width: 395
GlyphClass: 2
Flags: W
LayerCount: 2
Fore
SplineSet
56 405 m 1,0,-1
 63 435 l 1,1,2
 125 442 125 442 155 452 c 1,3,-1
 201 743 l 1,4,-1
 113 743 l 1,5,-1
 119 779 l 1,6,7
 190 785 190 785 251 812 c 1,8,-1
 275 802 l 1,9,-1
 220 452 l 1,10,11
 245 439 245 439 299 435 c 1,12,-1
 291 405 l 1,13,-1
 56 405 l 1,0,-1
EndSplineSet
EndChar

StartChar: ordmasculine
Encoding: 186 186 124
Width: 406
GlyphClass: 2
Flags: W
LayerCount: 2
Fore
SplineSet
251 627 m 128,-1,1
 216 627 216 627 188 574 c 128,-1,2
 160 521 160 521 160 449 c 128,-1,3
 160 377 160 377 195.5 377 c 128,-1,4
 231 377 231 377 258.5 431 c 128,-1,5
 286 485 286 485 286 556 c 128,-1,0
 286 627 286 627 251 627 c 128,-1,1
250 665 m 0,6,7
 303 665 303 665 330.5 634.5 c 128,-1,8
 358 604 358 604 358 549 c 0,9,10
 358 464 358 464 315 402 c 128,-1,11
 272 340 272 340 197 340 c 0,12,13
 143 340 143 340 115 370 c 128,-1,14
 87 400 87 400 87 455 c 0,15,16
 87 541 87 541 130 603 c 128,-1,17
 173 665 173 665 250 665 c 0,6,7
50 256 m 1,18,-1
 55 290 l 1,19,-1
 342 290 l 1,20,-1
 337 256 l 1,21,-1
 50 256 l 1,18,-1
EndSplineSet
EndChar

StartChar: guillemotright
Encoding: 187 187 125
Width: 469
GlyphClass: 2
Flags: W
LayerCount: 2
Fore
SplineSet
133 439 m 1,0,-1
 261 241 l 1,1,-1
 70 43 l 1,2,-1
 35 68 l 1,3,-1
 162 241 l 1,4,-1
 90 415 l 1,5,-1
 133 439 l 1,0,-1
314 439 m 1,6,-1
 442 241 l 1,7,-1
 251 43 l 1,8,-1
 216 68 l 1,9,-1
 343 241 l 1,10,-1
 271 415 l 1,11,-1
 314 439 l 1,6,-1
EndSplineSet
EndChar

StartChar: onequarter
Encoding: 188 188 126
Width: 858
GlyphClass: 2
Flags: W
LayerCount: 2
Fore
SplineSet
82 262 m 1,0,-1
 89 292 l 1,1,2
 151 299 151 299 181 309 c 1,3,-1
 227 600 l 1,4,-1
 139 600 l 1,5,-1
 145 636 l 1,6,7
 216 642 216 642 277 669 c 1,8,-1
 301 659 l 1,9,-1
 246 309 l 1,10,11
 271 296 271 296 325 292 c 1,12,-1
 317 262 l 1,13,-1
 82 262 l 1,0,-1
714 103 m 1,14,-1
 771 93 l 1,15,-1
 761 61 l 1,16,-1
 707 61 l 1,17,-1
 690 -47 l 1,18,-1
 628 -47 l 1,19,-1
 645 61 l 1,20,-1
 456 61 l 1,21,-1
 454 87 l 1,22,-1
 658 366 l 1,23,24
 686 364 686 364 717 346 c 1,25,-1
 521 104 l 1,26,-1
 652 104 l 1,27,-1
 670 219 l 1,28,29
 705 221 705 221 716 244 c 1,30,-1
 736 244 l 1,31,-1
 714 103 l 1,14,-1
270 -32 m 1,32,-1
 224 -6 l 1,33,-1
 643 680 l 1,34,-1
 690 657 l 1,35,-1
 270 -32 l 1,32,-1
EndSplineSet
EndChar

StartChar: onehalf
Encoding: 189 189 127
Width: 882
GlyphClass: 2
Flags: W
LayerCount: 2
Fore
SplineSet
82 262 m 1,0,-1
 89 292 l 1,1,2
 151 299 151 299 181 309 c 1,3,-1
 227 600 l 1,4,-1
 139 600 l 1,5,-1
 145 636 l 1,6,7
 216 642 216 642 277 669 c 1,8,-1
 301 659 l 1,9,-1
 246 309 l 1,10,11
 271 296 271 296 325 292 c 1,12,-1
 317 262 l 1,13,-1
 82 262 l 1,0,-1
730 265 m 0,14,15
 730 289 730 289 716.5 304.5 c 128,-1,16
 703 320 703 320 674 320 c 128,-1,17
 645 320 645 320 625 306.5 c 128,-1,18
 605 293 605 293 605 274.5 c 128,-1,19
 605 256 605 256 617 240 c 1,20,21
 594 222 594 222 576 222 c 0,22,23
 536 222 536 222 536 260 c 0,24,25
 536 310 536 310 579 335 c 128,-1,26
 622 360 622 360 680.5 360 c 128,-1,27
 739 360 739 360 769 336 c 128,-1,28
 799 312 799 312 799 261.5 c 128,-1,29
 799 211 799 211 750 150.5 c 128,-1,30
 701 90 701 90 582 7 c 1,31,-1
 776 7 l 1,32,-1
 767 -47 l 1,33,-1
 487 -47 l 1,34,-1
 494 -5 l 1,35,36
 629 97 629 97 679.5 156 c 128,-1,37
 730 215 730 215 730 265 c 0,14,15
271 -32 m 1,38,-1
 225 -6 l 1,39,-1
 644 680 l 1,40,-1
 691 657 l 1,41,-1
 271 -32 l 1,38,-1
EndSplineSet
EndChar

StartChar: threequarters
Encoding: 190 190 128
Width: 858
GlyphClass: 2
Flags: W
LayerCount: 2
Fore
SplineSet
308 582 m 0,0,1
 308 629 308 629 258 629 c 0,2,3
 230 629 230 629 210.5 615 c 128,-1,4
 191 601 191 601 191 580 c 0,5,6
 191 572 191 572 198 561 c 1,7,8
 180 546 180 546 156 546 c 0,9,10
 128 546 128 546 128 581.5 c 128,-1,11
 128 617 128 617 167.5 643 c 128,-1,12
 207 669 207 669 261.5 669 c 128,-1,13
 316 669 316 669 346 645.5 c 128,-1,14
 376 622 376 622 376 584 c 0,15,16
 376 507 376 507 287 475 c 1,17,18
 351 453 351 453 351 394.5 c 128,-1,19
 351 336 351 336 306 297 c 128,-1,20
 261 258 261 258 199 258 c 128,-1,21
 137 258 137 258 104.5 277 c 128,-1,22
 72 296 72 296 72 331 c 0,23,24
 72 354 72 354 85 368 c 128,-1,25
 98 382 98 382 118 382 c 128,-1,26
 138 382 138 382 155 369 c 1,27,28
 142 351 142 351 142 334.5 c 128,-1,29
 142 318 142 318 158.5 307.5 c 128,-1,30
 175 297 175 297 206.5 297 c 128,-1,31
 238 297 238 297 261.5 322 c 128,-1,32
 285 347 285 347 285 384 c 0,33,34
 285 456 285 456 185 456 c 1,35,-1
 191 492 l 1,36,37
 246 494 246 494 277 517 c 128,-1,38
 308 540 308 540 308 582 c 0,0,1
721 102 m 1,39,-1
 778 92 l 1,40,-1
 768 60 l 1,41,-1
 714 60 l 1,42,-1
 697 -48 l 1,43,-1
 635 -48 l 1,44,-1
 652 60 l 1,45,-1
 463 60 l 1,46,-1
 461 86 l 1,47,-1
 665 365 l 1,48,49
 693 363 693 363 724 345 c 1,50,-1
 528 103 l 1,51,-1
 659 103 l 1,52,-1
 677 218 l 1,53,54
 712 220 712 220 723 243 c 1,55,-1
 743 243 l 1,56,-1
 721 102 l 1,39,-1
273 -32 m 1,57,-1
 227 -6 l 1,58,-1
 646 680 l 1,59,-1
 693 657 l 1,60,-1
 273 -32 l 1,57,-1
EndSplineSet
EndChar

StartChar: questiondown
Encoding: 191 191 129
Width: 407
GlyphClass: 2
Flags: W
LayerCount: 2
Fore
SplineSet
181 222 m 1,0,-1
 180 246 l 1,1,2
 203 263 203 263 226 263 c 0,3,4
 266 263 266 263 266 214 c 0,5,6
 266 143 266 143 190 85 c 0,7,8
 159 61 159 61 128 38 c 0,9,10
 52 -17 52 -17 52 -83 c 0,11,12
 52 -112 52 -112 71.5 -130 c 128,-1,13
 91 -148 91 -148 123.5 -148 c 128,-1,14
 156 -148 156 -148 179.5 -132 c 128,-1,15
 203 -116 203 -116 203 -89 c 0,16,17
 203 -78 203 -78 196 -61 c 1,18,19
 215 -31 215 -31 249 -31 c 0,20,21
 267 -31 267 -31 279 -41.5 c 128,-1,22
 291 -52 291 -52 291 -73 c 0,23,24
 291 -130 291 -130 239 -160.5 c 128,-1,25
 187 -191 187 -191 121 -191 c 128,-1,26
 55 -191 55 -191 14.5 -164 c 128,-1,27
 -26 -137 -26 -137 -26 -87.5 c 128,-1,28
 -26 -38 -26 -38 -4.5 -1 c 128,-1,29
 17 36 17 36 47.5 60.5 c 128,-1,30
 78 85 78 85 108 108 c 0,31,32
 181 162 181 162 181 222 c 1,0,-1
209.5 465.5 m 128,-1,34
 226 487 226 487 249 487 c 128,-1,35
 272 487 272 487 284 475 c 128,-1,36
 296 463 296 463 296 438.5 c 128,-1,37
 296 414 296 414 279.5 392.5 c 128,-1,38
 263 371 263 371 240 371 c 128,-1,39
 217 371 217 371 205 383 c 128,-1,40
 193 395 193 395 193 419.5 c 128,-1,33
 193 444 193 444 209.5 465.5 c 128,-1,34
EndSplineSet
EndChar

StartChar: Agrave
Encoding: 192 192 130
Width: 588
GlyphClass: 2
Flags: W
LayerCount: 2
Fore
SplineSet
298 0 m 1,0,-1
 304 37 l 1,1,2
 363 44 363 44 394 63 c 1,3,-1
 399 63 l 1,4,-1
 376 215 l 1,5,-1
 190 215 l 1,6,-1
 124 62 l 1,7,8
 156 45 156 45 219 37 c 1,9,-1
 214 0 l 1,10,-1
 -21 0 l 1,11,-1
 -16 37 l 1,12,13
 35 45 35 45 57 60 c 1,14,-1
 329 667 l 1,15,-1
 394 667 l 1,16,-1
 496 62 l 1,17,18
 519 45 519 45 567 37 c 1,19,-1
 563 0 l 1,20,-1
 298 0 l 1,0,-1
328 534 m 1,21,-1
 212 267 l 1,22,-1
 368 267 l 1,23,-1
 328 534 l 1,21,-1
297 779 m 2,24,25
 278 796 278 796 278 812 c 128,-1,26
 278 828 278 828 291 840.5 c 128,-1,27
 304 853 304 853 321.5 853 c 128,-1,28
 339 853 339 853 349 836 c 2,29,-1
 414 720 l 1,30,-1
 388 696 l 1,31,-1
 297 779 l 2,24,25
EndSplineSet
EndChar

StartChar: Aacute
Encoding: 193 193 131
Width: 588
GlyphClass: 2
Flags: W
LayerCount: 2
Fore
SplineSet
298 0 m 1,0,-1
 304 37 l 1,1,2
 363 44 363 44 394 63 c 1,3,-1
 399 63 l 1,4,-1
 376 215 l 1,5,-1
 190 215 l 1,6,-1
 124 62 l 1,7,8
 156 45 156 45 219 37 c 1,9,-1
 214 0 l 1,10,-1
 -21 0 l 1,11,-1
 -16 37 l 1,12,13
 35 45 35 45 57 60 c 1,14,-1
 329 667 l 1,15,-1
 394 667 l 1,16,-1
 496 62 l 1,17,18
 519 45 519 45 567 37 c 1,19,-1
 563 0 l 1,20,-1
 298 0 l 1,0,-1
328 534 m 1,21,-1
 212 267 l 1,22,-1
 368 267 l 1,23,-1
 328 534 l 1,21,-1
415 837 m 1,24,25
 430 853 430 853 447 853 c 128,-1,26
 464 853 464 853 474.5 843.5 c 128,-1,27
 485 834 485 834 485 815.5 c 128,-1,28
 485 797 485 797 462 780 c 2,29,-1
 340 696 l 1,30,-1
 318 721 l 1,31,-1
 415 837 l 1,24,25
EndSplineSet
EndChar

StartChar: Acircumflex
Encoding: 194 194 132
Width: 588
GlyphClass: 2
Flags: W
LayerCount: 2
Fore
SplineSet
298 0 m 1,0,-1
 304 37 l 1,1,2
 363 44 363 44 394 63 c 1,3,-1
 399 63 l 1,4,-1
 376 215 l 1,5,-1
 190 215 l 1,6,-1
 124 62 l 1,7,8
 156 45 156 45 219 37 c 1,9,-1
 214 0 l 1,10,-1
 -21 0 l 1,11,-1
 -16 37 l 1,12,13
 35 45 35 45 57 60 c 1,14,-1
 329 667 l 1,15,-1
 394 667 l 1,16,-1
 496 62 l 1,17,18
 519 45 519 45 567 37 c 1,19,-1
 563 0 l 1,20,-1
 298 0 l 1,0,-1
328 534 m 1,21,-1
 212 267 l 1,22,-1
 368 267 l 1,23,-1
 328 534 l 1,21,-1
386 843 m 128,-1,25
 403 843 403 843 415 827 c 2,26,-1
 491 720 l 1,27,-1
 465 696 l 1,28,-1
 377 771 l 1,29,-1
 265 696 l 1,30,-1
 244 720 l 1,31,-1
 353 827 l 2,32,24
 369 843 369 843 386 843 c 128,-1,25
EndSplineSet
EndChar

StartChar: Atilde
Encoding: 195 195 133
Width: 588
GlyphClass: 2
Flags: W
LayerCount: 2
Fore
SplineSet
298 0 m 1,0,-1
 304 37 l 1,1,2
 363 44 363 44 394 63 c 1,3,-1
 399 63 l 1,4,-1
 376 215 l 1,5,-1
 190 215 l 1,6,-1
 124 62 l 1,7,8
 156 45 156 45 219 37 c 1,9,-1
 214 0 l 1,10,-1
 -21 0 l 1,11,-1
 -16 37 l 1,12,13
 35 45 35 45 57 60 c 1,14,-1
 329 667 l 1,15,-1
 394 667 l 1,16,-1
 496 62 l 1,17,18
 519 45 519 45 567 37 c 1,19,-1
 563 0 l 1,20,-1
 298 0 l 1,0,-1
328 534 m 1,21,-1
 212 267 l 1,22,-1
 368 267 l 1,23,-1
 328 534 l 1,21,-1
269.5 794.5 m 128,-1,25
 299 820 299 820 327 820 c 128,-1,26
 355 820 355 820 386.5 802 c 128,-1,27
 418 784 418 784 440.5 784 c 128,-1,28
 463 784 463 784 506 823 c 1,29,30
 522 817 522 817 536 803 c 1,31,32
 519 775 519 775 489.5 749 c 128,-1,33
 460 723 460 723 432 723 c 128,-1,34
 404 723 404 723 372 741 c 128,-1,35
 340 759 340 759 317 759 c 128,-1,36
 294 759 294 759 253 722 c 1,37,38
 238 726 238 726 224 742 c 1,39,24
 240 769 240 769 269.5 794.5 c 128,-1,25
EndSplineSet
EndChar

StartChar: Adieresis
Encoding: 196 196 134
Width: 588
GlyphClass: 2
Flags: W
LayerCount: 2
Fore
SplineSet
298 0 m 1,0,-1
 304 37 l 1,1,2
 363 44 363 44 394 63 c 1,3,-1
 399 63 l 1,4,-1
 376 215 l 1,5,-1
 190 215 l 1,6,-1
 124 62 l 1,7,8
 156 45 156 45 219 37 c 1,9,-1
 214 0 l 1,10,-1
 -21 0 l 1,11,-1
 -16 37 l 1,12,13
 35 45 35 45 57 60 c 1,14,-1
 329 667 l 1,15,-1
 394 667 l 1,16,-1
 496 62 l 1,17,18
 519 45 519 45 567 37 c 1,19,-1
 563 0 l 1,20,-1
 298 0 l 1,0,-1
328 534 m 1,21,-1
 212 267 l 1,22,-1
 368 267 l 1,23,-1
 328 534 l 1,21,-1
287 728 m 0,24,25
 245 728 245 728 245 768 c 0,26,27
 245 799 245 799 259.5 816 c 128,-1,28
 274 833 274 833 296.5 833 c 128,-1,29
 319 833 319 833 330 822 c 128,-1,30
 341 811 341 811 341 786.5 c 128,-1,31
 341 762 341 762 326.5 745 c 128,-1,32
 312 728 312 728 287 728 c 0,24,25
454 728 m 0,33,34
 412 728 412 728 412 768 c 0,35,36
 412 799 412 799 426.5 816 c 128,-1,37
 441 833 441 833 463.5 833 c 128,-1,38
 486 833 486 833 497 822 c 128,-1,39
 508 811 508 811 508 786.5 c 128,-1,40
 508 762 508 762 493.5 745 c 128,-1,41
 479 728 479 728 454 728 c 0,33,34
EndSplineSet
EndChar

StartChar: Aring
Encoding: 197 197 135
Width: 588
GlyphClass: 2
Flags: W
LayerCount: 2
Fore
SplineSet
298 0 m 1,0,-1
 304 37 l 1,1,2
 363 44 363 44 394 63 c 1,3,-1
 399 63 l 1,4,-1
 376 215 l 1,5,-1
 190 215 l 1,6,-1
 124 62 l 1,7,8
 156 45 156 45 219 37 c 1,9,-1
 214 0 l 1,10,-1
 -21 0 l 1,11,-1
 -16 37 l 1,12,13
 35 45 35 45 57 60 c 1,14,-1
 329 667 l 1,15,-1
 394 667 l 1,16,-1
 496 62 l 1,17,18
 519 45 519 45 567 37 c 1,19,-1
 563 0 l 1,20,-1
 298 0 l 1,0,-1
328 534 m 1,21,-1
 212 267 l 1,22,-1
 368 267 l 1,23,-1
 328 534 l 1,21,-1
434.5 723 m 128,-1,25
 406 695 406 695 367 695 c 128,-1,26
 328 695 328 695 309 713.5 c 128,-1,27
 290 732 290 732 290 768 c 128,-1,28
 290 804 290 804 319 832 c 128,-1,29
 348 860 348 860 385.5 860 c 128,-1,30
 423 860 423 860 443 841 c 128,-1,31
 463 822 463 822 463 786.5 c 128,-1,24
 463 751 463 751 434.5 723 c 128,-1,25
342.5 745 m 128,-1,33
 353 734 353 734 371.5 734 c 128,-1,34
 390 734 390 734 405.5 749 c 128,-1,35
 421 764 421 764 421 782 c 128,-1,36
 421 800 421 800 410.5 811 c 128,-1,37
 400 822 400 822 382 822 c 128,-1,38
 364 822 364 822 348 806 c 128,-1,39
 332 790 332 790 332 773 c 128,-1,32
 332 756 332 756 342.5 745 c 128,-1,33
EndSplineSet
EndChar

StartChar: AE
Encoding: 198 198 136
Width: 834
GlyphClass: 2
Flags: W
LayerCount: 2
Fore
SplineSet
811 516 m 1,0,1
 800 510 800 510 789 510 c 128,-1,2
 778 510 778 510 767 513 c 1,3,4
 765 579 765 579 742 614 c 1,5,-1
 573 614 l 1,6,-1
 530 364 l 1,7,-1
 625 368 l 2,8,9
 663 369 663 369 690 434 c 1,10,-1
 722 434 l 1,11,-1
 691 239 l 1,12,-1
 660 239 l 1,13,14
 660 264 660 264 651.5 283 c 128,-1,15
 643 302 643 302 634.5 307 c 128,-1,16
 626 312 626 312 614 313 c 2,17,-1
 522 316 l 1,18,-1
 478 57 l 1,19,-1
 663 57 l 1,20,21
 696 94 696 94 723 169 c 1,22,23
 735 171 735 171 741.5 171 c 128,-1,24
 748 171 748 171 764 169 c 1,25,-1
 728 0 l 1,26,-1
 296 0 l 1,27,-1
 302 37 l 1,28,29
 361 44 361 44 394 63 c 1,30,-1
 427 251 l 1,31,-1
 251 251 l 1,32,-1
 113 58 l 1,33,34
 145 43 145 43 200 37 c 1,35,-1
 195 0 l 1,36,-1
 -35 0 l 1,37,-1
 -30 37 l 1,38,39
 24 43 24 43 48 67 c 1,40,-1
 477 667 l 1,41,-1
 826 667 l 1,42,-1
 811 516 l 1,0,1
484 577 m 1,43,-1
 285 298 l 1,44,-1
 435 298 l 1,45,-1
 484 577 l 1,43,-1
EndSplineSet
EndChar

StartChar: Ccedilla
Encoding: 199 199 137
Width: 540
GlyphClass: 2
Flags: W
LayerCount: 2
Fore
SplineSet
167 213 m 0,0,1
 167 130 167 130 196.5 90.5 c 128,-1,2
 226 51 226 51 277 51 c 0,3,4
 359 51 359 51 472 141 c 1,5,-1
 504 98 l 1,6,7
 434 43 434 43 378.5 18 c 128,-1,8
 323 -7 323 -7 256 -7 c 0,9,10
 171 -7 171 -7 120.5 53.5 c 128,-1,11
 70 114 70 114 70 235.5 c 128,-1,12
 70 357 70 357 105 456 c 128,-1,13
 140 555 140 555 214.5 615 c 128,-1,14
 289 675 289 675 395 675 c 0,15,16
 473 675 473 675 516 641.5 c 128,-1,17
 559 608 559 608 559 559 c 0,18,19
 559 526 559 526 542 499 c 128,-1,20
 525 472 525 472 499 472 c 128,-1,21
 473 472 473 472 458.5 483 c 128,-1,22
 444 494 444 494 443 511 c 1,23,24
 463 533 463 533 463 559.5 c 128,-1,25
 463 586 463 586 443 604.5 c 128,-1,26
 423 623 423 623 385 624 c 1,27,28
 280 623 280 623 223.5 503 c 128,-1,29
 167 383 167 383 167 213 c 0,0,1
334 -108 m 0,30,31
 334 -148 334 -148 303 -176 c 128,-1,32
 272 -204 272 -204 228.5 -204 c 128,-1,33
 185 -204 185 -204 164.5 -187.5 c 128,-1,34
 144 -171 144 -171 144 -150 c 128,-1,35
 144 -129 144 -129 155.5 -114 c 128,-1,36
 167 -99 167 -99 180 -99 c 128,-1,37
 193 -99 193 -99 202 -103 c 1,38,39
 193 -125 193 -125 193 -137.5 c 128,-1,40
 193 -150 193 -150 204 -160.5 c 128,-1,41
 215 -171 215 -171 235 -171 c 128,-1,42
 255 -171 255 -171 269.5 -156 c 128,-1,43
 284 -141 284 -141 284 -114 c 0,44,45
 284 -84 284 -84 235 -76 c 1,46,-1
 220 -56 l 1,47,-1
 270 9 l 1,48,-1
 296 4 l 1,49,-1
 270 -46 l 1,50,51
 334 -59 334 -59 334 -108 c 0,30,31
EndSplineSet
EndChar

StartChar: Egrave
Encoding: 200 200 138
Width: 568
GlyphClass: 2
Flags: W
LayerCount: 2
Fore
SplineSet
541 516 m 1,0,1
 526 511 526 511 516.5 511 c 128,-1,2
 507 511 507 511 497 513 c 1,3,4
 495 579 495 579 472 614 c 1,5,-1
 288 614 l 1,6,-1
 248 363 l 1,7,8
 332 365 332 365 355 368 c 1,9,10
 394 371 394 371 420 434 c 1,11,-1
 452 434 l 1,12,-1
 421 239 l 1,13,-1
 390 239 l 1,14,15
 390 262 390 262 381.5 282 c 128,-1,16
 373 302 373 302 364.5 306.5 c 128,-1,17
 356 311 356 311 344 312 c 2,18,-1
 240 316 l 1,19,-1
 199 57 l 1,20,-1
 393 57 l 1,21,22
 426 94 426 94 453 169 c 1,23,24
 465 171 465 171 471.5 171 c 128,-1,25
 478 171 478 171 494 169 c 1,26,-1
 458 0 l 1,27,-1
 17 0 l 1,28,-1
 22 37 l 1,29,30
 81 44 81 44 112 63 c 1,31,-1
 198 604 l 1,32,33
 165 624 165 624 112 630 c 1,34,-1
 117 667 l 1,35,-1
 556 667 l 1,36,-1
 541 516 l 1,0,1
309 789 m 2,37,38
 290 806 290 806 290 822 c 128,-1,39
 290 838 290 838 303 850.5 c 128,-1,40
 316 863 316 863 333.5 863 c 128,-1,41
 351 863 351 863 361 846 c 2,42,-1
 426 730 l 1,43,-1
 400 706 l 1,44,-1
 309 789 l 2,37,38
EndSplineSet
EndChar

StartChar: Eacute
Encoding: 201 201 139
Width: 568
GlyphClass: 2
Flags: W
LayerCount: 2
Fore
SplineSet
541 516 m 1,0,1
 526 511 526 511 516.5 511 c 128,-1,2
 507 511 507 511 497 513 c 1,3,4
 495 579 495 579 472 614 c 1,5,-1
 288 614 l 1,6,-1
 248 363 l 1,7,8
 332 365 332 365 355 368 c 1,9,10
 394 371 394 371 420 434 c 1,11,-1
 452 434 l 1,12,-1
 421 239 l 1,13,-1
 390 239 l 1,14,15
 390 262 390 262 381.5 282 c 128,-1,16
 373 302 373 302 364.5 306.5 c 128,-1,17
 356 311 356 311 344 312 c 2,18,-1
 240 316 l 1,19,-1
 199 57 l 1,20,-1
 393 57 l 1,21,22
 426 94 426 94 453 169 c 1,23,24
 465 171 465 171 471.5 171 c 128,-1,25
 478 171 478 171 494 169 c 1,26,-1
 458 0 l 1,27,-1
 17 0 l 1,28,-1
 22 37 l 1,29,30
 81 44 81 44 112 63 c 1,31,-1
 198 604 l 1,32,33
 165 624 165 624 112 630 c 1,34,-1
 117 667 l 1,35,-1
 556 667 l 1,36,-1
 541 516 l 1,0,1
427 847 m 1,37,38
 442 863 442 863 459 863 c 128,-1,39
 476 863 476 863 486.5 853.5 c 128,-1,40
 497 844 497 844 497 825.5 c 128,-1,41
 497 807 497 807 474 790 c 2,42,-1
 352 706 l 1,43,-1
 330 731 l 1,44,-1
 427 847 l 1,37,38
EndSplineSet
EndChar

StartChar: Ecircumflex
Encoding: 202 202 140
Width: 568
GlyphClass: 2
Flags: W
LayerCount: 2
Fore
SplineSet
541 516 m 1,0,1
 526 511 526 511 516.5 511 c 128,-1,2
 507 511 507 511 497 513 c 1,3,4
 495 579 495 579 472 614 c 1,5,-1
 288 614 l 1,6,-1
 248 363 l 1,7,8
 332 365 332 365 355 368 c 1,9,10
 394 371 394 371 420 434 c 1,11,-1
 452 434 l 1,12,-1
 421 239 l 1,13,-1
 390 239 l 1,14,15
 390 262 390 262 381.5 282 c 128,-1,16
 373 302 373 302 364.5 306.5 c 128,-1,17
 356 311 356 311 344 312 c 2,18,-1
 240 316 l 1,19,-1
 199 57 l 1,20,-1
 393 57 l 1,21,22
 426 94 426 94 453 169 c 1,23,24
 465 171 465 171 471.5 171 c 128,-1,25
 478 171 478 171 494 169 c 1,26,-1
 458 0 l 1,27,-1
 17 0 l 1,28,-1
 22 37 l 1,29,30
 81 44 81 44 112 63 c 1,31,-1
 198 604 l 1,32,33
 165 624 165 624 112 630 c 1,34,-1
 117 667 l 1,35,-1
 556 667 l 1,36,-1
 541 516 l 1,0,1
398 853 m 128,-1,38
 415 853 415 853 427 837 c 2,39,-1
 503 730 l 1,40,-1
 477 706 l 1,41,-1
 389 781 l 1,42,-1
 277 706 l 1,43,-1
 256 730 l 1,44,-1
 365 837 l 2,45,37
 381 853 381 853 398 853 c 128,-1,38
EndSplineSet
EndChar

StartChar: Edieresis
Encoding: 203 203 141
Width: 568
GlyphClass: 2
Flags: W
LayerCount: 2
Fore
SplineSet
541 516 m 1,0,1
 526 511 526 511 516.5 511 c 128,-1,2
 507 511 507 511 497 513 c 1,3,4
 495 579 495 579 472 614 c 1,5,-1
 288 614 l 1,6,-1
 248 363 l 1,7,8
 332 365 332 365 355 368 c 1,9,10
 394 371 394 371 420 434 c 1,11,-1
 452 434 l 1,12,-1
 421 239 l 1,13,-1
 390 239 l 1,14,15
 390 262 390 262 381.5 282 c 128,-1,16
 373 302 373 302 364.5 306.5 c 128,-1,17
 356 311 356 311 344 312 c 2,18,-1
 240 316 l 1,19,-1
 199 57 l 1,20,-1
 393 57 l 1,21,22
 426 94 426 94 453 169 c 1,23,24
 465 171 465 171 471.5 171 c 128,-1,25
 478 171 478 171 494 169 c 1,26,-1
 458 0 l 1,27,-1
 17 0 l 1,28,-1
 22 37 l 1,29,30
 81 44 81 44 112 63 c 1,31,-1
 198 604 l 1,32,33
 165 624 165 624 112 630 c 1,34,-1
 117 667 l 1,35,-1
 556 667 l 1,36,-1
 541 516 l 1,0,1
299 728 m 0,37,38
 257 728 257 728 257 768 c 0,39,40
 257 799 257 799 271.5 816 c 128,-1,41
 286 833 286 833 308.5 833 c 128,-1,42
 331 833 331 833 342 822 c 128,-1,43
 353 811 353 811 353 786.5 c 128,-1,44
 353 762 353 762 338.5 745 c 128,-1,45
 324 728 324 728 299 728 c 0,37,38
466 728 m 0,46,47
 424 728 424 728 424 768 c 0,48,49
 424 799 424 799 438.5 816 c 128,-1,50
 453 833 453 833 475.5 833 c 128,-1,51
 498 833 498 833 509 822 c 128,-1,52
 520 811 520 811 520 786.5 c 128,-1,53
 520 762 520 762 505.5 745 c 128,-1,54
 491 728 491 728 466 728 c 0,46,47
EndSplineSet
EndChar

StartChar: Igrave
Encoding: 204 204 142
Width: 320
GlyphClass: 2
Flags: W
LayerCount: 2
Fore
SplineSet
7 0 m 1,0,-1
 12 37 l 1,1,2
 66 44 66 44 98 63 c 1,3,-1
 184 604 l 1,4,5
 151 624 151 624 98 630 c 1,6,-1
 103 667 l 1,7,-1
 362 667 l 1,8,-1
 357 630 l 1,9,10
 306 624 306 624 272 604 c 1,11,-1
 186 63 l 1,12,13
 218 44 218 44 276 37 c 1,14,-1
 271 0 l 1,15,-1
 7 0 l 1,0,-1
177 789 m 2,16,17
 158 806 158 806 158 822 c 128,-1,18
 158 838 158 838 171 850.5 c 128,-1,19
 184 863 184 863 201.5 863 c 128,-1,20
 219 863 219 863 229 846 c 2,21,-1
 294 730 l 1,22,-1
 268 706 l 1,23,-1
 177 789 l 2,16,17
EndSplineSet
EndChar

StartChar: Iacute
Encoding: 205 205 143
Width: 320
GlyphClass: 2
Flags: W
LayerCount: 2
Fore
SplineSet
7 0 m 1,0,-1
 12 37 l 1,1,2
 66 44 66 44 98 63 c 1,3,-1
 184 604 l 1,4,5
 151 624 151 624 98 630 c 1,6,-1
 103 667 l 1,7,-1
 362 667 l 1,8,-1
 357 630 l 1,9,10
 306 624 306 624 272 604 c 1,11,-1
 186 63 l 1,12,13
 218 44 218 44 276 37 c 1,14,-1
 271 0 l 1,15,-1
 7 0 l 1,0,-1
295 847 m 1,16,17
 310 863 310 863 327 863 c 128,-1,18
 344 863 344 863 354.5 853.5 c 128,-1,19
 365 844 365 844 365 825.5 c 128,-1,20
 365 807 365 807 342 790 c 2,21,-1
 220 706 l 1,22,-1
 198 731 l 1,23,-1
 295 847 l 1,16,17
EndSplineSet
EndChar

StartChar: Icircumflex
Encoding: 206 206 144
Width: 320
GlyphClass: 2
Flags: W
LayerCount: 2
Fore
SplineSet
7 0 m 1,0,-1
 12 37 l 1,1,2
 66 44 66 44 98 63 c 1,3,-1
 184 604 l 1,4,5
 151 624 151 624 98 630 c 1,6,-1
 103 667 l 1,7,-1
 362 667 l 1,8,-1
 357 630 l 1,9,10
 306 624 306 624 272 604 c 1,11,-1
 186 63 l 1,12,13
 218 44 218 44 276 37 c 1,14,-1
 271 0 l 1,15,-1
 7 0 l 1,0,-1
266 853 m 128,-1,17
 283 853 283 853 295 837 c 2,18,-1
 371 730 l 1,19,-1
 345 706 l 1,20,-1
 257 781 l 1,21,-1
 145 706 l 1,22,-1
 124 730 l 1,23,-1
 233 837 l 2,24,16
 249 853 249 853 266 853 c 128,-1,17
EndSplineSet
EndChar

StartChar: Idieresis
Encoding: 207 207 145
Width: 320
GlyphClass: 2
Flags: W
LayerCount: 2
Fore
SplineSet
7 0 m 1,0,-1
 12 37 l 1,1,2
 66 44 66 44 98 63 c 1,3,-1
 184 604 l 1,4,5
 151 624 151 624 98 630 c 1,6,-1
 103 667 l 1,7,-1
 362 667 l 1,8,-1
 357 630 l 1,9,10
 306 624 306 624 272 604 c 1,11,-1
 186 63 l 1,12,13
 218 44 218 44 276 37 c 1,14,-1
 271 0 l 1,15,-1
 7 0 l 1,0,-1
162 728 m 0,16,17
 120 728 120 728 120 768 c 0,18,19
 120 799 120 799 134.5 816 c 128,-1,20
 149 833 149 833 171.5 833 c 128,-1,21
 194 833 194 833 205 822 c 128,-1,22
 216 811 216 811 216 786.5 c 128,-1,23
 216 762 216 762 201.5 745 c 128,-1,24
 187 728 187 728 162 728 c 0,16,17
329 728 m 0,25,26
 287 728 287 728 287 768 c 0,27,28
 287 799 287 799 301.5 816 c 128,-1,29
 316 833 316 833 338.5 833 c 128,-1,30
 361 833 361 833 372 822 c 128,-1,31
 383 811 383 811 383 786.5 c 128,-1,32
 383 762 383 762 368.5 745 c 128,-1,33
 354 728 354 728 329 728 c 0,25,26
EndSplineSet
EndChar

StartChar: Eth
Encoding: 208 208 146
Width: 649
GlyphClass: 2
Flags: W
LayerCount: 2
Fore
SplineSet
78 304 m 1,0,-1
 85 348 l 1,1,-1
 362 348 l 1,2,-1
 355 304 l 1,3,-1
 78 304 l 1,0,-1
333 667 m 2,4,5
 471 667 471 667 544 611 c 128,-1,6
 617 555 617 555 617 431 c 0,7,8
 617 226 617 226 516 113 c 128,-1,9
 415 0 415 0 228 0 c 2,10,-1
 21 0 l 1,11,-1
 26 37 l 1,12,13
 87 45 87 45 116 62 c 1,14,-1
 202 604 l 1,15,16
 170 623 170 623 117 630 c 1,17,-1
 122 667 l 1,18,-1
 333 667 l 2,4,5
339 617 m 2,19,-1
 292 617 l 1,20,-1
 208 90 l 2,21,22
 207 86 207 86 207 74 c 0,23,24
 207 49 207 49 268.5 49 c 128,-1,25
 330 49 330 49 381.5 86 c 128,-1,26
 433 123 433 123 462 183 c 0,27,28
 519 304 519 304 519 441 c 0,29,30
 519 538 519 538 472.5 577.5 c 128,-1,31
 426 617 426 617 339 617 c 2,19,-1
EndSplineSet
EndChar

StartChar: Ntilde
Encoding: 209 209 147
Width: 671
GlyphClass: 2
Flags: W
LayerCount: 2
Fore
SplineSet
251 667 m 1,0,-1
 480 193 l 1,1,-1
 545 604 l 1,2,3
 514 623 514 623 460 630 c 1,4,-1
 464 667 l 1,5,-1
 700 667 l 1,6,-1
 695 630 l 1,7,8
 644 624 644 624 610 604 c 1,9,-1
 514 0 l 1,10,-1
 473 0 l 1,11,-1
 226 510 l 1,12,-1
 154 63 l 1,13,14
 188 44 188 44 245 37 c 1,15,-1
 241 0 l 1,16,-1
 0 0 l 1,17,-1
 6 37 l 1,18,19
 58 43 58 43 90 62 c 1,20,-1
 177 604 l 1,21,22
 145 623 145 623 92 630 c 1,23,-1
 97 667 l 1,24,-1
 251 667 l 1,0,-1
300.5 804.5 m 128,-1,26
 330 830 330 830 358 830 c 128,-1,27
 386 830 386 830 417.5 812 c 128,-1,28
 449 794 449 794 471.5 794 c 128,-1,29
 494 794 494 794 537 833 c 1,30,31
 553 827 553 827 567 813 c 1,32,33
 550 785 550 785 520.5 759 c 128,-1,34
 491 733 491 733 463 733 c 128,-1,35
 435 733 435 733 403 751 c 128,-1,36
 371 769 371 769 348 769 c 128,-1,37
 325 769 325 769 284 732 c 1,38,39
 269 736 269 736 255 752 c 1,40,25
 271 779 271 779 300.5 804.5 c 128,-1,26
EndSplineSet
EndChar

StartChar: Ograve
Encoding: 210 210 148
Width: 622
GlyphClass: 2
Flags: W
LayerCount: 2
Fore
SplineSet
274 40 m 0,0,1
 375 40 375 40 441.5 152.5 c 128,-1,2
 508 265 508 265 508 446 c 0,3,4
 508 536 508 536 481 581.5 c 128,-1,5
 454 627 454 627 394 627 c 0,6,7
 292 627 292 627 226 513.5 c 128,-1,8
 160 400 160 400 160 220 c 128,-1,9
 160 40 160 40 274 40 c 0,0,1
387 675 m 0,10,11
 501 675 501 675 553.5 614.5 c 128,-1,12
 606 554 606 554 606 435.5 c 128,-1,13
 606 317 606 317 572 219.5 c 128,-1,14
 538 122 538 122 462.5 57.5 c 128,-1,15
 387 -7 387 -7 277 -7 c 128,-1,16
 167 -7 167 -7 114 53.5 c 128,-1,17
 61 114 61 114 61 234 c 0,18,19
 61 375 61 375 112 486 c 0,20,21
 167 605 167 605 268 650 c 0,22,23
 322 675 322 675 387 675 c 0,10,11
339 789 m 2,24,25
 320 806 320 806 320 822 c 128,-1,26
 320 838 320 838 333 850.5 c 128,-1,27
 346 863 346 863 363.5 863 c 128,-1,28
 381 863 381 863 391 846 c 2,29,-1
 456 730 l 1,30,-1
 430 706 l 1,31,-1
 339 789 l 2,24,25
EndSplineSet
EndChar

StartChar: Oacute
Encoding: 211 211 149
Width: 622
GlyphClass: 2
Flags: W
LayerCount: 2
Fore
SplineSet
274 40 m 0,0,1
 375 40 375 40 441.5 152.5 c 128,-1,2
 508 265 508 265 508 446 c 0,3,4
 508 536 508 536 481 581.5 c 128,-1,5
 454 627 454 627 394 627 c 0,6,7
 292 627 292 627 226 513.5 c 128,-1,8
 160 400 160 400 160 220 c 128,-1,9
 160 40 160 40 274 40 c 0,0,1
387 675 m 0,10,11
 501 675 501 675 553.5 614.5 c 128,-1,12
 606 554 606 554 606 435.5 c 128,-1,13
 606 317 606 317 572 219.5 c 128,-1,14
 538 122 538 122 462.5 57.5 c 128,-1,15
 387 -7 387 -7 277 -7 c 128,-1,16
 167 -7 167 -7 114 53.5 c 128,-1,17
 61 114 61 114 61 234 c 0,18,19
 61 375 61 375 112 486 c 0,20,21
 167 605 167 605 268 650 c 0,22,23
 322 675 322 675 387 675 c 0,10,11
457 847 m 1,24,25
 472 863 472 863 489 863 c 128,-1,26
 506 863 506 863 516.5 853.5 c 128,-1,27
 527 844 527 844 527 825.5 c 128,-1,28
 527 807 527 807 504 790 c 2,29,-1
 382 706 l 1,30,-1
 360 731 l 1,31,-1
 457 847 l 1,24,25
EndSplineSet
EndChar

StartChar: Ocircumflex
Encoding: 212 212 150
Width: 622
GlyphClass: 2
Flags: W
LayerCount: 2
Fore
SplineSet
274 40 m 0,0,1
 375 40 375 40 441.5 152.5 c 128,-1,2
 508 265 508 265 508 446 c 0,3,4
 508 536 508 536 481 581.5 c 128,-1,5
 454 627 454 627 394 627 c 0,6,7
 292 627 292 627 226 513.5 c 128,-1,8
 160 400 160 400 160 220 c 128,-1,9
 160 40 160 40 274 40 c 0,0,1
387 675 m 0,10,11
 501 675 501 675 553.5 614.5 c 128,-1,12
 606 554 606 554 606 435.5 c 128,-1,13
 606 317 606 317 572 219.5 c 128,-1,14
 538 122 538 122 462.5 57.5 c 128,-1,15
 387 -7 387 -7 277 -7 c 128,-1,16
 167 -7 167 -7 114 53.5 c 128,-1,17
 61 114 61 114 61 234 c 0,18,19
 61 375 61 375 112 486 c 0,20,21
 167 605 167 605 268 650 c 0,22,23
 322 675 322 675 387 675 c 0,10,11
428 853 m 128,-1,25
 445 853 445 853 457 837 c 2,26,-1
 533 730 l 1,27,-1
 507 706 l 1,28,-1
 419 781 l 1,29,-1
 307 706 l 1,30,-1
 286 730 l 1,31,-1
 395 837 l 2,32,24
 411 853 411 853 428 853 c 128,-1,25
EndSplineSet
EndChar

StartChar: Otilde
Encoding: 213 213 151
Width: 622
GlyphClass: 2
Flags: W
LayerCount: 2
Fore
SplineSet
274 40 m 0,0,1
 375 40 375 40 441.5 152.5 c 128,-1,2
 508 265 508 265 508 446 c 0,3,4
 508 536 508 536 481 581.5 c 128,-1,5
 454 627 454 627 394 627 c 0,6,7
 292 627 292 627 226 513.5 c 128,-1,8
 160 400 160 400 160 220 c 128,-1,9
 160 40 160 40 274 40 c 0,0,1
387 675 m 0,10,11
 501 675 501 675 553.5 614.5 c 128,-1,12
 606 554 606 554 606 435.5 c 128,-1,13
 606 317 606 317 572 219.5 c 128,-1,14
 538 122 538 122 462.5 57.5 c 128,-1,15
 387 -7 387 -7 277 -7 c 128,-1,16
 167 -7 167 -7 114 53.5 c 128,-1,17
 61 114 61 114 61 234 c 0,18,19
 61 375 61 375 112 486 c 0,20,21
 167 605 167 605 268 650 c 0,22,23
 322 675 322 675 387 675 c 0,10,11
311.5 804.5 m 128,-1,25
 341 830 341 830 369 830 c 128,-1,26
 397 830 397 830 428.5 812 c 128,-1,27
 460 794 460 794 482.5 794 c 128,-1,28
 505 794 505 794 548 833 c 1,29,30
 564 827 564 827 578 813 c 1,31,32
 561 785 561 785 531.5 759 c 128,-1,33
 502 733 502 733 474 733 c 128,-1,34
 446 733 446 733 414 751 c 128,-1,35
 382 769 382 769 359 769 c 128,-1,36
 336 769 336 769 295 732 c 1,37,38
 280 736 280 736 266 752 c 1,39,24
 282 779 282 779 311.5 804.5 c 128,-1,25
EndSplineSet
EndChar

StartChar: Odieresis
Encoding: 214 214 152
Width: 622
GlyphClass: 2
Flags: W
LayerCount: 2
Fore
SplineSet
274 40 m 0,0,1
 375 40 375 40 441.5 152.5 c 128,-1,2
 508 265 508 265 508 446 c 0,3,4
 508 536 508 536 481 581.5 c 128,-1,5
 454 627 454 627 394 627 c 0,6,7
 292 627 292 627 226 513.5 c 128,-1,8
 160 400 160 400 160 220 c 128,-1,9
 160 40 160 40 274 40 c 0,0,1
387 675 m 0,10,11
 501 675 501 675 553.5 614.5 c 128,-1,12
 606 554 606 554 606 435.5 c 128,-1,13
 606 317 606 317 572 219.5 c 128,-1,14
 538 122 538 122 462.5 57.5 c 128,-1,15
 387 -7 387 -7 277 -7 c 128,-1,16
 167 -7 167 -7 114 53.5 c 128,-1,17
 61 114 61 114 61 234 c 0,18,19
 61 375 61 375 112 486 c 0,20,21
 167 605 167 605 268 650 c 0,22,23
 322 675 322 675 387 675 c 0,10,11
329 728 m 0,24,25
 287 728 287 728 287 768 c 0,26,27
 287 799 287 799 301.5 816 c 128,-1,28
 316 833 316 833 338.5 833 c 128,-1,29
 361 833 361 833 372 822 c 128,-1,30
 383 811 383 811 383 786.5 c 128,-1,31
 383 762 383 762 368.5 745 c 128,-1,32
 354 728 354 728 329 728 c 0,24,25
496 728 m 0,33,34
 454 728 454 728 454 768 c 0,35,36
 454 799 454 799 468.5 816 c 128,-1,37
 483 833 483 833 505.5 833 c 128,-1,38
 528 833 528 833 539 822 c 128,-1,39
 550 811 550 811 550 786.5 c 128,-1,40
 550 762 550 762 535.5 745 c 128,-1,41
 521 728 521 728 496 728 c 0,33,34
EndSplineSet
EndChar

StartChar: multiply
Encoding: 215 215 153
Width: 528
GlyphClass: 2
Flags: W
LayerCount: 2
Fore
SplineSet
83 92 m 1,0,-1
 49 134 l 1,1,-1
 227 286 l 1,2,-1
 99 436 l 1,3,-1
 147 478 l 1,4,-1
 274 328 l 1,5,-1
 450 478 l 1,6,-1
 484 436 l 1,7,-1
 311 286 l 1,8,-1
 441 134 l 1,9,-1
 393 92 l 1,10,-1
 261 244 l 1,11,-1
 83 92 l 1,0,-1
EndSplineSet
EndChar

StartChar: Oslash
Encoding: 216 216 154
Width: 622
GlyphClass: 2
Flags: W
LayerCount: 2
Fore
SplineSet
387 675 m 0,0,1
 485 675 485 675 539 629 c 1,2,-1
 582 684 l 1,3,-1
 592 685 l 1,4,5
 608 676 608 676 619 661 c 1,6,-1
 567 595 l 1,7,8
 606 535 606 535 606 426 c 128,-1,9
 606 317 606 317 572 219.5 c 128,-1,10
 538 122 538 122 462.5 57.5 c 128,-1,11
 387 -7 387 -7 284.5 -7 c 128,-1,12
 182 -7 182 -7 128 38 c 1,13,-1
 77 -27 l 1,14,-1
 67 -28 l 1,15,16
 51 -19 51 -19 40 -4 c 1,17,-1
 99 71 l 1,18,19
 61 129 61 129 61 234 c 0,20,21
 61 375 61 375 112 486 c 0,22,23
 167 605 167 605 268 650 c 0,24,25
 322 675 322 675 387 675 c 0,0,1
274 40 m 0,26,27
 375 40 375 40 441.5 152.5 c 128,-1,28
 508 265 508 265 508 446 c 0,29,30
 508 481 508 481 503 514 c 1,31,-1
 178 101 l 1,32,33
 204 40 204 40 274 40 c 0,26,27
394 627 m 0,34,35
 294 627 294 627 229 520 c 128,-1,36
 164 413 164 413 160 237 c 1,37,38
 160 182 160 182 164 153 c 1,39,-1
 489 566 l 1,40,41
 463 627 463 627 394 627 c 0,34,35
EndSplineSet
EndChar

StartChar: Ugrave
Encoding: 217 217 155
Width: 632
GlyphClass: 2
Flags: W
LayerCount: 2
Fore
SplineSet
447 50 m 128,-1,1
 384 -7 384 -7 281.5 -7 c 128,-1,2
 179 -7 179 -7 130.5 31 c 128,-1,3
 82 69 82 69 82 150 c 0,4,5
 82 172 82 172 87 207 c 2,6,-1
 151 604 l 1,7,8
 120 623 120 623 65 630 c 1,9,-1
 70 667 l 1,10,-1
 330 667 l 1,11,-1
 324 630 l 1,12,13
 275 624 275 624 241 605 c 1,14,-1
 177 207 l 2,15,16
 173 182 173 182 173 157 c 0,17,18
 173 98 173 98 202.5 71.5 c 128,-1,19
 232 45 232 45 297 45 c 128,-1,20
 362 45 362 45 406 88 c 128,-1,21
 450 131 450 131 463 212 c 2,22,-1
 526 604 l 1,23,24
 493 624 493 624 440 630 c 1,25,-1
 445 667 l 1,26,-1
 679 667 l 1,27,-1
 673 630 l 1,28,29
 624 624 624 624 590 605 c 1,30,-1
 527 212 l 2,31,0
 510 107 510 107 447 50 c 128,-1,1
327 789 m 2,32,33
 308 806 308 806 308 822 c 128,-1,34
 308 838 308 838 321 850.5 c 128,-1,35
 334 863 334 863 351.5 863 c 128,-1,36
 369 863 369 863 379 846 c 2,37,-1
 444 730 l 1,38,-1
 418 706 l 1,39,-1
 327 789 l 2,32,33
EndSplineSet
EndChar

StartChar: Uacute
Encoding: 218 218 156
Width: 632
GlyphClass: 2
Flags: W
LayerCount: 2
Fore
SplineSet
447 50 m 128,-1,1
 384 -7 384 -7 281.5 -7 c 128,-1,2
 179 -7 179 -7 130.5 31 c 128,-1,3
 82 69 82 69 82 150 c 0,4,5
 82 172 82 172 87 207 c 2,6,-1
 151 604 l 1,7,8
 120 623 120 623 65 630 c 1,9,-1
 70 667 l 1,10,-1
 330 667 l 1,11,-1
 324 630 l 1,12,13
 275 624 275 624 241 605 c 1,14,-1
 177 207 l 2,15,16
 173 182 173 182 173 157 c 0,17,18
 173 98 173 98 202.5 71.5 c 128,-1,19
 232 45 232 45 297 45 c 128,-1,20
 362 45 362 45 406 88 c 128,-1,21
 450 131 450 131 463 212 c 2,22,-1
 526 604 l 1,23,24
 493 624 493 624 440 630 c 1,25,-1
 445 667 l 1,26,-1
 679 667 l 1,27,-1
 673 630 l 1,28,29
 624 624 624 624 590 605 c 1,30,-1
 527 212 l 2,31,0
 510 107 510 107 447 50 c 128,-1,1
445 847 m 1,32,33
 460 863 460 863 477 863 c 128,-1,34
 494 863 494 863 504.5 853.5 c 128,-1,35
 515 844 515 844 515 825.5 c 128,-1,36
 515 807 515 807 492 790 c 2,37,-1
 370 706 l 1,38,-1
 348 731 l 1,39,-1
 445 847 l 1,32,33
EndSplineSet
EndChar

StartChar: Ucircumflex
Encoding: 219 219 157
Width: 632
GlyphClass: 2
Flags: W
LayerCount: 2
Fore
SplineSet
447 50 m 128,-1,1
 384 -7 384 -7 281.5 -7 c 128,-1,2
 179 -7 179 -7 130.5 31 c 128,-1,3
 82 69 82 69 82 150 c 0,4,5
 82 172 82 172 87 207 c 2,6,-1
 151 604 l 1,7,8
 120 623 120 623 65 630 c 1,9,-1
 70 667 l 1,10,-1
 330 667 l 1,11,-1
 324 630 l 1,12,13
 275 624 275 624 241 605 c 1,14,-1
 177 207 l 2,15,16
 173 182 173 182 173 157 c 0,17,18
 173 98 173 98 202.5 71.5 c 128,-1,19
 232 45 232 45 297 45 c 128,-1,20
 362 45 362 45 406 88 c 128,-1,21
 450 131 450 131 463 212 c 2,22,-1
 526 604 l 1,23,24
 493 624 493 624 440 630 c 1,25,-1
 445 667 l 1,26,-1
 679 667 l 1,27,-1
 673 630 l 1,28,29
 624 624 624 624 590 605 c 1,30,-1
 527 212 l 2,31,0
 510 107 510 107 447 50 c 128,-1,1
416 853 m 128,-1,33
 433 853 433 853 445 837 c 2,34,-1
 521 730 l 1,35,-1
 495 706 l 1,36,-1
 407 781 l 1,37,-1
 295 706 l 1,38,-1
 274 730 l 1,39,-1
 383 837 l 2,40,32
 399 853 399 853 416 853 c 128,-1,33
EndSplineSet
EndChar

StartChar: Udieresis
Encoding: 220 220 158
Width: 632
GlyphClass: 2
Flags: W
LayerCount: 2
Fore
SplineSet
447 50 m 128,-1,1
 384 -7 384 -7 281.5 -7 c 128,-1,2
 179 -7 179 -7 130.5 31 c 128,-1,3
 82 69 82 69 82 150 c 0,4,5
 82 172 82 172 87 207 c 2,6,-1
 151 604 l 1,7,8
 120 623 120 623 65 630 c 1,9,-1
 70 667 l 1,10,-1
 330 667 l 1,11,-1
 324 630 l 1,12,13
 275 624 275 624 241 605 c 1,14,-1
 177 207 l 2,15,16
 173 182 173 182 173 157 c 0,17,18
 173 98 173 98 202.5 71.5 c 128,-1,19
 232 45 232 45 297 45 c 128,-1,20
 362 45 362 45 406 88 c 128,-1,21
 450 131 450 131 463 212 c 2,22,-1
 526 604 l 1,23,24
 493 624 493 624 440 630 c 1,25,-1
 445 667 l 1,26,-1
 679 667 l 1,27,-1
 673 630 l 1,28,29
 624 624 624 624 590 605 c 1,30,-1
 527 212 l 2,31,0
 510 107 510 107 447 50 c 128,-1,1
317 728 m 0,32,33
 275 728 275 728 275 768 c 0,34,35
 275 799 275 799 289.5 816 c 128,-1,36
 304 833 304 833 326.5 833 c 128,-1,37
 349 833 349 833 360 822 c 128,-1,38
 371 811 371 811 371 786.5 c 128,-1,39
 371 762 371 762 356.5 745 c 128,-1,40
 342 728 342 728 317 728 c 0,32,33
484 728 m 0,41,42
 442 728 442 728 442 768 c 0,43,44
 442 799 442 799 456.5 816 c 128,-1,45
 471 833 471 833 493.5 833 c 128,-1,46
 516 833 516 833 527 822 c 128,-1,47
 538 811 538 811 538 786.5 c 128,-1,48
 538 762 538 762 523.5 745 c 128,-1,49
 509 728 509 728 484 728 c 0,41,42
EndSplineSet
EndChar

StartChar: Yacute
Encoding: 221 221 159
Width: 548
GlyphClass: 2
Flags: W
LayerCount: 2
Fore
SplineSet
96 0 m 1,0,-1
 101 37 l 1,1,2
 167 45 167 45 196 63 c 1,3,-1
 228 272 l 1,4,-1
 118 611 l 1,5,6
 87 626 87 626 56 630 c 1,7,-1
 61 667 l 1,8,-1
 304 667 l 1,9,-1
 299 630 l 1,10,11
 249 623 249 623 219 607 c 1,12,-1
 297 347 l 1,13,-1
 453 604 l 1,14,15
 421 623 421 623 368 630 c 1,16,-1
 373 667 l 1,17,-1
 606 667 l 1,18,-1
 601 630 l 1,19,20
 550 623 550 623 520 606 c 1,21,-1
 319 285 l 1,22,-1
 284 63 l 1,23,24
 314 46 314 46 384 37 c 1,25,-1
 380 0 l 1,26,-1
 96 0 l 1,0,-1
403 847 m 1,27,28
 418 863 418 863 435 863 c 128,-1,29
 452 863 452 863 462.5 853.5 c 128,-1,30
 473 844 473 844 473 825.5 c 128,-1,31
 473 807 473 807 450 790 c 2,32,-1
 328 706 l 1,33,-1
 306 731 l 1,34,-1
 403 847 l 1,27,28
EndSplineSet
EndChar

StartChar: Thorn
Encoding: 222 222 160
Width: 560
GlyphClass: 2
Flags: W
LayerCount: 2
Fore
SplineSet
346 531 m 2,0,1
 539 531 539 531 539 390 c 0,2,3
 539 263 539 263 454 212 c 1,4,5
 376 167 376 167 244 167 c 2,6,-1
 202 167 l 1,7,-1
 186 63 l 1,8,9
 218 44 218 44 276 37 c 1,10,-1
 271 0 l 1,11,-1
 7 0 l 1,12,-1
 12 37 l 1,13,14
 65 44 65 44 97 63 c 1,15,-1
 184 604 l 1,16,17
 151 624 151 624 98 630 c 1,18,-1
 103 667 l 1,19,-1
 362 667 l 1,20,-1
 357 630 l 1,21,22
 306 624 306 624 272 604 c 1,23,-1
 260 531 l 1,24,-1
 346 531 l 2,0,1
340 489 m 0,25,26
 328 489 328 489 252 481 c 1,27,-1
 209 212 l 1,28,-1
 251 212 l 2,29,30
 342 212 342 212 395.5 255.5 c 128,-1,31
 449 299 449 299 449 388 c 0,32,33
 449 489 449 489 340 489 c 0,25,26
EndSplineSet
EndChar

StartChar: germandbls
Encoding: 223 223 161
Width: 566
GlyphClass: 2
Flags: W
LayerCount: 2
Fore
SplineSet
31 -207.5 m 128,-1,1
 3 -219 3 -219 -36 -219 c 128,-1,2
 -75 -219 -75 -219 -102.5 -198 c 128,-1,3
 -130 -177 -130 -177 -130 -143.5 c 128,-1,4
 -130 -110 -130 -110 -112.5 -93 c 128,-1,5
 -95 -76 -95 -76 -74 -76 c 0,6,7
 -31 -76 -31 -76 -23 -112 c 1,8,9
 -40 -121 -40 -121 -40 -143 c 0,10,11
 -40 -171 -40 -171 -13 -171 c 0,12,13
 30 -171 30 -171 43 -119 c 0,14,15
 56 -71 56 -71 61 -16 c 128,-1,16
 66 39 66 39 69 62 c 2,17,-1
 135 515 l 2,18,19
 147 599 147 599 202 642.5 c 128,-1,20
 257 686 257 686 338.5 686 c 128,-1,21
 420 686 420 686 465 655.5 c 128,-1,22
 510 625 510 625 510 565 c 128,-1,23
 510 505 510 505 466 453.5 c 128,-1,24
 422 402 422 402 346 371 c 1,25,26
 425 360 425 360 471.5 311.5 c 128,-1,27
 518 263 518 263 518 197 c 0,28,29
 518 111 518 111 461.5 53 c 128,-1,30
 405 -5 405 -5 320 -5 c 0,31,32
 200 -5 200 -5 200 67 c 0,33,34
 200 98 200 98 217.5 116 c 128,-1,35
 235 134 235 134 258 134 c 128,-1,36
 281 134 281 134 298 124 c 1,37,38
 283 97 283 97 283 77 c 0,39,40
 283 38 283 38 327 38 c 128,-1,41
 371 38 371 38 400.5 83.5 c 128,-1,42
 430 129 430 129 430 196 c 128,-1,43
 430 263 430 263 388.5 300.5 c 128,-1,44
 347 338 347 338 266 338 c 1,45,-1
 274 391 l 1,46,47
 332 400 332 400 377 455 c 128,-1,48
 422 510 422 510 422 564 c 0,49,50
 422 647 422 647 339 647 c 0,51,52
 272 647 272 647 246 592 c 1,53,54
 224 548 224 548 213 470 c 2,55,-1
 154 59 l 2,56,57
 147 5 147 5 134.5 -48 c 128,-1,58
 122 -101 122 -101 109.5 -124 c 128,-1,59
 97 -147 97 -147 78 -171.5 c 128,-1,0
 59 -196 59 -196 31 -207.5 c 128,-1,1
EndSplineSet
EndChar

StartChar: agrave
Encoding: 224 224 162
Width: 526
GlyphClass: 2
Flags: W
LayerCount: 2
Fore
SplineSet
397 99 m 1,0,-1
 394 77 l 1,1,2
 394 62 394 62 414 62 c 128,-1,3
 434 62 434 62 466 81 c 1,4,-1
 476 49 l 1,5,6
 411 -7 411 -7 362 -7 c 0,7,8
 328 -7 328 -7 317 6 c 128,-1,9
 306 19 306 19 306 37.5 c 128,-1,10
 306 56 306 56 314 98 c 1,11,12
 243 -7 243 -7 169.5 -7 c 128,-1,13
 96 -7 96 -7 68 39.5 c 128,-1,14
 40 86 40 86 40 168 c 128,-1,15
 40 250 40 250 66 318.5 c 128,-1,16
 92 387 92 387 145 432.5 c 128,-1,17
 198 478 198 478 259 478 c 128,-1,18
 320 478 320 478 376 452 c 1,19,20
 398 476 398 476 427 476 c 1,21,-1
 458 474 l 1,22,-1
 397 99 l 1,0,-1
193 45 m 0,23,24
 235 45 235 45 280 117.5 c 128,-1,25
 325 190 325 190 343 301 c 2,26,-1
 360 406 l 1,27,28
 323 430 323 430 281 430 c 128,-1,29
 239 430 239 430 201.5 385.5 c 128,-1,30
 164 341 164 341 146.5 283 c 128,-1,31
 129 225 129 225 129 171 c 0,32,33
 129 45 129 45 193 45 c 0,23,24
231 589 m 2,34,35
 212 606 212 606 212 622 c 128,-1,36
 212 638 212 638 225 650.5 c 128,-1,37
 238 663 238 663 255.5 663 c 128,-1,38
 273 663 273 663 283 646 c 2,39,-1
 348 530 l 1,40,-1
 322 506 l 1,41,-1
 231 589 l 2,34,35
EndSplineSet
EndChar

StartChar: aacute
Encoding: 225 225 163
Width: 526
GlyphClass: 2
Flags: W
LayerCount: 2
Fore
SplineSet
397 99 m 1,0,-1
 394 77 l 1,1,2
 394 62 394 62 414 62 c 128,-1,3
 434 62 434 62 466 81 c 1,4,-1
 476 49 l 1,5,6
 411 -7 411 -7 362 -7 c 0,7,8
 328 -7 328 -7 317 6 c 128,-1,9
 306 19 306 19 306 37.5 c 128,-1,10
 306 56 306 56 314 98 c 1,11,12
 243 -7 243 -7 169.5 -7 c 128,-1,13
 96 -7 96 -7 68 39.5 c 128,-1,14
 40 86 40 86 40 168 c 128,-1,15
 40 250 40 250 66 318.5 c 128,-1,16
 92 387 92 387 145 432.5 c 128,-1,17
 198 478 198 478 259 478 c 128,-1,18
 320 478 320 478 376 452 c 1,19,20
 398 476 398 476 427 476 c 1,21,-1
 458 474 l 1,22,-1
 397 99 l 1,0,-1
193 45 m 0,23,24
 235 45 235 45 280 117.5 c 128,-1,25
 325 190 325 190 343 301 c 2,26,-1
 360 406 l 1,27,28
 323 430 323 430 281 430 c 128,-1,29
 239 430 239 430 201.5 385.5 c 128,-1,30
 164 341 164 341 146.5 283 c 128,-1,31
 129 225 129 225 129 171 c 0,32,33
 129 45 129 45 193 45 c 0,23,24
349 647 m 1,34,35
 364 663 364 663 381 663 c 128,-1,36
 398 663 398 663 408.5 653.5 c 128,-1,37
 419 644 419 644 419 625.5 c 128,-1,38
 419 607 419 607 396 590 c 2,39,-1
 274 506 l 1,40,-1
 252 531 l 1,41,-1
 349 647 l 1,34,35
EndSplineSet
EndChar

StartChar: acircumflex
Encoding: 226 226 164
Width: 526
GlyphClass: 2
Flags: W
LayerCount: 2
Fore
SplineSet
397 99 m 1,0,-1
 394 77 l 1,1,2
 394 62 394 62 414 62 c 128,-1,3
 434 62 434 62 466 81 c 1,4,-1
 476 49 l 1,5,6
 411 -7 411 -7 362 -7 c 0,7,8
 328 -7 328 -7 317 6 c 128,-1,9
 306 19 306 19 306 37.5 c 128,-1,10
 306 56 306 56 314 98 c 1,11,12
 243 -7 243 -7 169.5 -7 c 128,-1,13
 96 -7 96 -7 68 39.5 c 128,-1,14
 40 86 40 86 40 168 c 128,-1,15
 40 250 40 250 66 318.5 c 128,-1,16
 92 387 92 387 145 432.5 c 128,-1,17
 198 478 198 478 259 478 c 128,-1,18
 320 478 320 478 376 452 c 1,19,20
 398 476 398 476 427 476 c 1,21,-1
 458 474 l 1,22,-1
 397 99 l 1,0,-1
193 45 m 0,23,24
 235 45 235 45 280 117.5 c 128,-1,25
 325 190 325 190 343 301 c 2,26,-1
 360 406 l 1,27,28
 323 430 323 430 281 430 c 128,-1,29
 239 430 239 430 201.5 385.5 c 128,-1,30
 164 341 164 341 146.5 283 c 128,-1,31
 129 225 129 225 129 171 c 0,32,33
 129 45 129 45 193 45 c 0,23,24
320 653 m 128,-1,35
 337 653 337 653 349 637 c 2,36,-1
 425 530 l 1,37,-1
 399 506 l 1,38,-1
 311 581 l 1,39,-1
 199 506 l 1,40,-1
 178 530 l 1,41,-1
 287 637 l 2,42,34
 303 653 303 653 320 653 c 128,-1,35
EndSplineSet
EndChar

StartChar: atilde
Encoding: 227 227 165
Width: 526
GlyphClass: 2
Flags: W
LayerCount: 2
Fore
SplineSet
397 99 m 1,0,-1
 394 77 l 1,1,2
 394 62 394 62 414 62 c 128,-1,3
 434 62 434 62 466 81 c 1,4,-1
 476 49 l 1,5,6
 411 -7 411 -7 362 -7 c 0,7,8
 328 -7 328 -7 317 6 c 128,-1,9
 306 19 306 19 306 37.5 c 128,-1,10
 306 56 306 56 314 98 c 1,11,12
 243 -7 243 -7 169.5 -7 c 128,-1,13
 96 -7 96 -7 68 39.5 c 128,-1,14
 40 86 40 86 40 168 c 128,-1,15
 40 250 40 250 66 318.5 c 128,-1,16
 92 387 92 387 145 432.5 c 128,-1,17
 198 478 198 478 259 478 c 128,-1,18
 320 478 320 478 376 452 c 1,19,20
 398 476 398 476 427 476 c 1,21,-1
 458 474 l 1,22,-1
 397 99 l 1,0,-1
193 45 m 0,23,24
 235 45 235 45 280 117.5 c 128,-1,25
 325 190 325 190 343 301 c 2,26,-1
 360 406 l 1,27,28
 323 430 323 430 281 430 c 128,-1,29
 239 430 239 430 201.5 385.5 c 128,-1,30
 164 341 164 341 146.5 283 c 128,-1,31
 129 225 129 225 129 171 c 0,32,33
 129 45 129 45 193 45 c 0,23,24
203.5 604.5 m 128,-1,35
 233 630 233 630 261 630 c 128,-1,36
 289 630 289 630 320.5 612 c 128,-1,37
 352 594 352 594 374.5 594 c 128,-1,38
 397 594 397 594 440 633 c 1,39,40
 456 627 456 627 470 613 c 1,41,42
 453 585 453 585 423.5 559 c 128,-1,43
 394 533 394 533 366 533 c 128,-1,44
 338 533 338 533 306 551 c 128,-1,45
 274 569 274 569 251 569 c 128,-1,46
 228 569 228 569 187 532 c 1,47,48
 172 536 172 536 158 552 c 1,49,34
 174 579 174 579 203.5 604.5 c 128,-1,35
EndSplineSet
EndChar

StartChar: adieresis
Encoding: 228 228 166
Width: 526
GlyphClass: 2
Flags: W
LayerCount: 2
Fore
SplineSet
397 99 m 1,0,-1
 394 77 l 1,1,2
 394 62 394 62 414 62 c 128,-1,3
 434 62 434 62 466 81 c 1,4,-1
 476 49 l 1,5,6
 411 -7 411 -7 362 -7 c 0,7,8
 328 -7 328 -7 317 6 c 128,-1,9
 306 19 306 19 306 37.5 c 128,-1,10
 306 56 306 56 314 98 c 1,11,12
 243 -7 243 -7 169.5 -7 c 128,-1,13
 96 -7 96 -7 68 39.5 c 128,-1,14
 40 86 40 86 40 168 c 128,-1,15
 40 250 40 250 66 318.5 c 128,-1,16
 92 387 92 387 145 432.5 c 128,-1,17
 198 478 198 478 259 478 c 128,-1,18
 320 478 320 478 376 452 c 1,19,20
 398 476 398 476 427 476 c 1,21,-1
 458 474 l 1,22,-1
 397 99 l 1,0,-1
193 45 m 0,23,24
 235 45 235 45 280 117.5 c 128,-1,25
 325 190 325 190 343 301 c 2,26,-1
 360 406 l 1,27,28
 323 430 323 430 281 430 c 128,-1,29
 239 430 239 430 201.5 385.5 c 128,-1,30
 164 341 164 341 146.5 283 c 128,-1,31
 129 225 129 225 129 171 c 0,32,33
 129 45 129 45 193 45 c 0,23,24
224 540 m 0,34,35
 182 540 182 540 182 580 c 0,36,37
 182 611 182 611 196.5 628 c 128,-1,38
 211 645 211 645 233.5 645 c 128,-1,39
 256 645 256 645 267 634 c 128,-1,40
 278 623 278 623 278 598.5 c 128,-1,41
 278 574 278 574 263.5 557 c 128,-1,42
 249 540 249 540 224 540 c 0,34,35
391 540 m 0,43,44
 349 540 349 540 349 580 c 0,45,46
 349 611 349 611 363.5 628 c 128,-1,47
 378 645 378 645 400.5 645 c 128,-1,48
 423 645 423 645 434 634 c 128,-1,49
 445 623 445 623 445 598.5 c 128,-1,50
 445 574 445 574 430.5 557 c 128,-1,51
 416 540 416 540 391 540 c 0,43,44
EndSplineSet
EndChar

StartChar: aring
Encoding: 229 229 167
Width: 526
GlyphClass: 2
Flags: W
LayerCount: 2
Fore
SplineSet
397 99 m 1,0,-1
 394 77 l 1,1,2
 394 62 394 62 414 62 c 128,-1,3
 434 62 434 62 466 81 c 1,4,-1
 476 49 l 1,5,6
 411 -7 411 -7 362 -7 c 0,7,8
 328 -7 328 -7 317 6 c 128,-1,9
 306 19 306 19 306 37.5 c 128,-1,10
 306 56 306 56 314 98 c 1,11,12
 243 -7 243 -7 169.5 -7 c 128,-1,13
 96 -7 96 -7 68 39.5 c 128,-1,14
 40 86 40 86 40 168 c 128,-1,15
 40 250 40 250 66 318.5 c 128,-1,16
 92 387 92 387 145 432.5 c 128,-1,17
 198 478 198 478 259 478 c 128,-1,18
 320 478 320 478 376 452 c 1,19,20
 398 476 398 476 427 476 c 1,21,-1
 458 474 l 1,22,-1
 397 99 l 1,0,-1
193 45 m 0,23,24
 235 45 235 45 280 117.5 c 128,-1,25
 325 190 325 190 343 301 c 2,26,-1
 360 406 l 1,27,28
 323 430 323 430 281 430 c 128,-1,29
 239 430 239 430 201.5 385.5 c 128,-1,30
 164 341 164 341 146.5 283 c 128,-1,31
 129 225 129 225 129 171 c 0,32,33
 129 45 129 45 193 45 c 0,23,24
368.5 533 m 128,-1,35
 340 505 340 505 301 505 c 128,-1,36
 262 505 262 505 243 523.5 c 128,-1,37
 224 542 224 542 224 578 c 128,-1,38
 224 614 224 614 253 642 c 128,-1,39
 282 670 282 670 319.5 670 c 128,-1,40
 357 670 357 670 377 651 c 128,-1,41
 397 632 397 632 397 596.5 c 128,-1,34
 397 561 397 561 368.5 533 c 128,-1,35
276.5 555 m 128,-1,43
 287 544 287 544 305.5 544 c 128,-1,44
 324 544 324 544 339.5 559 c 128,-1,45
 355 574 355 574 355 592 c 128,-1,46
 355 610 355 610 344.5 621 c 128,-1,47
 334 632 334 632 316 632 c 128,-1,48
 298 632 298 632 282 616 c 128,-1,49
 266 600 266 600 266 583 c 128,-1,42
 266 566 266 566 276.5 555 c 128,-1,43
EndSplineSet
EndChar

StartChar: ae
Encoding: 230 230 168
Width: 709
GlyphClass: 2
Flags: W
LayerCount: 2
Fore
SplineSet
259 476 m 0,0,1
 366 476 366 476 400 417 c 1,2,3
 462 476 462 476 551 476 c 0,4,5
 619 476 619 476 653.5 445 c 128,-1,6
 688 414 688 414 688 370 c 0,7,8
 688 304 688 304 607 257 c 128,-1,9
 526 210 526 210 404 210 c 2,10,-1
 397 210 l 1,11,12
 396 197 396 197 396 172 c 0,13,14
 396 108 396 108 420 76.5 c 128,-1,15
 444 45 444 45 485 45 c 0,16,17
 541 45 541 45 622 106 c 1,18,-1
 651 69 l 1,19,20
 620 38 620 38 570 15.5 c 128,-1,21
 520 -7 520 -7 465 -7 c 0,22,23
 367 -7 367 -7 327 64 c 1,24,25
 274 22 274 22 232.5 7.5 c 128,-1,26
 191 -7 191 -7 132 -7 c 0,27,28
 18 -7 18 -7 18 95 c 0,29,30
 18 162 18 162 75.5 205 c 128,-1,31
 133 248 133 248 231 256 c 2,32,-1
 314 262 l 1,33,-1
 326 340 l 2,34,35
 329 356 329 356 329 369 c 0,36,37
 329 436 329 436 252 436 c 0,38,39
 211 436 211 436 186.5 422.5 c 128,-1,40
 162 409 162 409 162 386 c 128,-1,41
 162 363 162 363 186 354 c 1,42,43
 184 332 184 332 164.5 318.5 c 128,-1,44
 145 305 145 305 123 305 c 128,-1,45
 101 305 101 305 86.5 317 c 128,-1,46
 72 329 72 329 72 352 c 0,47,48
 72 407 72 407 125 441.5 c 128,-1,49
 178 476 178 476 259 476 c 0,0,1
108 101 m 0,50,51
 108 45 108 45 164 45 c 0,52,53
 217 45 217 45 288 103 c 1,54,-1
 307 214 l 1,55,-1
 226 207 l 2,56,57
 177 202 177 202 142.5 174.5 c 128,-1,58
 108 147 108 147 108 101 c 0,50,51
544 430 m 0,59,60
 492 430 492 430 455 382.5 c 128,-1,61
 418 335 418 335 404 259 c 1,62,-1
 409 259 l 2,63,64
 495 259 495 259 547.5 291 c 128,-1,65
 600 323 600 323 600 372 c 0,66,67
 600 396 600 396 585.5 413 c 128,-1,68
 571 430 571 430 544 430 c 0,59,60
EndSplineSet
EndChar

StartChar: ccedilla
Encoding: 231 231 169
Width: 433
GlyphClass: 2
Flags: W
LayerCount: 2
Fore
SplineSet
210 -7 m 0,0,1
 39 -7 39 -7 39 162 c 0,2,3
 39 336 39 336 138 427 c 0,4,5
 192 476 192 476 259 476 c 128,-1,6
 326 476 326 476 368 449.5 c 128,-1,7
 410 423 410 423 410 374 c 0,8,9
 410 346 410 346 392 324 c 128,-1,10
 374 302 374 302 352 302 c 0,11,12
 308 302 308 302 304 338 c 1,13,14
 320 363 320 363 320 383 c 0,15,16
 320 431 320 431 277 431 c 0,17,18
 216 431 216 431 172 350 c 128,-1,19
 128 269 128 269 128 171 c 0,20,21
 128 116 128 116 151.5 80.5 c 128,-1,22
 175 45 175 45 222 45 c 0,23,24
 248 45 248 45 280.5 58.5 c 128,-1,25
 313 72 313 72 332 86 c 2,26,-1
 351 100 l 1,27,-1
 378 63 l 1,28,29
 353 38 353 38 302.5 15.5 c 128,-1,30
 252 -7 252 -7 210 -7 c 0,0,1
268 -108 m 0,31,32
 268 -148 268 -148 237 -176 c 128,-1,33
 206 -204 206 -204 162.5 -204 c 128,-1,34
 119 -204 119 -204 98.5 -187.5 c 128,-1,35
 78 -171 78 -171 78 -150 c 128,-1,36
 78 -129 78 -129 89.5 -114 c 128,-1,37
 101 -99 101 -99 114 -99 c 128,-1,38
 127 -99 127 -99 136 -103 c 1,39,40
 127 -125 127 -125 127 -137.5 c 128,-1,41
 127 -150 127 -150 138 -160.5 c 128,-1,42
 149 -171 149 -171 169 -171 c 128,-1,43
 189 -171 189 -171 203.5 -156 c 128,-1,44
 218 -141 218 -141 218 -114 c 0,45,46
 218 -84 218 -84 169 -76 c 1,47,-1
 154 -56 l 1,48,-1
 204 9 l 1,49,-1
 230 4 l 1,50,-1
 204 -46 l 1,51,52
 268 -59 268 -59 268 -108 c 0,31,32
EndSplineSet
EndChar

StartChar: egrave
Encoding: 232 232 170
Width: 457
GlyphClass: 2
Flags: W
LayerCount: 2
Fore
SplineSet
423 370 m 0,0,1
 423 296 423 296 340 245.5 c 128,-1,2
 257 195 257 195 131 195 c 1,3,-1
 131 172 l 2,4,5
 131 108 131 108 155 76.5 c 128,-1,6
 179 45 179 45 220 45 c 0,7,8
 276 45 276 45 357 106 c 1,9,-1
 386 69 l 1,10,11
 355 38 355 38 305 15.5 c 128,-1,12
 255 -7 255 -7 200 -7 c 0,13,14
 117 -7 117 -7 78.5 41 c 128,-1,15
 40 89 40 89 40 157 c 0,16,17
 40 301 40 301 108.5 388.5 c 128,-1,18
 177 476 177 476 286 476 c 0,19,20
 354 476 354 476 388.5 445 c 128,-1,21
 423 414 423 414 423 370 c 0,0,1
279 430 m 0,22,23
 224 430 224 430 186.5 378 c 128,-1,24
 149 326 149 326 136 244 c 1,25,26
 225 244 225 244 280 280 c 128,-1,27
 335 316 335 316 335 372 c 0,28,29
 335 396 335 396 320.5 413 c 128,-1,30
 306 430 306 430 279 430 c 0,22,23
218 589 m 2,31,32
 199 606 199 606 199 622 c 128,-1,33
 199 638 199 638 212 650.5 c 128,-1,34
 225 663 225 663 242.5 663 c 128,-1,35
 260 663 260 663 270 646 c 2,36,-1
 335 530 l 1,37,-1
 309 506 l 1,38,-1
 218 589 l 2,31,32
EndSplineSet
EndChar

StartChar: eacute
Encoding: 233 233 171
Width: 457
GlyphClass: 2
Flags: W
LayerCount: 2
Fore
SplineSet
423 370 m 0,0,1
 423 296 423 296 340 245.5 c 128,-1,2
 257 195 257 195 131 195 c 1,3,-1
 131 172 l 2,4,5
 131 108 131 108 155 76.5 c 128,-1,6
 179 45 179 45 220 45 c 0,7,8
 276 45 276 45 357 106 c 1,9,-1
 386 69 l 1,10,11
 355 38 355 38 305 15.5 c 128,-1,12
 255 -7 255 -7 200 -7 c 0,13,14
 117 -7 117 -7 78.5 41 c 128,-1,15
 40 89 40 89 40 157 c 0,16,17
 40 301 40 301 108.5 388.5 c 128,-1,18
 177 476 177 476 286 476 c 0,19,20
 354 476 354 476 388.5 445 c 128,-1,21
 423 414 423 414 423 370 c 0,0,1
279 430 m 0,22,23
 224 430 224 430 186.5 378 c 128,-1,24
 149 326 149 326 136 244 c 1,25,26
 225 244 225 244 280 280 c 128,-1,27
 335 316 335 316 335 372 c 0,28,29
 335 396 335 396 320.5 413 c 128,-1,30
 306 430 306 430 279 430 c 0,22,23
336 647 m 1,31,32
 351 663 351 663 368 663 c 128,-1,33
 385 663 385 663 395.5 653.5 c 128,-1,34
 406 644 406 644 406 625.5 c 128,-1,35
 406 607 406 607 383 590 c 2,36,-1
 261 506 l 1,37,-1
 239 531 l 1,38,-1
 336 647 l 1,31,32
EndSplineSet
EndChar

StartChar: ecircumflex
Encoding: 234 234 172
Width: 457
GlyphClass: 2
Flags: W
LayerCount: 2
Fore
SplineSet
423 370 m 0,0,1
 423 296 423 296 340 245.5 c 128,-1,2
 257 195 257 195 131 195 c 1,3,-1
 131 172 l 2,4,5
 131 108 131 108 155 76.5 c 128,-1,6
 179 45 179 45 220 45 c 0,7,8
 276 45 276 45 357 106 c 1,9,-1
 386 69 l 1,10,11
 355 38 355 38 305 15.5 c 128,-1,12
 255 -7 255 -7 200 -7 c 0,13,14
 117 -7 117 -7 78.5 41 c 128,-1,15
 40 89 40 89 40 157 c 0,16,17
 40 301 40 301 108.5 388.5 c 128,-1,18
 177 476 177 476 286 476 c 0,19,20
 354 476 354 476 388.5 445 c 128,-1,21
 423 414 423 414 423 370 c 0,0,1
279 430 m 0,22,23
 224 430 224 430 186.5 378 c 128,-1,24
 149 326 149 326 136 244 c 1,25,26
 225 244 225 244 280 280 c 128,-1,27
 335 316 335 316 335 372 c 0,28,29
 335 396 335 396 320.5 413 c 128,-1,30
 306 430 306 430 279 430 c 0,22,23
307 653 m 128,-1,32
 324 653 324 653 336 637 c 2,33,-1
 412 530 l 1,34,-1
 386 506 l 1,35,-1
 298 581 l 1,36,-1
 186 506 l 1,37,-1
 165 530 l 1,38,-1
 274 637 l 2,39,31
 290 653 290 653 307 653 c 128,-1,32
EndSplineSet
EndChar

StartChar: edieresis
Encoding: 235 235 173
Width: 457
GlyphClass: 2
Flags: W
LayerCount: 2
Fore
SplineSet
423 370 m 0,0,1
 423 296 423 296 340 245.5 c 128,-1,2
 257 195 257 195 131 195 c 1,3,-1
 131 172 l 2,4,5
 131 108 131 108 155 76.5 c 128,-1,6
 179 45 179 45 220 45 c 0,7,8
 276 45 276 45 357 106 c 1,9,-1
 386 69 l 1,10,11
 355 38 355 38 305 15.5 c 128,-1,12
 255 -7 255 -7 200 -7 c 0,13,14
 117 -7 117 -7 78.5 41 c 128,-1,15
 40 89 40 89 40 157 c 0,16,17
 40 301 40 301 108.5 388.5 c 128,-1,18
 177 476 177 476 286 476 c 0,19,20
 354 476 354 476 388.5 445 c 128,-1,21
 423 414 423 414 423 370 c 0,0,1
279 430 m 0,22,23
 224 430 224 430 186.5 378 c 128,-1,24
 149 326 149 326 136 244 c 1,25,26
 225 244 225 244 280 280 c 128,-1,27
 335 316 335 316 335 372 c 0,28,29
 335 396 335 396 320.5 413 c 128,-1,30
 306 430 306 430 279 430 c 0,22,23
207 540 m 0,31,32
 165 540 165 540 165 580 c 0,33,34
 165 611 165 611 179.5 628 c 128,-1,35
 194 645 194 645 216.5 645 c 128,-1,36
 239 645 239 645 250 634 c 128,-1,37
 261 623 261 623 261 598.5 c 128,-1,38
 261 574 261 574 246.5 557 c 128,-1,39
 232 540 232 540 207 540 c 0,31,32
374 540 m 0,40,41
 332 540 332 540 332 580 c 0,42,43
 332 611 332 611 346.5 628 c 128,-1,44
 361 645 361 645 383.5 645 c 128,-1,45
 406 645 406 645 417 634 c 128,-1,46
 428 623 428 623 428 598.5 c 128,-1,47
 428 574 428 574 413.5 557 c 128,-1,48
 399 540 399 540 374 540 c 0,40,41
EndSplineSet
EndChar

StartChar: igrave
Encoding: 236 236 174
Width: 271
GlyphClass: 2
Flags: W
LayerCount: 2
Fore
SplineSet
67 6 m 128,-1,1
 56 19 56 19 56 40.5 c 128,-1,2
 56 62 56 62 81.5 222 c 128,-1,3
 107 382 107 382 107 386 c 0,4,5
 107 415 107 415 74 415 c 0,6,7
 67 415 67 415 43 413 c 1,8,-1
 38 445 l 1,9,10
 108 476 108 476 166 476 c 1,11,-1
 193 473 l 1,12,-1
 205 454 l 1,13,14
 147 106 147 106 147 88.5 c 128,-1,15
 147 71 147 71 150.5 66.5 c 128,-1,16
 154 62 154 62 169.5 62 c 128,-1,17
 185 62 185 62 217 81 c 1,18,-1
 227 49 l 1,19,20
 162 -7 162 -7 112 -7 c 0,21,0
 78 -7 78 -7 67 6 c 128,-1,1
101 589 m 2,22,23
 82 606 82 606 82 622 c 128,-1,24
 82 638 82 638 95 650.5 c 128,-1,25
 108 663 108 663 125.5 663 c 128,-1,26
 143 663 143 663 153 646 c 2,27,-1
 218 530 l 1,28,-1
 192 506 l 1,29,-1
 101 589 l 2,22,23
EndSplineSet
EndChar

StartChar: iacute
Encoding: 237 237 175
Width: 271
GlyphClass: 2
Flags: W
LayerCount: 2
Fore
SplineSet
67 6 m 128,-1,1
 56 19 56 19 56 40.5 c 128,-1,2
 56 62 56 62 81.5 222 c 128,-1,3
 107 382 107 382 107 386 c 0,4,5
 107 415 107 415 74 415 c 0,6,7
 67 415 67 415 43 413 c 1,8,-1
 38 445 l 1,9,10
 108 476 108 476 166 476 c 1,11,-1
 193 473 l 1,12,-1
 205 454 l 1,13,14
 147 106 147 106 147 88.5 c 128,-1,15
 147 71 147 71 150.5 66.5 c 128,-1,16
 154 62 154 62 169.5 62 c 128,-1,17
 185 62 185 62 217 81 c 1,18,-1
 227 49 l 1,19,20
 162 -7 162 -7 112 -7 c 0,21,0
 78 -7 78 -7 67 6 c 128,-1,1
219 647 m 1,22,23
 234 663 234 663 251 663 c 128,-1,24
 268 663 268 663 278.5 653.5 c 128,-1,25
 289 644 289 644 289 625.5 c 128,-1,26
 289 607 289 607 266 590 c 2,27,-1
 144 506 l 1,28,-1
 122 531 l 1,29,-1
 219 647 l 1,22,23
EndSplineSet
EndChar

StartChar: icircumflex
Encoding: 238 238 176
Width: 271
GlyphClass: 2
Flags: W
LayerCount: 2
Fore
SplineSet
67 6 m 128,-1,1
 56 19 56 19 56 40.5 c 128,-1,2
 56 62 56 62 81.5 222 c 128,-1,3
 107 382 107 382 107 386 c 0,4,5
 107 415 107 415 74 415 c 0,6,7
 67 415 67 415 43 413 c 1,8,-1
 38 445 l 1,9,10
 108 476 108 476 166 476 c 1,11,-1
 193 473 l 1,12,-1
 205 454 l 1,13,14
 147 106 147 106 147 88.5 c 128,-1,15
 147 71 147 71 150.5 66.5 c 128,-1,16
 154 62 154 62 169.5 62 c 128,-1,17
 185 62 185 62 217 81 c 1,18,-1
 227 49 l 1,19,20
 162 -7 162 -7 112 -7 c 0,21,0
 78 -7 78 -7 67 6 c 128,-1,1
180 653 m 128,-1,23
 197 653 197 653 209 637 c 2,24,-1
 285 530 l 1,25,-1
 259 506 l 1,26,-1
 171 581 l 1,27,-1
 59 506 l 1,28,-1
 38 530 l 1,29,-1
 147 637 l 2,30,22
 163 653 163 653 180 653 c 128,-1,23
EndSplineSet
EndChar

StartChar: idieresis
Encoding: 239 239 177
Width: 271
GlyphClass: 2
Flags: W
LayerCount: 2
Fore
SplineSet
91 540 m 0,0,1
 49 540 49 540 49 580 c 0,2,3
 49 611 49 611 63.5 628 c 128,-1,4
 78 645 78 645 100.5 645 c 128,-1,5
 123 645 123 645 134 634 c 128,-1,6
 145 623 145 623 145 598.5 c 128,-1,7
 145 574 145 574 130.5 557 c 128,-1,8
 116 540 116 540 91 540 c 0,0,1
228 540 m 0,9,10
 186 540 186 540 186 580 c 0,11,12
 186 611 186 611 200.5 628 c 128,-1,13
 215 645 215 645 237.5 645 c 128,-1,14
 260 645 260 645 271 634 c 128,-1,15
 282 623 282 623 282 598.5 c 128,-1,16
 282 574 282 574 267.5 557 c 128,-1,17
 253 540 253 540 228 540 c 0,9,10
67 6 m 128,-1,19
 56 19 56 19 56 40.5 c 128,-1,20
 56 62 56 62 81.5 222 c 128,-1,21
 107 382 107 382 107 386 c 0,22,23
 107 415 107 415 74 415 c 0,24,25
 67 415 67 415 43 413 c 1,26,-1
 38 445 l 1,27,28
 108 476 108 476 166 476 c 1,29,-1
 193 473 l 1,30,-1
 205 454 l 1,31,32
 147 106 147 106 147 88.5 c 128,-1,33
 147 71 147 71 150.5 66.5 c 128,-1,34
 154 62 154 62 169.5 62 c 128,-1,35
 185 62 185 62 217 81 c 1,36,-1
 227 49 l 1,37,38
 162 -7 162 -7 112 -7 c 0,39,18
 78 -7 78 -7 67 6 c 128,-1,19
EndSplineSet
EndChar

StartChar: eth
Encoding: 240 240 178
Width: 509
GlyphClass: 2
Flags: W
LayerCount: 2
Fore
SplineSet
477 384 m 0,0,1
 477 312 477 312 465.5 247.5 c 128,-1,2
 454 183 454 183 435.5 143.5 c 128,-1,3
 417 104 417 104 390 68.5 c 128,-1,4
 363 33 363 33 318.5 13 c 128,-1,5
 274 -7 274 -7 218 -7 c 0,6,7
 42 -7 42 -7 42 164 c 0,8,9
 42 311 42 311 116 393.5 c 128,-1,10
 190 476 190 476 307 476 c 0,11,12
 350 476 350 476 383 461 c 1,13,14
 370 528 370 528 324 574 c 1,15,-1
 168 519 l 1,16,-1
 155 560 l 1,17,-1
 283 606 l 1,18,19
 251 628 251 628 196 651 c 1,20,-1
 220 694 l 1,21,22
 302 663 302 663 350 632 c 1,23,-1
 473 678 l 1,24,-1
 485 631 l 1,25,-1
 394 599 l 1,26,27
 477 521 477 521 477 384 c 0,0,1
297 434 m 0,28,29
 227 434 227 434 177.5 356.5 c 128,-1,30
 128 279 128 279 128 153 c 0,31,32
 128 39 128 39 223 39 c 0,33,34
 288 39 288 39 323 91.5 c 128,-1,35
 358 144 358 144 380 278 c 0,36,37
 390 341 390 341 390 408 c 1,38,39
 349 434 349 434 297 434 c 0,28,29
EndSplineSet
EndChar

StartChar: ntilde
Encoding: 241 241 179
Width: 535
GlyphClass: 2
Flags: W
LayerCount: 2
Fore
SplineSet
106 386 m 0,0,1
 106 415 106 415 72 415 c 0,2,3
 65 415 65 415 41 413 c 1,4,-1
 36 445 l 1,5,6
 104 476 104 476 162 476 c 1,7,-1
 187 473 l 1,8,-1
 197 454 l 1,9,-1
 187 359 l 1,10,11
 252 476 252 476 345 476 c 0,12,13
 399 476 399 476 428.5 448 c 128,-1,14
 458 420 458 420 458 369 c 0,15,16
 458 349 458 349 442 259 c 0,17,18
 413 96 413 96 413 83.5 c 128,-1,19
 413 71 413 71 416.5 66.5 c 128,-1,20
 420 62 420 62 435.5 62 c 128,-1,21
 451 62 451 62 483 81 c 1,22,-1
 493 49 l 1,23,24
 428 -7 428 -7 378 -7 c 0,25,26
 344 -7 344 -7 333 6.5 c 128,-1,27
 322 20 322 20 322 40 c 128,-1,28
 322 60 322 60 346 198 c 128,-1,29
 370 336 370 336 370 361 c 128,-1,30
 370 386 370 386 355.5 403.5 c 128,-1,31
 341 421 341 421 317 421 c 0,32,33
 259 421 259 421 216 343 c 128,-1,34
 173 265 173 265 157 163 c 2,35,-1
 131 0 l 1,36,-1
 46 0 l 1,37,38
 106 378 106 378 106 386 c 0,0,1
198.5 604.5 m 128,-1,40
 228 630 228 630 256 630 c 128,-1,41
 284 630 284 630 315.5 612 c 128,-1,42
 347 594 347 594 369.5 594 c 128,-1,43
 392 594 392 594 435 633 c 1,44,45
 451 627 451 627 465 613 c 1,46,47
 448 585 448 585 418.5 559 c 128,-1,48
 389 533 389 533 361 533 c 128,-1,49
 333 533 333 533 301 551 c 128,-1,50
 269 569 269 569 246 569 c 128,-1,51
 223 569 223 569 182 532 c 1,52,53
 167 536 167 536 153 552 c 1,54,39
 169 579 169 579 198.5 604.5 c 128,-1,40
EndSplineSet
EndChar

StartChar: ograve
Encoding: 242 242 180
Width: 507
GlyphClass: 2
Flags: W
LayerCount: 2
Fore
SplineSet
218 41 m 0,0,1
 275 41 275 41 320.5 121 c 128,-1,2
 366 201 366 201 366 314.5 c 128,-1,3
 366 428 366 428 296 428 c 0,4,5
 238 428 238 428 193 347.5 c 128,-1,6
 148 267 148 267 148 154 c 128,-1,7
 148 41 148 41 218 41 c 0,0,1
218 -7 m 0,8,9
 138 -7 138 -7 96.5 37.5 c 128,-1,10
 55 82 55 82 55 164 c 0,11,12
 55 291 55 291 119 383.5 c 128,-1,13
 183 476 183 476 296 476 c 0,14,15
 376 476 376 476 417.5 431.5 c 128,-1,16
 459 387 459 387 459 305 c 0,17,18
 459 177 459 177 395 85 c 128,-1,19
 331 -7 331 -7 218 -7 c 0,8,9
244 589 m 2,20,21
 225 606 225 606 225 622 c 128,-1,22
 225 638 225 638 238 650.5 c 128,-1,23
 251 663 251 663 268.5 663 c 128,-1,24
 286 663 286 663 296 646 c 2,25,-1
 361 530 l 1,26,-1
 335 506 l 1,27,-1
 244 589 l 2,20,21
EndSplineSet
EndChar

StartChar: oacute
Encoding: 243 243 181
Width: 507
GlyphClass: 2
Flags: W
LayerCount: 2
Fore
SplineSet
218 41 m 0,0,1
 275 41 275 41 320.5 121 c 128,-1,2
 366 201 366 201 366 314.5 c 128,-1,3
 366 428 366 428 296 428 c 0,4,5
 238 428 238 428 193 347.5 c 128,-1,6
 148 267 148 267 148 154 c 128,-1,7
 148 41 148 41 218 41 c 0,0,1
218 -7 m 0,8,9
 138 -7 138 -7 96.5 37.5 c 128,-1,10
 55 82 55 82 55 164 c 0,11,12
 55 291 55 291 119 383.5 c 128,-1,13
 183 476 183 476 296 476 c 0,14,15
 376 476 376 476 417.5 431.5 c 128,-1,16
 459 387 459 387 459 305 c 0,17,18
 459 177 459 177 395 85 c 128,-1,19
 331 -7 331 -7 218 -7 c 0,8,9
362 647 m 1,20,21
 377 663 377 663 394 663 c 128,-1,22
 411 663 411 663 421.5 653.5 c 128,-1,23
 432 644 432 644 432 625.5 c 128,-1,24
 432 607 432 607 409 590 c 2,25,-1
 287 506 l 1,26,-1
 265 531 l 1,27,-1
 362 647 l 1,20,21
EndSplineSet
EndChar

StartChar: ocircumflex
Encoding: 244 244 182
Width: 507
GlyphClass: 2
Flags: W
LayerCount: 2
Fore
SplineSet
218 41 m 0,0,1
 275 41 275 41 320.5 121 c 128,-1,2
 366 201 366 201 366 314.5 c 128,-1,3
 366 428 366 428 296 428 c 0,4,5
 238 428 238 428 193 347.5 c 128,-1,6
 148 267 148 267 148 154 c 128,-1,7
 148 41 148 41 218 41 c 0,0,1
218 -7 m 0,8,9
 138 -7 138 -7 96.5 37.5 c 128,-1,10
 55 82 55 82 55 164 c 0,11,12
 55 291 55 291 119 383.5 c 128,-1,13
 183 476 183 476 296 476 c 0,14,15
 376 476 376 476 417.5 431.5 c 128,-1,16
 459 387 459 387 459 305 c 0,17,18
 459 177 459 177 395 85 c 128,-1,19
 331 -7 331 -7 218 -7 c 0,8,9
333 653 m 128,-1,21
 350 653 350 653 362 637 c 2,22,-1
 438 530 l 1,23,-1
 412 506 l 1,24,-1
 324 581 l 1,25,-1
 212 506 l 1,26,-1
 191 530 l 1,27,-1
 300 637 l 2,28,20
 316 653 316 653 333 653 c 128,-1,21
EndSplineSet
EndChar

StartChar: otilde
Encoding: 245 245 183
Width: 507
GlyphClass: 2
Flags: W
LayerCount: 2
Fore
SplineSet
218 41 m 0,0,1
 275 41 275 41 320.5 121 c 128,-1,2
 366 201 366 201 366 314.5 c 128,-1,3
 366 428 366 428 296 428 c 0,4,5
 238 428 238 428 193 347.5 c 128,-1,6
 148 267 148 267 148 154 c 128,-1,7
 148 41 148 41 218 41 c 0,0,1
218 -7 m 0,8,9
 138 -7 138 -7 96.5 37.5 c 128,-1,10
 55 82 55 82 55 164 c 0,11,12
 55 291 55 291 119 383.5 c 128,-1,13
 183 476 183 476 296 476 c 0,14,15
 376 476 376 476 417.5 431.5 c 128,-1,16
 459 387 459 387 459 305 c 0,17,18
 459 177 459 177 395 85 c 128,-1,19
 331 -7 331 -7 218 -7 c 0,8,9
216.5 604.5 m 128,-1,21
 246 630 246 630 274 630 c 128,-1,22
 302 630 302 630 333.5 612 c 128,-1,23
 365 594 365 594 387.5 594 c 128,-1,24
 410 594 410 594 453 633 c 1,25,26
 469 627 469 627 483 613 c 1,27,28
 466 585 466 585 436.5 559 c 128,-1,29
 407 533 407 533 379 533 c 128,-1,30
 351 533 351 533 319 551 c 128,-1,31
 287 569 287 569 264 569 c 128,-1,32
 241 569 241 569 200 532 c 1,33,34
 185 536 185 536 171 552 c 1,35,20
 187 579 187 579 216.5 604.5 c 128,-1,21
EndSplineSet
EndChar

StartChar: odieresis
Encoding: 246 246 184
Width: 507
GlyphClass: 2
Flags: W
LayerCount: 2
Fore
SplineSet
218 41 m 0,0,1
 275 41 275 41 320.5 121 c 128,-1,2
 366 201 366 201 366 314.5 c 128,-1,3
 366 428 366 428 296 428 c 0,4,5
 238 428 238 428 193 347.5 c 128,-1,6
 148 267 148 267 148 154 c 128,-1,7
 148 41 148 41 218 41 c 0,0,1
218 -7 m 0,8,9
 138 -7 138 -7 96.5 37.5 c 128,-1,10
 55 82 55 82 55 164 c 0,11,12
 55 291 55 291 119 383.5 c 128,-1,13
 183 476 183 476 296 476 c 0,14,15
 376 476 376 476 417.5 431.5 c 128,-1,16
 459 387 459 387 459 305 c 0,17,18
 459 177 459 177 395 85 c 128,-1,19
 331 -7 331 -7 218 -7 c 0,8,9
236 540 m 0,20,21
 194 540 194 540 194 580 c 0,22,23
 194 611 194 611 208.5 628 c 128,-1,24
 223 645 223 645 245.5 645 c 128,-1,25
 268 645 268 645 279 634 c 128,-1,26
 290 623 290 623 290 598.5 c 128,-1,27
 290 574 290 574 275.5 557 c 128,-1,28
 261 540 261 540 236 540 c 0,20,21
403 540 m 0,29,30
 361 540 361 540 361 580 c 0,31,32
 361 611 361 611 375.5 628 c 128,-1,33
 390 645 390 645 412.5 645 c 128,-1,34
 435 645 435 645 446 634 c 128,-1,35
 457 623 457 623 457 598.5 c 128,-1,36
 457 574 457 574 442.5 557 c 128,-1,37
 428 540 428 540 403 540 c 0,29,30
EndSplineSet
EndChar

StartChar: divide
Encoding: 247 247 185
Width: 528
GlyphClass: 2
Flags: W
LayerCount: 2
Fore
SplineSet
49 259 m 1,0,-1
 58 312 l 1,1,-1
 487 312 l 1,2,-1
 478 259 l 1,3,-1
 49 259 l 1,0,-1
207.5 165.5 m 128,-1,5
 224 187 224 187 247 187 c 128,-1,6
 270 187 270 187 282 175 c 128,-1,7
 294 163 294 163 294 138.5 c 128,-1,8
 294 114 294 114 277.5 92.5 c 128,-1,9
 261 71 261 71 238 71 c 128,-1,10
 215 71 215 71 203 83 c 128,-1,11
 191 95 191 95 191 119.5 c 128,-1,4
 191 144 191 144 207.5 165.5 c 128,-1,5
256.5 477.5 m 128,-1,13
 273 499 273 499 296 499 c 128,-1,14
 319 499 319 499 331 487 c 128,-1,15
 343 475 343 475 343 450.5 c 128,-1,16
 343 426 343 426 326.5 404.5 c 128,-1,17
 310 383 310 383 287 383 c 128,-1,18
 264 383 264 383 252 395 c 128,-1,19
 240 407 240 407 240 431.5 c 128,-1,12
 240 456 240 456 256.5 477.5 c 128,-1,13
EndSplineSet
EndChar

StartChar: oslash
Encoding: 248 248 186
Width: 507
GlyphClass: 2
Flags: W
LayerCount: 2
Fore
SplineSet
213 -7 m 0,0,1
 148 -7 148 -7 107 23 c 1,2,-1
 67 -27 l 1,3,-1
 57 -28 l 1,4,5
 41 -19 41 -19 30 -4 c 1,6,-1
 77 55 l 1,7,8
 50 97 50 97 50 164 c 0,9,10
 50 291 50 291 114 383.5 c 128,-1,11
 178 476 178 476 291 476 c 0,12,13
 352 476 352 476 390 450 c 1,14,-1
 420 487 l 1,15,-1
 430 488 l 1,16,17
 446 479 446 479 457 464 c 1,18,-1
 422 420 l 1,19,20
 454 376 454 376 454 305 c 0,21,22
 454 177 454 177 390 85 c 128,-1,23
 326 -7 326 -7 213 -7 c 0,0,1
213 41 m 0,24,25
 269 41 269 41 313 116.5 c 128,-1,26
 357 192 357 192 361 298 c 1,27,28
 361 328 361 328 359 341 c 1,29,-1
 154 83 l 1,30,31
 171 41 171 41 213 41 c 0,24,25
291 428 m 0,32,33
 232 428 232 428 187 345.5 c 128,-1,34
 142 263 142 263 142 154 c 0,35,36
 142 142 142 142 143 138 c 1,37,-1
 345 393 l 1,38,39
 328 428 328 428 291 428 c 0,32,33
EndSplineSet
EndChar

StartChar: ugrave
Encoding: 249 249 187
Width: 535
GlyphClass: 2
Flags: W
LayerCount: 2
Fore
SplineSet
164 185 m 128,-1,1
 155 130 155 130 155 106.5 c 128,-1,2
 155 83 155 83 169.5 65 c 128,-1,3
 184 47 184 47 208 47 c 0,4,5
 266 47 266 47 309 125.5 c 128,-1,6
 352 204 352 204 368 306 c 2,7,-1
 394 467 l 1,8,9
 421 476 421 476 451 476 c 1,10,-1
 480 474 l 1,11,-1
 418 84 l 1,12,-1
 418 79 l 2,13,14
 418 62 418 62 438 62 c 128,-1,15
 458 62 458 62 490 81 c 1,16,-1
 500 49 l 1,17,18
 435 -7 435 -7 386 -7 c 0,19,20
 352 -7 352 -7 341 6 c 128,-1,21
 330 19 330 19 330 34.5 c 128,-1,22
 330 50 330 50 341 116 c 1,23,24
 274 -7 274 -7 180 -7 c 0,25,26
 126 -7 126 -7 96.5 21 c 128,-1,27
 67 49 67 49 67 100 c 0,28,29
 67 108 67 108 69 126 c 1,30,-1
 110 364 l 2,31,32
 113 382 113 382 113 386 c 0,33,34
 113 415 113 415 80 415 c 0,35,36
 73 415 73 415 49 413 c 1,37,-1
 44 445 l 1,38,39
 115 476 115 476 172 476 c 1,40,-1
 199 473 l 1,41,-1
 211 454 l 1,42,43
 203 406 203 406 188 323 c 128,-1,0
 173 240 173 240 164 185 c 128,-1,1
230 589 m 2,44,45
 211 606 211 606 211 622 c 128,-1,46
 211 638 211 638 224 650.5 c 128,-1,47
 237 663 237 663 254.5 663 c 128,-1,48
 272 663 272 663 282 646 c 2,49,-1
 347 530 l 1,50,-1
 321 506 l 1,51,-1
 230 589 l 2,44,45
EndSplineSet
EndChar

StartChar: uacute
Encoding: 250 250 188
Width: 535
GlyphClass: 2
Flags: W
LayerCount: 2
Fore
SplineSet
164 185 m 128,-1,1
 155 130 155 130 155 106.5 c 128,-1,2
 155 83 155 83 169.5 65 c 128,-1,3
 184 47 184 47 208 47 c 0,4,5
 266 47 266 47 309 125.5 c 128,-1,6
 352 204 352 204 368 306 c 2,7,-1
 394 467 l 1,8,9
 421 476 421 476 451 476 c 1,10,-1
 480 474 l 1,11,-1
 418 84 l 1,12,-1
 418 79 l 2,13,14
 418 62 418 62 438 62 c 128,-1,15
 458 62 458 62 490 81 c 1,16,-1
 500 49 l 1,17,18
 435 -7 435 -7 386 -7 c 0,19,20
 352 -7 352 -7 341 6 c 128,-1,21
 330 19 330 19 330 34.5 c 128,-1,22
 330 50 330 50 341 116 c 1,23,24
 274 -7 274 -7 180 -7 c 0,25,26
 126 -7 126 -7 96.5 21 c 128,-1,27
 67 49 67 49 67 100 c 0,28,29
 67 108 67 108 69 126 c 1,30,-1
 110 364 l 2,31,32
 113 382 113 382 113 386 c 0,33,34
 113 415 113 415 80 415 c 0,35,36
 73 415 73 415 49 413 c 1,37,-1
 44 445 l 1,38,39
 115 476 115 476 172 476 c 1,40,-1
 199 473 l 1,41,-1
 211 454 l 1,42,43
 203 406 203 406 188 323 c 128,-1,0
 173 240 173 240 164 185 c 128,-1,1
348 647 m 1,44,45
 363 663 363 663 380 663 c 128,-1,46
 397 663 397 663 407.5 653.5 c 128,-1,47
 418 644 418 644 418 625.5 c 128,-1,48
 418 607 418 607 395 590 c 2,49,-1
 273 506 l 1,50,-1
 251 531 l 1,51,-1
 348 647 l 1,44,45
EndSplineSet
EndChar

StartChar: ucircumflex
Encoding: 251 251 189
Width: 535
GlyphClass: 2
Flags: W
LayerCount: 2
Fore
SplineSet
164 185 m 128,-1,1
 155 130 155 130 155 106.5 c 128,-1,2
 155 83 155 83 169.5 65 c 128,-1,3
 184 47 184 47 208 47 c 0,4,5
 266 47 266 47 309 125.5 c 128,-1,6
 352 204 352 204 368 306 c 2,7,-1
 394 467 l 1,8,9
 421 476 421 476 451 476 c 1,10,-1
 480 474 l 1,11,-1
 418 84 l 1,12,-1
 418 79 l 2,13,14
 418 62 418 62 438 62 c 128,-1,15
 458 62 458 62 490 81 c 1,16,-1
 500 49 l 1,17,18
 435 -7 435 -7 386 -7 c 0,19,20
 352 -7 352 -7 341 6 c 128,-1,21
 330 19 330 19 330 34.5 c 128,-1,22
 330 50 330 50 341 116 c 1,23,24
 274 -7 274 -7 180 -7 c 0,25,26
 126 -7 126 -7 96.5 21 c 128,-1,27
 67 49 67 49 67 100 c 0,28,29
 67 108 67 108 69 126 c 1,30,-1
 110 364 l 2,31,32
 113 382 113 382 113 386 c 0,33,34
 113 415 113 415 80 415 c 0,35,36
 73 415 73 415 49 413 c 1,37,-1
 44 445 l 1,38,39
 115 476 115 476 172 476 c 1,40,-1
 199 473 l 1,41,-1
 211 454 l 1,42,43
 203 406 203 406 188 323 c 128,-1,0
 173 240 173 240 164 185 c 128,-1,1
319 653 m 128,-1,45
 336 653 336 653 348 637 c 2,46,-1
 424 530 l 1,47,-1
 398 506 l 1,48,-1
 310 581 l 1,49,-1
 198 506 l 1,50,-1
 177 530 l 1,51,-1
 286 637 l 2,52,44
 302 653 302 653 319 653 c 128,-1,45
EndSplineSet
EndChar

StartChar: udieresis
Encoding: 252 252 190
Width: 535
GlyphClass: 2
Flags: W
LayerCount: 2
Fore
SplineSet
164 185 m 128,-1,1
 155 130 155 130 155 106.5 c 128,-1,2
 155 83 155 83 169.5 65 c 128,-1,3
 184 47 184 47 208 47 c 0,4,5
 266 47 266 47 309 125.5 c 128,-1,6
 352 204 352 204 368 306 c 2,7,-1
 394 467 l 1,8,9
 421 476 421 476 451 476 c 1,10,-1
 480 474 l 1,11,-1
 418 84 l 1,12,-1
 418 79 l 2,13,14
 418 62 418 62 438 62 c 128,-1,15
 458 62 458 62 490 81 c 1,16,-1
 500 49 l 1,17,18
 435 -7 435 -7 386 -7 c 0,19,20
 352 -7 352 -7 341 6 c 128,-1,21
 330 19 330 19 330 34.5 c 128,-1,22
 330 50 330 50 341 116 c 1,23,24
 274 -7 274 -7 180 -7 c 0,25,26
 126 -7 126 -7 96.5 21 c 128,-1,27
 67 49 67 49 67 100 c 0,28,29
 67 108 67 108 69 126 c 1,30,-1
 110 364 l 2,31,32
 113 382 113 382 113 386 c 0,33,34
 113 415 113 415 80 415 c 0,35,36
 73 415 73 415 49 413 c 1,37,-1
 44 445 l 1,38,39
 115 476 115 476 172 476 c 1,40,-1
 199 473 l 1,41,-1
 211 454 l 1,42,43
 203 406 203 406 188 323 c 128,-1,0
 173 240 173 240 164 185 c 128,-1,1
224 540 m 0,44,45
 182 540 182 540 182 580 c 0,46,47
 182 611 182 611 196.5 628 c 128,-1,48
 211 645 211 645 233.5 645 c 128,-1,49
 256 645 256 645 267 634 c 128,-1,50
 278 623 278 623 278 598.5 c 128,-1,51
 278 574 278 574 263.5 557 c 128,-1,52
 249 540 249 540 224 540 c 0,44,45
391 540 m 0,53,54
 349 540 349 540 349 580 c 0,55,56
 349 611 349 611 363.5 628 c 128,-1,57
 378 645 378 645 400.5 645 c 128,-1,58
 423 645 423 645 434 634 c 128,-1,59
 445 623 445 623 445 598.5 c 128,-1,60
 445 574 445 574 430.5 557 c 128,-1,61
 416 540 416 540 391 540 c 0,53,54
EndSplineSet
EndChar

StartChar: yacute
Encoding: 253 253 191
Width: 460
GlyphClass: 2
Flags: W
LayerCount: 2
Fore
SplineSet
345 389 m 0,0,1
 345 423 345 423 301 423 c 1,2,-1
 297 460 l 1,3,4
 362 476 362 476 398.5 476 c 128,-1,5
 435 476 435 476 447 473 c 1,6,-1
 458 454 l 1,7,8
 432 359 432 359 380 280 c 2,9,-1
 143 -83 l 2,10,11
 134 -97 134 -97 132 -114 c 1,12,13
 132 -139 132 -139 156 -139 c 0,14,15
 167 -139 167 -139 180 -132 c 1,16,17
 192 -150 192 -150 192 -169 c 128,-1,18
 192 -188 192 -188 172 -203.5 c 128,-1,19
 152 -219 152 -219 122.5 -219 c 128,-1,20
 93 -219 93 -219 75.5 -203.5 c 128,-1,21
 58 -188 58 -188 58 -165 c 128,-1,22
 58 -142 58 -142 70 -114 c 0,23,24
 90 -71 90 -71 140 6 c 1,25,-1
 92 366 l 2,26,27
 89 394 89 394 72.5 403.5 c 128,-1,28
 56 413 56 413 28 413 c 1,29,-1
 22 445 l 1,30,31
 88 476 88 476 136 476 c 1,32,-1
 163 474 l 1,33,-1
 212 105 l 1,34,35
 293 231 293 231 335 335 c 0,36,37
 345 360 345 360 345 389 c 0,0,1
310 647 m 1,38,39
 325 663 325 663 342 663 c 128,-1,40
 359 663 359 663 369.5 653.5 c 128,-1,41
 380 644 380 644 380 625.5 c 128,-1,42
 380 607 380 607 357 590 c 2,43,-1
 235 506 l 1,44,-1
 213 531 l 1,45,-1
 310 647 l 1,38,39
EndSplineSet
EndChar

StartChar: thorn
Encoding: 254 254 192
Width: 521
GlyphClass: 2
Flags: W
LayerCount: 2
Fore
SplineSet
232 38 m 0,0,1
 297 38 297 38 343 122.5 c 128,-1,2
 389 207 389 207 389 297 c 0,3,4
 389 424 389 424 324 424 c 0,5,6
 277 424 277 424 226.5 329.5 c 128,-1,7
 176 235 176 235 159 75 c 1,8,9
 159 58 159 58 179.5 48 c 128,-1,10
 200 38 200 38 232 38 c 0,0,1
201 366 m 1,11,12
 271 476 271 476 346.5 476 c 128,-1,13
 422 476 422 476 450 429 c 128,-1,14
 478 382 478 382 478 297 c 0,15,16
 478 181 478 181 416.5 87 c 128,-1,17
 355 -7 355 -7 255 -7 c 0,18,19
 196 -7 196 -7 147 14 c 1,20,21
 125 -125 125 -125 125 -146 c 128,-1,22
 125 -167 125 -167 148.5 -167 c 128,-1,23
 172 -167 172 -167 199 -161 c 1,24,-1
 208 -192 l 1,25,26
 150 -219 150 -219 105 -219 c 128,-1,27
 60 -219 60 -219 49 -210.5 c 128,-1,28
 38 -202 38 -202 38 -179 c 128,-1,29
 38 -156 38 -156 98 219.5 c 128,-1,30
 158 595 158 595 158 604 c 0,31,32
 158 629 158 629 139.5 636 c 128,-1,33
 121 643 121 643 81 643 c 1,34,-1
 87 682 l 1,35,36
 157 696 157 696 207 696 c 1,37,-1
 244 694 l 1,38,-1
 256 672 l 1,39,-1
 213 454 l 2,40,41
 201 392 201 392 201 366 c 1,11,12
EndSplineSet
EndChar

StartChar: ydieresis
Encoding: 255 255 193
Width: 460
GlyphClass: 2
Flags: W
LayerCount: 2
Fore
SplineSet
345 389 m 0,0,1
 345 423 345 423 301 423 c 1,2,-1
 297 460 l 1,3,4
 362 476 362 476 398.5 476 c 128,-1,5
 435 476 435 476 447 473 c 1,6,-1
 458 454 l 1,7,8
 432 359 432 359 380 280 c 2,9,-1
 143 -83 l 2,10,11
 134 -97 134 -97 132 -114 c 1,12,13
 132 -139 132 -139 156 -139 c 0,14,15
 167 -139 167 -139 180 -132 c 1,16,17
 192 -150 192 -150 192 -169 c 128,-1,18
 192 -188 192 -188 172 -203.5 c 128,-1,19
 152 -219 152 -219 122.5 -219 c 128,-1,20
 93 -219 93 -219 75.5 -203.5 c 128,-1,21
 58 -188 58 -188 58 -165 c 128,-1,22
 58 -142 58 -142 70 -114 c 0,23,24
 90 -71 90 -71 140 6 c 1,25,-1
 92 366 l 2,26,27
 89 394 89 394 72.5 403.5 c 128,-1,28
 56 413 56 413 28 413 c 1,29,-1
 22 445 l 1,30,31
 88 476 88 476 136 476 c 1,32,-1
 163 474 l 1,33,-1
 212 105 l 1,34,35
 293 231 293 231 335 335 c 0,36,37
 345 360 345 360 345 389 c 0,0,1
182 540 m 0,38,39
 140 540 140 540 140 580 c 0,40,41
 140 611 140 611 154.5 628 c 128,-1,42
 169 645 169 645 191.5 645 c 128,-1,43
 214 645 214 645 225 634 c 128,-1,44
 236 623 236 623 236 598.5 c 128,-1,45
 236 574 236 574 221.5 557 c 128,-1,46
 207 540 207 540 182 540 c 0,38,39
349 540 m 0,47,48
 307 540 307 540 307 580 c 0,49,50
 307 611 307 611 321.5 628 c 128,-1,51
 336 645 336 645 358.5 645 c 128,-1,52
 381 645 381 645 392 634 c 128,-1,53
 403 623 403 623 403 598.5 c 128,-1,54
 403 574 403 574 388.5 557 c 128,-1,55
 374 540 374 540 349 540 c 0,47,48
EndSplineSet
EndChar

StartChar: Amacron
Encoding: 256 256 194
Width: 588
GlyphClass: 2
Flags: W
LayerCount: 2
Fore
SplineSet
298 0 m 1,0,-1
 304 37 l 1,1,2
 363 44 363 44 394 63 c 1,3,-1
 399 63 l 1,4,-1
 376 215 l 1,5,-1
 190 215 l 1,6,-1
 124 62 l 1,7,8
 156 45 156 45 219 37 c 1,9,-1
 214 0 l 1,10,-1
 -21 0 l 1,11,-1
 -16 37 l 1,12,13
 35 45 35 45 57 60 c 1,14,-1
 329 667 l 1,15,-1
 394 667 l 1,16,-1
 496 62 l 1,17,18
 519 45 519 45 567 37 c 1,19,-1
 563 0 l 1,20,-1
 298 0 l 1,0,-1
328 534 m 1,21,-1
 212 267 l 1,22,-1
 368 267 l 1,23,-1
 328 534 l 1,21,-1
232 740 m 1,24,-1
 239 784 l 1,25,-1
 516 784 l 1,26,-1
 509 740 l 1,27,-1
 232 740 l 1,24,-1
EndSplineSet
EndChar

StartChar: amacron
Encoding: 257 257 195
Width: 526
GlyphClass: 2
Flags: W
LayerCount: 2
Fore
SplineSet
397 99 m 1,0,-1
 394 77 l 1,1,2
 394 62 394 62 414 62 c 128,-1,3
 434 62 434 62 466 81 c 1,4,-1
 476 49 l 1,5,6
 411 -7 411 -7 362 -7 c 0,7,8
 328 -7 328 -7 317 6 c 128,-1,9
 306 19 306 19 306 37.5 c 128,-1,10
 306 56 306 56 314 98 c 1,11,12
 243 -7 243 -7 169.5 -7 c 128,-1,13
 96 -7 96 -7 68 39.5 c 128,-1,14
 40 86 40 86 40 168 c 128,-1,15
 40 250 40 250 66 318.5 c 128,-1,16
 92 387 92 387 145 432.5 c 128,-1,17
 198 478 198 478 259 478 c 128,-1,18
 320 478 320 478 376 452 c 1,19,20
 398 476 398 476 427 476 c 1,21,-1
 458 474 l 1,22,-1
 397 99 l 1,0,-1
193 45 m 0,23,24
 235 45 235 45 280 117.5 c 128,-1,25
 325 190 325 190 343 301 c 2,26,-1
 360 406 l 1,27,28
 323 430 323 430 281 430 c 128,-1,29
 239 430 239 430 201.5 385.5 c 128,-1,30
 164 341 164 341 146.5 283 c 128,-1,31
 129 225 129 225 129 171 c 0,32,33
 129 45 129 45 193 45 c 0,23,24
166 550 m 1,34,-1
 173 594 l 1,35,-1
 450 594 l 1,36,-1
 443 550 l 1,37,-1
 166 550 l 1,34,-1
EndSplineSet
EndChar

StartChar: Abreve
Encoding: 258 258 196
Width: 588
GlyphClass: 2
Flags: W
LayerCount: 2
Fore
SplineSet
298 0 m 1,0,-1
 304 37 l 1,1,2
 363 44 363 44 394 63 c 1,3,-1
 399 63 l 1,4,-1
 376 215 l 1,5,-1
 190 215 l 1,6,-1
 124 62 l 1,7,8
 156 45 156 45 219 37 c 1,9,-1
 214 0 l 1,10,-1
 -21 0 l 1,11,-1
 -16 37 l 1,12,13
 35 45 35 45 57 60 c 1,14,-1
 329 667 l 1,15,-1
 394 667 l 1,16,-1
 496 62 l 1,17,18
 519 45 519 45 567 37 c 1,19,-1
 563 0 l 1,20,-1
 298 0 l 1,0,-1
328 534 m 1,21,-1
 212 267 l 1,22,-1
 368 267 l 1,23,-1
 328 534 l 1,21,-1
448.5 738.5 m 128,-1,25
 412 706 412 706 364.5 706 c 128,-1,26
 317 706 317 706 290.5 733.5 c 128,-1,27
 264 761 264 761 264 808 c 0,28,29
 264 823 264 823 273.5 827 c 128,-1,30
 283 831 283 831 303 831 c 1,31,-1
 303 825 l 2,32,33
 303 795 303 795 320.5 777.5 c 128,-1,34
 338 760 338 760 369.5 760 c 128,-1,35
 401 760 401 760 425 779.5 c 128,-1,36
 449 799 449 799 455 831 c 1,37,38
 480 831 480 831 495 825 c 1,39,24
 485 771 485 771 448.5 738.5 c 128,-1,25
EndSplineSet
EndChar

StartChar: abreve
Encoding: 259 259 197
Width: 526
GlyphClass: 2
Flags: W
LayerCount: 2
Fore
SplineSet
397 99 m 1,0,-1
 394 77 l 1,1,2
 394 62 394 62 414 62 c 128,-1,3
 434 62 434 62 466 81 c 1,4,-1
 476 49 l 1,5,6
 411 -7 411 -7 362 -7 c 0,7,8
 328 -7 328 -7 317 6 c 128,-1,9
 306 19 306 19 306 37.5 c 128,-1,10
 306 56 306 56 314 98 c 1,11,12
 243 -7 243 -7 169.5 -7 c 128,-1,13
 96 -7 96 -7 68 39.5 c 128,-1,14
 40 86 40 86 40 168 c 128,-1,15
 40 250 40 250 66 318.5 c 128,-1,16
 92 387 92 387 145 432.5 c 128,-1,17
 198 478 198 478 259 478 c 128,-1,18
 320 478 320 478 376 452 c 1,19,20
 398 476 398 476 427 476 c 1,21,-1
 458 474 l 1,22,-1
 397 99 l 1,0,-1
193 45 m 0,23,24
 235 45 235 45 280 117.5 c 128,-1,25
 325 190 325 190 343 301 c 2,26,-1
 360 406 l 1,27,28
 323 430 323 430 281 430 c 128,-1,29
 239 430 239 430 201.5 385.5 c 128,-1,30
 164 341 164 341 146.5 283 c 128,-1,31
 129 225 129 225 129 171 c 0,32,33
 129 45 129 45 193 45 c 0,23,24
382.5 548.5 m 128,-1,35
 346 516 346 516 298.5 516 c 128,-1,36
 251 516 251 516 224.5 543.5 c 128,-1,37
 198 571 198 571 198 618 c 0,38,39
 198 633 198 633 207.5 637 c 128,-1,40
 217 641 217 641 237 641 c 1,41,-1
 237 635 l 2,42,43
 237 605 237 605 254.5 587.5 c 128,-1,44
 272 570 272 570 303.5 570 c 128,-1,45
 335 570 335 570 359 589.5 c 128,-1,46
 383 609 383 609 389 641 c 1,47,48
 414 641 414 641 429 635 c 1,49,34
 419 581 419 581 382.5 548.5 c 128,-1,35
EndSplineSet
EndChar

StartChar: Aogonek
Encoding: 260 260 198
Width: 588
GlyphClass: 2
Flags: W
LayerCount: 2
Fore
SplineSet
475 0 m 2,0,1
 438 0 438 0 396.5 -42 c 128,-1,2
 355 -84 355 -84 355 -126 c 0,3,4
 355 -154 355 -154 381 -154 c 128,-1,5
 407 -154 407 -154 439 -137 c 1,6,-1
 456 -165 l 1,7,8
 404 -204 404 -204 352 -204 c 0,9,10
 294 -204 294 -204 294 -146 c 0,11,12
 294 -119 294 -119 310 -91.5 c 128,-1,13
 326 -64 326 -64 346 -45.5 c 128,-1,14
 366 -27 366 -27 382 0.5 c 128,-1,15
 398 28 398 28 398 53 c 0,16,17
 398 101 398 101 382 186 c 1,18,-1
 376 215 l 1,19,-1
 190 215 l 1,20,-1
 124 62 l 1,21,22
 156 45 156 45 219 37 c 1,23,-1
 214 0 l 1,24,-1
 -21 0 l 1,25,-1
 -16 37 l 1,26,27
 35 45 35 45 57 60 c 1,28,-1
 329 667 l 1,29,-1
 394 667 l 1,30,-1
 496 62 l 1,31,32
 519 45 519 45 567 37 c 1,33,-1
 563 0 l 1,34,-1
 475 0 l 2,0,1
328 534 m 1,35,-1
 212 267 l 1,36,-1
 368 267 l 1,37,-1
 328 534 l 1,35,-1
EndSplineSet
EndChar

StartChar: aogonek
Encoding: 261 261 199
Width: 526
GlyphClass: 2
Flags: W
LayerCount: 2
Fore
SplineSet
359 -7 m 1,0,1
 306 -5 306 -5 306 38 c 0,2,3
 306 56 306 56 314 98 c 1,4,5
 243 -7 243 -7 169.5 -7 c 128,-1,6
 96 -7 96 -7 68 39.5 c 128,-1,7
 40 86 40 86 40 165.5 c 128,-1,8
 40 245 40 245 65.5 313.5 c 128,-1,9
 91 382 91 382 143 429 c 128,-1,10
 195 476 195 476 260 476 c 128,-1,11
 325 476 325 476 376 452 c 1,12,13
 398 476 398 476 427 476 c 1,14,-1
 458 474 l 1,15,-1
 395 84 l 2,16,17
 394 81 394 81 394 77 c 0,18,19
 394 62 394 62 414 62 c 128,-1,20
 434 62 434 62 466 81 c 1,21,-1
 476 49 l 1,22,23
 416 10 416 10 377 -37 c 128,-1,24
 338 -84 338 -84 338 -125 c 0,25,26
 338 -154 338 -154 364 -154 c 128,-1,27
 390 -154 390 -154 422 -137 c 1,28,-1
 439 -165 l 1,29,30
 387 -204 387 -204 335 -204 c 0,31,32
 277 -204 277 -204 277 -145 c 0,33,34
 277 -113 277 -113 292 -90 c 128,-1,35
 307 -67 307 -67 314.5 -58 c 128,-1,36
 322 -49 322 -49 338 -31 c 128,-1,37
 354 -13 354 -13 359 -7 c 1,0,1
193 45 m 0,38,39
 235 45 235 45 280 117.5 c 128,-1,40
 325 190 325 190 343 301 c 2,41,-1
 360 406 l 1,42,43
 322 431 322 431 285 431 c 0,44,45
 219 431 219 431 174 346 c 128,-1,46
 129 261 129 261 129 171 c 0,47,48
 129 45 129 45 193 45 c 0,38,39
EndSplineSet
EndChar

StartChar: Cacute
Encoding: 262 262 200
Width: 540
GlyphClass: 2
Flags: W
LayerCount: 2
Fore
SplineSet
167 213 m 0,0,1
 167 130 167 130 196.5 90.5 c 128,-1,2
 226 51 226 51 277 51 c 0,3,4
 359 51 359 51 472 141 c 1,5,-1
 504 98 l 1,6,7
 434 43 434 43 378.5 18 c 128,-1,8
 323 -7 323 -7 256 -7 c 0,9,10
 171 -7 171 -7 120.5 53.5 c 128,-1,11
 70 114 70 114 70 235.5 c 128,-1,12
 70 357 70 357 105 456 c 128,-1,13
 140 555 140 555 214.5 615 c 128,-1,14
 289 675 289 675 395 675 c 0,15,16
 473 675 473 675 516 641.5 c 128,-1,17
 559 608 559 608 559 559 c 0,18,19
 559 526 559 526 542 499 c 128,-1,20
 525 472 525 472 499 472 c 128,-1,21
 473 472 473 472 458.5 483 c 128,-1,22
 444 494 444 494 443 511 c 1,23,24
 463 533 463 533 463 559.5 c 128,-1,25
 463 586 463 586 443 604.5 c 128,-1,26
 423 623 423 623 385 624 c 1,27,28
 280 623 280 623 223.5 503 c 128,-1,29
 167 383 167 383 167 213 c 0,0,1
449 847 m 1,30,31
 464 863 464 863 481 863 c 128,-1,32
 498 863 498 863 508.5 853.5 c 128,-1,33
 519 844 519 844 519 825.5 c 128,-1,34
 519 807 519 807 496 790 c 2,35,-1
 374 706 l 1,36,-1
 352 731 l 1,37,-1
 449 847 l 1,30,31
EndSplineSet
EndChar

StartChar: cacute
Encoding: 263 263 201
Width: 433
GlyphClass: 2
Flags: W
LayerCount: 2
Fore
SplineSet
210 -7 m 0,0,1
 39 -7 39 -7 39 162 c 0,2,3
 39 336 39 336 138 427 c 0,4,5
 192 476 192 476 259 476 c 128,-1,6
 326 476 326 476 368 449.5 c 128,-1,7
 410 423 410 423 410 374 c 0,8,9
 410 346 410 346 392 324 c 128,-1,10
 374 302 374 302 352 302 c 0,11,12
 308 302 308 302 304 338 c 1,13,14
 320 363 320 363 320 383 c 0,15,16
 320 431 320 431 277 431 c 0,17,18
 216 431 216 431 172 350 c 128,-1,19
 128 269 128 269 128 171 c 0,20,21
 128 116 128 116 151.5 80.5 c 128,-1,22
 175 45 175 45 222 45 c 0,23,24
 248 45 248 45 280.5 58.5 c 128,-1,25
 313 72 313 72 332 86 c 2,26,-1
 351 100 l 1,27,-1
 378 63 l 1,28,29
 353 38 353 38 302.5 15.5 c 128,-1,30
 252 -7 252 -7 210 -7 c 0,0,1
338 647 m 1,31,32
 353 663 353 663 370 663 c 128,-1,33
 387 663 387 663 397.5 653.5 c 128,-1,34
 408 644 408 644 408 625.5 c 128,-1,35
 408 607 408 607 385 590 c 2,36,-1
 263 506 l 1,37,-1
 241 531 l 1,38,-1
 338 647 l 1,31,32
EndSplineSet
EndChar

StartChar: Ccircumflex
Encoding: 264 264 202
Width: 540
GlyphClass: 2
Flags: W
LayerCount: 2
Fore
SplineSet
167 213 m 0,0,1
 167 130 167 130 196.5 90.5 c 128,-1,2
 226 51 226 51 277 51 c 0,3,4
 359 51 359 51 472 141 c 1,5,-1
 504 98 l 1,6,7
 434 43 434 43 378.5 18 c 128,-1,8
 323 -7 323 -7 256 -7 c 0,9,10
 171 -7 171 -7 120.5 53.5 c 128,-1,11
 70 114 70 114 70 235.5 c 128,-1,12
 70 357 70 357 105 456 c 128,-1,13
 140 555 140 555 214.5 615 c 128,-1,14
 289 675 289 675 395 675 c 0,15,16
 473 675 473 675 516 641.5 c 128,-1,17
 559 608 559 608 559 559 c 0,18,19
 559 526 559 526 542 499 c 128,-1,20
 525 472 525 472 499 472 c 128,-1,21
 473 472 473 472 458.5 483 c 128,-1,22
 444 494 444 494 443 511 c 1,23,24
 463 533 463 533 463 559.5 c 128,-1,25
 463 586 463 586 443 604.5 c 128,-1,26
 423 623 423 623 385 624 c 1,27,28
 280 623 280 623 223.5 503 c 128,-1,29
 167 383 167 383 167 213 c 0,0,1
420 853 m 128,-1,31
 437 853 437 853 449 837 c 2,32,-1
 525 730 l 1,33,-1
 499 706 l 1,34,-1
 411 781 l 1,35,-1
 299 706 l 1,36,-1
 278 730 l 1,37,-1
 387 837 l 2,38,30
 403 853 403 853 420 853 c 128,-1,31
EndSplineSet
EndChar

StartChar: ccircumflex
Encoding: 265 265 203
Width: 433
GlyphClass: 2
Flags: W
LayerCount: 2
Fore
SplineSet
210 -7 m 0,0,1
 39 -7 39 -7 39 162 c 0,2,3
 39 336 39 336 138 427 c 0,4,5
 192 476 192 476 259 476 c 128,-1,6
 326 476 326 476 368 449.5 c 128,-1,7
 410 423 410 423 410 374 c 0,8,9
 410 346 410 346 392 324 c 128,-1,10
 374 302 374 302 352 302 c 0,11,12
 308 302 308 302 304 338 c 1,13,14
 320 363 320 363 320 383 c 0,15,16
 320 431 320 431 277 431 c 0,17,18
 216 431 216 431 172 350 c 128,-1,19
 128 269 128 269 128 171 c 0,20,21
 128 116 128 116 151.5 80.5 c 128,-1,22
 175 45 175 45 222 45 c 0,23,24
 248 45 248 45 280.5 58.5 c 128,-1,25
 313 72 313 72 332 86 c 2,26,-1
 351 100 l 1,27,-1
 378 63 l 1,28,29
 353 38 353 38 302.5 15.5 c 128,-1,30
 252 -7 252 -7 210 -7 c 0,0,1
309 653 m 128,-1,32
 326 653 326 653 338 637 c 2,33,-1
 414 530 l 1,34,-1
 388 506 l 1,35,-1
 300 581 l 1,36,-1
 188 506 l 1,37,-1
 167 530 l 1,38,-1
 276 637 l 2,39,31
 292 653 292 653 309 653 c 128,-1,32
EndSplineSet
EndChar

StartChar: Cdotaccent
Encoding: 266 266 204
Width: 540
GlyphClass: 2
Flags: W
LayerCount: 2
Fore
SplineSet
167 213 m 0,0,1
 167 130 167 130 196.5 90.5 c 128,-1,2
 226 51 226 51 277 51 c 0,3,4
 359 51 359 51 472 141 c 1,5,-1
 504 98 l 1,6,7
 434 43 434 43 378.5 18 c 128,-1,8
 323 -7 323 -7 256 -7 c 0,9,10
 171 -7 171 -7 120.5 53.5 c 128,-1,11
 70 114 70 114 70 235.5 c 128,-1,12
 70 357 70 357 105 456 c 128,-1,13
 140 555 140 555 214.5 615 c 128,-1,14
 289 675 289 675 395 675 c 0,15,16
 473 675 473 675 516 641.5 c 128,-1,17
 559 608 559 608 559 559 c 0,18,19
 559 526 559 526 542 499 c 128,-1,20
 525 472 525 472 499 472 c 128,-1,21
 473 472 473 472 458.5 483 c 128,-1,22
 444 494 444 494 443 511 c 1,23,24
 463 533 463 533 463 559.5 c 128,-1,25
 463 586 463 586 443 604.5 c 128,-1,26
 423 623 423 623 385 624 c 1,27,28
 280 623 280 623 223.5 503 c 128,-1,29
 167 383 167 383 167 213 c 0,0,1
444.5 744 m 128,-1,31
 428 725 428 725 404 725 c 0,32,33
 355 725 355 725 355 770 c 0,34,35
 355 803 355 803 371.5 822 c 128,-1,36
 388 841 388 841 412 841 c 128,-1,37
 436 841 436 841 448.5 828.5 c 128,-1,38
 461 816 461 816 461 789.5 c 128,-1,30
 461 763 461 763 444.5 744 c 128,-1,31
EndSplineSet
EndChar

StartChar: cdotaccent
Encoding: 267 267 205
Width: 433
GlyphClass: 2
Flags: W
LayerCount: 2
Fore
SplineSet
210 -7 m 0,0,1
 39 -7 39 -7 39 162 c 0,2,3
 39 336 39 336 138 427 c 0,4,5
 192 476 192 476 259 476 c 128,-1,6
 326 476 326 476 368 449.5 c 128,-1,7
 410 423 410 423 410 374 c 0,8,9
 410 346 410 346 392 324 c 128,-1,10
 374 302 374 302 352 302 c 0,11,12
 308 302 308 302 304 338 c 1,13,14
 320 363 320 363 320 383 c 0,15,16
 320 431 320 431 277 431 c 0,17,18
 216 431 216 431 172 350 c 128,-1,19
 128 269 128 269 128 171 c 0,20,21
 128 116 128 116 151.5 80.5 c 128,-1,22
 175 45 175 45 222 45 c 0,23,24
 248 45 248 45 280.5 58.5 c 128,-1,25
 313 72 313 72 332 86 c 2,26,-1
 351 100 l 1,27,-1
 378 63 l 1,28,29
 353 38 353 38 302.5 15.5 c 128,-1,30
 252 -7 252 -7 210 -7 c 0,0,1
335.5 559 m 128,-1,32
 319 540 319 540 294 540 c 0,33,34
 246 540 246 540 246 585 c 0,35,36
 246 618 246 618 262.5 637 c 128,-1,37
 279 656 279 656 304 656 c 0,38,39
 352 656 352 656 352 611 c 0,40,31
 352 578 352 578 335.5 559 c 128,-1,32
EndSplineSet
EndChar

StartChar: Ccaron
Encoding: 268 268 206
Width: 540
GlyphClass: 2
Flags: W
LayerCount: 2
Fore
SplineSet
167 213 m 0,0,1
 167 130 167 130 196.5 90.5 c 128,-1,2
 226 51 226 51 277 51 c 0,3,4
 359 51 359 51 472 141 c 1,5,-1
 504 98 l 1,6,7
 434 43 434 43 378.5 18 c 128,-1,8
 323 -7 323 -7 256 -7 c 0,9,10
 171 -7 171 -7 120.5 53.5 c 128,-1,11
 70 114 70 114 70 235.5 c 128,-1,12
 70 357 70 357 105 456 c 128,-1,13
 140 555 140 555 214.5 615 c 128,-1,14
 289 675 289 675 395 675 c 0,15,16
 473 675 473 675 516 641.5 c 128,-1,17
 559 608 559 608 559 559 c 0,18,19
 559 526 559 526 542 499 c 128,-1,20
 525 472 525 472 499 472 c 128,-1,21
 473 472 473 472 458.5 483 c 128,-1,22
 444 494 444 494 443 511 c 1,23,24
 463 533 463 533 463 559.5 c 128,-1,25
 463 586 463 586 443 604.5 c 128,-1,26
 423 623 423 623 385 624 c 1,27,28
 280 623 280 623 223.5 503 c 128,-1,29
 167 383 167 383 167 213 c 0,0,1
397 706 m 128,-1,31
 381 706 381 706 368 722 c 1,32,-1
 293 828 l 1,33,-1
 319 853 l 1,34,-1
 405 778 l 1,35,-1
 518 853 l 1,36,-1
 540 828 l 1,37,-1
 431 722 l 1,38,30
 413 706 413 706 397 706 c 128,-1,31
EndSplineSet
EndChar

StartChar: ccaron
Encoding: 269 269 207
Width: 433
GlyphClass: 2
Flags: W
LayerCount: 2
Fore
SplineSet
210 -7 m 0,0,1
 39 -7 39 -7 39 162 c 0,2,3
 39 336 39 336 138 427 c 0,4,5
 192 476 192 476 259 476 c 128,-1,6
 326 476 326 476 368 449.5 c 128,-1,7
 410 423 410 423 410 374 c 0,8,9
 410 346 410 346 392 324 c 128,-1,10
 374 302 374 302 352 302 c 0,11,12
 308 302 308 302 304 338 c 1,13,14
 320 363 320 363 320 383 c 0,15,16
 320 431 320 431 277 431 c 0,17,18
 216 431 216 431 172 350 c 128,-1,19
 128 269 128 269 128 171 c 0,20,21
 128 116 128 116 151.5 80.5 c 128,-1,22
 175 45 175 45 222 45 c 0,23,24
 248 45 248 45 280.5 58.5 c 128,-1,25
 313 72 313 72 332 86 c 2,26,-1
 351 100 l 1,27,-1
 378 63 l 1,28,29
 353 38 353 38 302.5 15.5 c 128,-1,30
 252 -7 252 -7 210 -7 c 0,0,1
286 506 m 128,-1,32
 270 506 270 506 257 522 c 1,33,-1
 182 628 l 1,34,-1
 208 653 l 1,35,-1
 294 578 l 1,36,-1
 407 653 l 1,37,-1
 429 628 l 1,38,-1
 320 522 l 1,39,31
 302 506 302 506 286 506 c 128,-1,32
EndSplineSet
EndChar

StartChar: Dcaron
Encoding: 270 270 208
Width: 646
GlyphClass: 2
Flags: W
LayerCount: 2
Fore
SplineSet
333 667 m 2,0,1
 471 667 471 667 544 611 c 128,-1,2
 617 555 617 555 617 431 c 0,3,4
 617 226 617 226 516 113 c 128,-1,5
 415 0 415 0 228 0 c 2,6,-1
 21 0 l 1,7,-1
 26 37 l 1,8,9
 87 45 87 45 116 62 c 1,10,-1
 202 604 l 1,11,12
 170 623 170 623 117 630 c 1,13,-1
 122 667 l 1,14,-1
 333 667 l 2,0,1
339 617 m 2,15,-1
 292 617 l 1,16,-1
 208 90 l 2,17,18
 207 86 207 86 207 74 c 0,19,20
 207 49 207 49 268.5 49 c 128,-1,21
 330 49 330 49 381.5 86 c 128,-1,22
 433 123 433 123 462 183 c 0,23,24
 519 304 519 304 519 441 c 0,25,26
 519 538 519 538 472.5 577.5 c 128,-1,27
 426 617 426 617 339 617 c 2,15,-1
368 706 m 128,-1,29
 352 706 352 706 339 722 c 1,30,-1
 264 828 l 1,31,-1
 290 853 l 1,32,-1
 376 778 l 1,33,-1
 489 853 l 1,34,-1
 511 828 l 1,35,-1
 402 722 l 1,36,28
 384 706 384 706 368 706 c 128,-1,29
EndSplineSet
EndChar

StartChar: dcaron
Encoding: 271 271 209
Width: 637
GlyphClass: 2
Flags: W
LayerCount: 2
Fore
SplineSet
317 6 m 128,-1,1
 306 19 306 19 306 37.5 c 128,-1,2
 306 56 306 56 314 98 c 1,3,4
 243 -7 243 -7 169.5 -7 c 128,-1,5
 96 -7 96 -7 68 39.5 c 128,-1,6
 40 86 40 86 40 165.5 c 128,-1,7
 40 245 40 245 65.5 313.5 c 128,-1,8
 91 382 91 382 143 429 c 128,-1,9
 195 476 195 476 257.5 476 c 128,-1,10
 320 476 320 476 368 455 c 1,11,-1
 389 577 l 2,12,13
 392 596 392 596 392 604 c 0,14,15
 392 629 392 629 373.5 636 c 128,-1,16
 355 643 355 643 315 643 c 1,17,-1
 321 682 l 1,18,19
 391 696 391 696 441 696 c 1,20,-1
 478 694 l 1,21,-1
 490 672 l 1,22,-1
 397 96 l 2,23,24
 394 81 394 81 394 77 c 0,25,26
 394 62 394 62 414 62 c 128,-1,27
 434 62 434 62 466 81 c 1,28,-1
 476 49 l 1,29,30
 411 -7 411 -7 363 -7 c 0,31,0
 328 -7 328 -7 317 6 c 128,-1,1
193 45 m 0,32,33
 235 45 235 45 280 117.5 c 128,-1,34
 325 190 325 190 343 301 c 2,35,-1
 360 406 l 1,36,37
 322 431 322 431 285 431 c 0,38,39
 219 431 219 431 174 346 c 128,-1,40
 129 261 129 261 129 171 c 0,41,42
 129 45 129 45 193 45 c 0,32,33
556 604 m 0,43,44
 556 626 556 626 540 641 c 1,45,46
 558 663 558 663 582 663 c 128,-1,47
 606 663 606 663 618 652 c 128,-1,48
 630 641 630 641 630 623 c 0,49,50
 630 575 630 575 556 489 c 1,51,-1
 522 502 l 1,52,53
 556 563 556 563 556 604 c 0,43,44
EndSplineSet
EndChar

StartChar: Dcroat
Encoding: 272 272 210
Width: 649
GlyphClass: 2
Flags: W
LayerCount: 2
Fore
SplineSet
333 667 m 2,0,1
 471 667 471 667 544 611 c 128,-1,2
 617 555 617 555 617 431 c 0,3,4
 617 226 617 226 516 113 c 128,-1,5
 415 0 415 0 228 0 c 2,6,-1
 21 0 l 1,7,-1
 26 37 l 1,8,9
 87 45 87 45 116 62 c 1,10,-1
 202 604 l 1,11,12
 170 623 170 623 117 630 c 1,13,-1
 122 667 l 1,14,-1
 333 667 l 2,0,1
339 617 m 2,15,-1
 292 617 l 1,16,-1
 208 90 l 2,17,18
 207 86 207 86 207 74 c 0,19,20
 207 49 207 49 268.5 49 c 128,-1,21
 330 49 330 49 381.5 86 c 128,-1,22
 433 123 433 123 462 183 c 0,23,24
 519 304 519 304 519 441 c 0,25,26
 519 538 519 538 472.5 577.5 c 128,-1,27
 426 617 426 617 339 617 c 2,15,-1
78 304 m 1,28,-1
 85 348 l 1,29,-1
 362 348 l 1,30,-1
 355 304 l 1,31,-1
 78 304 l 1,28,-1
EndSplineSet
EndChar

StartChar: dcroat
Encoding: 273 273 211
Width: 524
GlyphClass: 2
Flags: W
LayerCount: 2
Fore
SplineSet
317 6 m 128,-1,1
 306 19 306 19 306 37.5 c 128,-1,2
 306 56 306 56 314 98 c 1,3,4
 243 -7 243 -7 169.5 -7 c 128,-1,5
 96 -7 96 -7 68 39.5 c 128,-1,6
 40 86 40 86 40 165.5 c 128,-1,7
 40 245 40 245 65.5 313.5 c 128,-1,8
 91 382 91 382 143 429 c 128,-1,9
 195 476 195 476 257.5 476 c 128,-1,10
 320 476 320 476 368 455 c 1,11,-1
 389 577 l 2,12,13
 392 596 392 596 392 604 c 0,14,15
 392 629 392 629 373.5 636 c 128,-1,16
 355 643 355 643 315 643 c 1,17,-1
 321 682 l 1,18,19
 391 696 391 696 441 696 c 1,20,-1
 478 694 l 1,21,-1
 490 672 l 1,22,-1
 397 96 l 2,23,24
 394 81 394 81 394 77 c 0,25,26
 394 62 394 62 414 62 c 128,-1,27
 434 62 434 62 466 81 c 1,28,-1
 476 49 l 1,29,30
 411 -7 411 -7 363 -7 c 0,31,0
 328 -7 328 -7 317 6 c 128,-1,1
193 45 m 0,32,33
 235 45 235 45 280 117.5 c 128,-1,34
 325 190 325 190 343 301 c 2,35,-1
 360 406 l 1,36,37
 322 431 322 431 285 431 c 0,38,39
 219 431 219 431 174 346 c 128,-1,40
 129 261 129 261 129 171 c 0,41,42
 129 45 129 45 193 45 c 0,32,33
253 525 m 1,43,-1
 260 569 l 1,44,-1
 537 569 l 1,45,-1
 530 525 l 1,46,-1
 253 525 l 1,43,-1
EndSplineSet
EndChar

StartChar: Emacron
Encoding: 274 274 212
Width: 568
GlyphClass: 2
Flags: W
LayerCount: 2
Fore
SplineSet
541 516 m 1,0,1
 526 511 526 511 516.5 511 c 128,-1,2
 507 511 507 511 497 513 c 1,3,4
 495 579 495 579 472 614 c 1,5,-1
 288 614 l 1,6,-1
 248 363 l 1,7,8
 332 365 332 365 355 368 c 1,9,10
 394 371 394 371 420 434 c 1,11,-1
 452 434 l 1,12,-1
 421 239 l 1,13,-1
 390 239 l 1,14,15
 390 262 390 262 381.5 282 c 128,-1,16
 373 302 373 302 364.5 306.5 c 128,-1,17
 356 311 356 311 344 312 c 2,18,-1
 240 316 l 1,19,-1
 199 57 l 1,20,-1
 393 57 l 1,21,22
 426 94 426 94 453 169 c 1,23,24
 465 171 465 171 471.5 171 c 128,-1,25
 478 171 478 171 494 169 c 1,26,-1
 458 0 l 1,27,-1
 17 0 l 1,28,-1
 22 37 l 1,29,30
 81 44 81 44 112 63 c 1,31,-1
 198 604 l 1,32,33
 165 624 165 624 112 630 c 1,34,-1
 117 667 l 1,35,-1
 556 667 l 1,36,-1
 541 516 l 1,0,1
240 740 m 1,37,-1
 247 784 l 1,38,-1
 524 784 l 1,39,-1
 517 740 l 1,40,-1
 240 740 l 1,37,-1
EndSplineSet
EndChar

StartChar: emacron
Encoding: 275 275 213
Width: 457
GlyphClass: 2
Flags: W
LayerCount: 2
Fore
SplineSet
423 370 m 0,0,1
 423 296 423 296 340 245.5 c 128,-1,2
 257 195 257 195 131 195 c 1,3,-1
 131 172 l 2,4,5
 131 108 131 108 155 76.5 c 128,-1,6
 179 45 179 45 220 45 c 0,7,8
 276 45 276 45 357 106 c 1,9,-1
 386 69 l 1,10,11
 355 38 355 38 305 15.5 c 128,-1,12
 255 -7 255 -7 200 -7 c 0,13,14
 117 -7 117 -7 78.5 41 c 128,-1,15
 40 89 40 89 40 157 c 0,16,17
 40 301 40 301 108.5 388.5 c 128,-1,18
 177 476 177 476 286 476 c 0,19,20
 354 476 354 476 388.5 445 c 128,-1,21
 423 414 423 414 423 370 c 0,0,1
279 430 m 0,22,23
 224 430 224 430 186.5 378 c 128,-1,24
 149 326 149 326 136 244 c 1,25,26
 225 244 225 244 280 280 c 128,-1,27
 335 316 335 316 335 372 c 0,28,29
 335 396 335 396 320.5 413 c 128,-1,30
 306 430 306 430 279 430 c 0,22,23
153 550 m 1,31,-1
 160 594 l 1,32,-1
 437 594 l 1,33,-1
 430 550 l 1,34,-1
 153 550 l 1,31,-1
EndSplineSet
EndChar

StartChar: Ebreve
Encoding: 276 276 214
Width: 568
GlyphClass: 2
Flags: W
LayerCount: 2
Fore
SplineSet
541 516 m 1,0,1
 526 511 526 511 516.5 511 c 128,-1,2
 507 511 507 511 497 513 c 1,3,4
 495 579 495 579 472 614 c 1,5,-1
 288 614 l 1,6,-1
 248 363 l 1,7,8
 332 365 332 365 355 368 c 1,9,10
 394 371 394 371 420 434 c 1,11,-1
 452 434 l 1,12,-1
 421 239 l 1,13,-1
 390 239 l 1,14,15
 390 262 390 262 381.5 282 c 128,-1,16
 373 302 373 302 364.5 306.5 c 128,-1,17
 356 311 356 311 344 312 c 2,18,-1
 240 316 l 1,19,-1
 199 57 l 1,20,-1
 393 57 l 1,21,22
 426 94 426 94 453 169 c 1,23,24
 465 171 465 171 471.5 171 c 128,-1,25
 478 171 478 171 494 169 c 1,26,-1
 458 0 l 1,27,-1
 17 0 l 1,28,-1
 22 37 l 1,29,30
 81 44 81 44 112 63 c 1,31,-1
 198 604 l 1,32,33
 165 624 165 624 112 630 c 1,34,-1
 117 667 l 1,35,-1
 556 667 l 1,36,-1
 541 516 l 1,0,1
460.5 738.5 m 128,-1,38
 424 706 424 706 376.5 706 c 128,-1,39
 329 706 329 706 302.5 733.5 c 128,-1,40
 276 761 276 761 276 808 c 0,41,42
 276 823 276 823 285.5 827 c 128,-1,43
 295 831 295 831 315 831 c 1,44,-1
 315 825 l 2,45,46
 315 795 315 795 332.5 777.5 c 128,-1,47
 350 760 350 760 381.5 760 c 128,-1,48
 413 760 413 760 437 779.5 c 128,-1,49
 461 799 461 799 467 831 c 1,50,51
 492 831 492 831 507 825 c 1,52,37
 497 771 497 771 460.5 738.5 c 128,-1,38
EndSplineSet
EndChar

StartChar: ebreve
Encoding: 277 277 215
Width: 457
GlyphClass: 2
Flags: W
LayerCount: 2
Fore
SplineSet
423 370 m 0,0,1
 423 296 423 296 340 245.5 c 128,-1,2
 257 195 257 195 131 195 c 1,3,-1
 131 172 l 2,4,5
 131 108 131 108 155 76.5 c 128,-1,6
 179 45 179 45 220 45 c 0,7,8
 276 45 276 45 357 106 c 1,9,-1
 386 69 l 1,10,11
 355 38 355 38 305 15.5 c 128,-1,12
 255 -7 255 -7 200 -7 c 0,13,14
 117 -7 117 -7 78.5 41 c 128,-1,15
 40 89 40 89 40 157 c 0,16,17
 40 301 40 301 108.5 388.5 c 128,-1,18
 177 476 177 476 286 476 c 0,19,20
 354 476 354 476 388.5 445 c 128,-1,21
 423 414 423 414 423 370 c 0,0,1
279 430 m 0,22,23
 224 430 224 430 186.5 378 c 128,-1,24
 149 326 149 326 136 244 c 1,25,26
 225 244 225 244 280 280 c 128,-1,27
 335 316 335 316 335 372 c 0,28,29
 335 396 335 396 320.5 413 c 128,-1,30
 306 430 306 430 279 430 c 0,22,23
369.5 548.5 m 128,-1,32
 333 516 333 516 285.5 516 c 128,-1,33
 238 516 238 516 211.5 543.5 c 128,-1,34
 185 571 185 571 185 618 c 0,35,36
 185 633 185 633 194.5 637 c 128,-1,37
 204 641 204 641 224 641 c 1,38,-1
 224 635 l 2,39,40
 224 605 224 605 241.5 587.5 c 128,-1,41
 259 570 259 570 290.5 570 c 128,-1,42
 322 570 322 570 346 589.5 c 128,-1,43
 370 609 370 609 376 641 c 1,44,45
 401 641 401 641 416 635 c 1,46,31
 406 581 406 581 369.5 548.5 c 128,-1,32
EndSplineSet
EndChar

StartChar: Edotaccent
Encoding: 278 278 216
Width: 568
GlyphClass: 2
Flags: W
LayerCount: 2
Fore
SplineSet
541 516 m 1,0,1
 526 511 526 511 516.5 511 c 128,-1,2
 507 511 507 511 497 513 c 1,3,4
 495 579 495 579 472 614 c 1,5,-1
 288 614 l 1,6,-1
 248 363 l 1,7,8
 332 365 332 365 355 368 c 1,9,10
 394 371 394 371 420 434 c 1,11,-1
 452 434 l 1,12,-1
 421 239 l 1,13,-1
 390 239 l 1,14,15
 390 262 390 262 381.5 282 c 128,-1,16
 373 302 373 302 364.5 306.5 c 128,-1,17
 356 311 356 311 344 312 c 2,18,-1
 240 316 l 1,19,-1
 199 57 l 1,20,-1
 393 57 l 1,21,22
 426 94 426 94 453 169 c 1,23,24
 465 171 465 171 471.5 171 c 128,-1,25
 478 171 478 171 494 169 c 1,26,-1
 458 0 l 1,27,-1
 17 0 l 1,28,-1
 22 37 l 1,29,30
 81 44 81 44 112 63 c 1,31,-1
 198 604 l 1,32,33
 165 624 165 624 112 630 c 1,34,-1
 117 667 l 1,35,-1
 556 667 l 1,36,-1
 541 516 l 1,0,1
422.5 744 m 128,-1,38
 406 725 406 725 382 725 c 0,39,40
 333 725 333 725 333 770 c 0,41,42
 333 803 333 803 349.5 822 c 128,-1,43
 366 841 366 841 390 841 c 128,-1,44
 414 841 414 841 426.5 828.5 c 128,-1,45
 439 816 439 816 439 789.5 c 128,-1,37
 439 763 439 763 422.5 744 c 128,-1,38
EndSplineSet
EndChar

StartChar: edotaccent
Encoding: 279 279 217
Width: 457
GlyphClass: 2
Flags: W
LayerCount: 2
Fore
SplineSet
423 370 m 0,0,1
 423 296 423 296 340 245.5 c 128,-1,2
 257 195 257 195 131 195 c 1,3,-1
 131 172 l 2,4,5
 131 108 131 108 155 76.5 c 128,-1,6
 179 45 179 45 220 45 c 0,7,8
 276 45 276 45 357 106 c 1,9,-1
 386 69 l 1,10,11
 355 38 355 38 305 15.5 c 128,-1,12
 255 -7 255 -7 200 -7 c 0,13,14
 117 -7 117 -7 78.5 41 c 128,-1,15
 40 89 40 89 40 157 c 0,16,17
 40 301 40 301 108.5 388.5 c 128,-1,18
 177 476 177 476 286 476 c 0,19,20
 354 476 354 476 388.5 445 c 128,-1,21
 423 414 423 414 423 370 c 0,0,1
279 430 m 0,22,23
 224 430 224 430 186.5 378 c 128,-1,24
 149 326 149 326 136 244 c 1,25,26
 225 244 225 244 280 280 c 128,-1,27
 335 316 335 316 335 372 c 0,28,29
 335 396 335 396 320.5 413 c 128,-1,30
 306 430 306 430 279 430 c 0,22,23
334.5 559 m 128,-1,32
 318 540 318 540 294 540 c 0,33,34
 245 540 245 540 245 585 c 0,35,36
 245 618 245 618 261.5 637 c 128,-1,37
 278 656 278 656 302 656 c 128,-1,38
 326 656 326 656 338.5 644 c 128,-1,39
 351 632 351 632 351 605 c 128,-1,31
 351 578 351 578 334.5 559 c 128,-1,32
EndSplineSet
EndChar

